<svg width="75" height="76" viewBox="0 0 75 76" fill="none" xmlns="http://www.w3.org/2000/svg">
<g clip-path="url(#clip0_15_409)">
<path d="M62.0194 44.4049L55.1051 26.3145H19.5691L12.6548 44.4049C9.97677 45.6794 8.12109 48.412 8.12109 51.57V66.5758H12.0423V67.9094C12.0423 71.8346 15.2361 75.0285 19.1619 75.0285C23.0871 75.0285 26.2809 71.8346 26.2809 67.9094V66.5758H48.3938V67.9094C48.3938 71.8346 51.5871 75.0285 55.5129 75.0285C59.4386 75.0285 62.6319 71.8346 62.6319 67.9094V66.5758H66.5537V51.57C66.5531 48.412 64.6974 45.6794 62.0194 44.4049ZM22.5736 30.6798H52.1007L57.0535 43.6389H50.7841L40.9069 35.4768L38.1265 38.8419L43.9318 43.6389H35.9296L26.0523 35.4768L23.2719 38.8419L29.0767 43.6389H17.6213L22.5736 30.6798ZM21.9156 67.9094C21.9156 69.4279 20.6803 70.6631 19.1613 70.6631C17.6429 70.6631 16.4077 69.4279 16.4077 67.9094V66.5758H21.9156V67.9094ZM32.7687 62.2105V57.9139H41.9055V62.2105H32.7687ZM46.2709 62.2105V53.5485H28.4033V62.2105H12.4859V51.57C12.4859 49.6034 14.0857 48.0042 16.0522 48.0042H58.6225C60.5886 48.0042 62.1883 49.604 62.1883 51.57V62.2105H46.2709ZM58.2665 67.9094C58.2665 69.4279 57.0313 70.6631 55.5129 70.6631C53.9939 70.6631 52.7586 69.4279 52.7586 67.9094V66.5758H58.2665V67.9094Z" fill="white"/>
<path d="M0.0898438 0.487305H74.5889V4.85267H0.0898438V0.487305Z" fill="white"/>
<path d="M3.21484 7.72168H7.57964V14.9971H3.21484V7.72168Z" fill="white"/>
<path d="M11.1641 7.72168H15.5289V18.7722H11.1641V7.72168Z" fill="white"/>
<path d="M11.1641 22.269H15.5289V27.0137H11.1641V22.269Z" fill="white"/>
<path d="M3.21484 18.0688H7.57964V22.5559H3.21484V18.0688Z" fill="white"/>
<path d="M19.0234 7.72168H23.3882V14.9971H19.0234V7.72168Z" fill="white"/>
<path d="M19.0234 18.0688H23.3882V22.5559H19.0234V18.0688Z" fill="white"/>
<path d="M27.0312 7.72168H31.3966V20.931H27.0312V7.72168Z" fill="white"/>
<path d="M35.0508 7.72168H39.4162V14.9971H35.0508V7.72168Z" fill="white"/>
<path d="M35.0508 18.0688H39.4162V22.5559H35.0508V18.0688Z" fill="white"/>
<path d="M43.0625 7.72168H47.4273V18.0681H43.0625V7.72168Z" fill="white"/>
<path d="M51.0742 7.60889H55.4396V20.3126H51.0742V7.60889Z" fill="white"/>
<path d="M59.0898 7.72168H63.4546V14.9971H59.0898V7.72168Z" fill="white"/>
<path d="M59.0898 18.0688H63.4546V22.5559H59.0898V18.0688Z" fill="white"/>
<path d="M67.1016 7.72168H71.4669V18.0681H67.1016V7.72168Z" fill="white"/>
<path d="M67.1016 20.9307H71.4669V26.1246H67.1016V20.9307Z" fill="white"/>
<path d="M23.2963 55.3068C23.2963 56.9743 21.9445 58.3261 20.2771 58.3261C18.6096 58.3261 17.2578 56.9743 17.2578 55.3068C17.2578 53.6394 18.6096 52.2876 20.2771 52.2876C21.9445 52.2876 23.2963 53.6394 23.2963 55.3068Z" fill="white"/>
<path d="M56.6127 55.3068C56.6127 56.9743 55.2609 58.3261 53.5935 58.3261C51.926 58.3261 50.5742 56.9743 50.5742 55.3068C50.5742 53.6394 51.926 52.2876 53.5935 52.2876C55.2609 52.2876 56.6127 53.6394 56.6127 55.3068Z" fill="white"/>
</g>
<defs>
<clipPath id="clip0_15_409">
<rect width="74.5411" height="74.5411" fill="white" transform="translate(0.0898438 0.487305)"/>
</clipPath>
</defs>
</svg>
