<svg width="75" height="75" viewBox="0 0 75 75" fill="none" xmlns="http://www.w3.org/2000/svg">
<g clip-path="url(#clip0_15_432)">
<path d="M67.1958 41.36C67.2147 34.2978 65.0599 27.5671 61.0466 21.9243L64.6709 22.8304L74.631 12.8701L67.5261 10.7026L70.2517 7.97721L67.1633 4.88885L64.3481 7.70394L62.102 0.34082L52.1577 10.2851L53.0011 13.9003C47.8418 10.256 41.8776 8.23854 35.8262 7.84807V2.7966H31.4586V7.84836C23.6047 8.35661 15.8964 11.6035 9.90689 17.593C-3.1825 30.6824 -3.1825 51.9803 9.90689 65.0699C10.1439 65.3069 10.3849 65.5385 10.6275 65.7675L6.58966 69.3251V74.8364H10.9573V71.2979L14.0355 68.586C19.6952 72.6753 26.468 74.8819 33.5817 74.8819C33.6123 74.8819 33.6433 74.8819 33.6739 74.8818C40.779 74.8629 47.5494 72.6427 53.2086 68.5503L56.3274 71.298V74.8365H60.695V69.3253L56.6159 65.7314C56.8607 65.5007 57.1033 65.2673 57.3423 65.0284C63.6724 58.6981 67.1718 50.2925 67.1958 41.36ZM60.0468 8.57281L61.5317 13.4403L66.3992 14.9251L63.331 17.9932L58.1379 16.6949L56.9627 11.6569L60.0468 8.57281ZM33.6622 70.5142C33.635 70.5143 33.6092 70.5143 33.582 70.5143C25.8083 70.5143 18.4994 67.4855 12.9952 61.9815C1.60895 50.5951 1.60895 32.0678 12.9952 20.6814C23.8618 9.81497 41.2309 9.31953 52.6913 19.1929L49.5409 22.3431C45.0963 18.6115 39.53 16.5778 33.6446 16.5778C27.0232 16.5778 20.8046 19.1499 16.1343 23.8204C6.47902 33.4757 6.47902 49.1861 16.1343 58.8412C20.8002 63.5071 26.9944 66.0742 33.5833 66.0742C33.6059 66.0742 33.6289 66.074 33.6514 66.074C40.2403 66.0564 46.4422 63.4735 51.1147 58.8009C55.7872 54.1284 58.3701 47.9266 58.3879 41.3377C58.4036 35.4555 56.3722 29.8853 52.6299 25.4312L55.7811 22.2799C60.3596 27.5836 62.8471 34.2752 62.828 41.3485C62.8072 49.1187 59.7621 56.4317 54.2538 61.9402C48.7454 67.4482 41.4325 70.4933 33.6622 70.5142ZM45.2721 41.3261C45.2721 47.7402 40.054 52.9583 33.6399 52.9583C27.2259 52.9583 22.0077 47.7401 22.0077 41.3261C22.0077 34.912 27.2259 29.694 33.6399 29.694C40.054 29.694 45.2721 34.912 45.2721 41.3261ZM43.3022 28.5822C40.6156 26.5403 37.2671 25.3262 33.6399 25.3262C24.8176 25.3262 17.6401 32.5037 17.6401 41.3259C17.6401 50.1484 24.8176 57.3258 33.6399 57.3258C42.4623 57.3258 49.6398 50.1483 49.6398 41.3259C49.6398 37.7022 48.428 34.3566 46.3897 31.6712L49.5274 28.5335C52.4504 32.1486 54.0329 36.6159 54.0202 41.3259C54.0057 46.7524 51.877 51.8617 48.0264 55.7124C44.1757 59.563 39.0664 61.6917 33.6396 61.7062C33.6207 61.7062 33.6025 61.7064 33.5836 61.7064C28.1616 61.7064 23.0631 59.593 19.2226 55.7527C11.2703 47.8004 11.2705 34.8609 19.2226 26.9086C23.0681 23.0632 28.1898 20.9453 33.6447 20.9453C38.3619 20.9453 42.8293 22.5303 46.4384 25.4456L43.3022 28.5822Z" fill="white"/>
<path d="M29.0607 38.8105C30.2029 38.8105 31.2973 37.8061 31.2445 36.6267C31.1915 35.4435 30.2849 34.4429 29.0607 34.4429C27.9184 34.4429 26.824 35.4473 26.8768 36.6267C26.9298 37.8099 27.8364 38.8105 29.0607 38.8105Z" fill="white"/>
<path d="M38.3263 43.7041C37.184 43.7041 36.0896 44.7085 36.1425 45.8879C36.1955 47.0711 37.102 48.0717 38.3263 48.0717C39.4686 48.0717 40.563 47.0673 40.5101 45.8879C40.4571 44.7047 39.5505 43.7041 38.3263 43.7041Z" fill="white"/>
<path d="M26.9297 44.9346L37.2357 34.6285L40.3237 37.7164L30.0176 48.0225L26.9297 44.9346Z" fill="white"/>
</g>
<defs>
<clipPath id="clip0_15_432">
<rect width="74.5411" height="74.5411" fill="white" transform="translate(0.0898438 0.34082)"/>
</clipPath>
</defs>
</svg>
