<svg width="75" height="76" viewBox="0 0 75 76" fill="none" xmlns="http://www.w3.org/2000/svg">
<g clip-path="url(#clip0_15_400)">
<path d="M23.4638 29.4804C23.4638 31.149 22.1114 32.5014 20.4428 32.5014C18.7743 32.5014 17.4219 31.149 17.4219 29.4804C17.4219 27.8118 18.7743 26.4595 20.4428 26.4595C22.1114 26.4595 23.4638 27.8118 23.4638 29.4804Z" fill="white"/>
<path d="M56.8036 29.4804C56.8036 31.149 55.4512 32.5014 53.7827 32.5014C52.1141 32.5014 50.7617 31.149 50.7617 29.4804C50.7617 27.8118 52.1141 26.4595 53.7827 26.4595C55.4512 26.4595 56.8036 27.8118 56.8036 29.4804Z" fill="white"/>
<path d="M62.2696 44.8458C62.6267 43.9979 62.8246 43.0664 62.8246 42.0899V40.7557H66.7481V25.7414C66.7481 22.5817 64.8913 19.8479 62.2116 18.5723L55.2938 0.472168H19.7374L12.8196 18.5723C10.1399 19.8479 8.28309 22.5817 8.28309 25.7414V40.7557H12.2066V42.0899C12.2066 43.0664 12.4045 43.9979 12.7616 44.8458H0.390625V58.2911H14.0975L32.6549 67.6224L17.9573 75.0133H27.6793L37.5156 70.0667L47.3519 75.0133H57.0733L42.3763 67.6224L60.9337 58.2911H74.9317V44.8458H62.2696ZM22.7441 4.83981H52.2871L57.2434 17.8063H17.7884L22.7441 4.83981ZM12.6507 36.3881V25.7414C12.6507 23.7742 14.2511 22.1739 16.2182 22.1739H58.8124C60.7801 22.1739 62.3805 23.7742 62.3805 25.7414V36.3881H46.4545V27.2968H28.5767V36.3881H12.6507ZM58.457 40.7557V42.0899C58.457 43.6095 57.2206 44.8458 55.701 44.8458C54.182 44.8458 52.9457 43.6095 52.9457 42.0899V40.7557H58.457ZM48.578 40.7557V42.0899C48.578 43.0664 48.7759 43.9979 49.1331 44.8458H25.8981C26.2553 43.9979 26.4532 43.0664 26.4532 42.0899V40.7557H48.578ZM32.9444 36.3881V31.6644H42.0868V36.3881H32.9444ZM22.0855 40.7557V42.0899C22.0855 43.6095 20.8492 44.8458 19.3302 44.8458C17.8106 44.8458 16.5742 43.6095 16.5742 42.0899V40.7557H22.0855ZM37.5156 65.1781L23.8195 58.2906H51.2117L37.5156 65.1781ZM70.5641 53.9229H4.75827V49.2129H70.5641V53.9229Z" fill="white"/>
</g>
<defs>
<clipPath id="clip0_15_400">
<rect width="74.5411" height="74.5411" fill="white" transform="translate(0.390625 0.487305)"/>
</clipPath>
</defs>
</svg>
