<svg width="87" height="86" viewBox="0 0 87 86" fill="none" xmlns="http://www.w3.org/2000/svg">
<ellipse cx="43.1943" cy="42.798" rx="43.1943" ry="42.798" fill="#FF001D"/>
<g clip-path="url(#clip0_150_576)">
<path d="M57.9804 62.6372C57.0093 62.534 56.0359 62.4537 55.0716 62.3184C54.3348 62.2128 53.8639 62.4307 53.5778 63.1717C53.2758 63.9515 52.8613 64.6856 52.5233 65.4517C52.1696 66.2545 51.737 66.9587 50.7614 67C49.7497 67.0413 49.3554 66.2522 48.9476 65.5182C47.5777 63.0593 46.1763 60.614 44.8694 58.1207C44.3512 57.132 43.6843 56.6159 42.5848 56.6228C41.4334 56.6297 40.6584 57.054 40.0906 58.1642C38.8063 60.6714 37.3801 63.1005 36.0214 65.5664C35.6024 66.3257 35.1472 67.039 34.1671 67C33.2343 66.9633 32.8378 66.2545 32.4953 65.5022C32.1325 64.7039 31.736 63.9217 31.4025 63.112C31.1254 62.4376 30.677 62.2174 29.9808 62.3115C29.0525 62.4376 28.113 62.4835 27.1802 62.5913C26.4705 62.6739 25.8125 62.6188 25.3687 61.9674C24.8775 61.2448 25.0285 60.5338 25.4295 59.8158C26.7138 57.5266 27.9575 55.2121 29.2666 52.9389C29.6564 52.2646 29.6879 51.8585 28.9962 51.3516C27.6736 50.3836 27.4551 48.8445 27.4123 47.3489C27.3672 45.8717 26.9639 44.5711 26.1347 43.3898C24.6184 41.2267 24.6206 39.0682 26.1483 36.9166C26.9661 35.7651 27.3717 34.4921 27.392 33.063C27.428 30.3907 28.6537 28.5878 31.2043 27.7505C32.4007 27.3583 33.4326 26.6954 34.2009 25.6242C34.6177 25.0438 35.1517 24.5392 35.6812 24.0575C36.9182 22.9243 38.385 22.7867 39.9058 23.2455C41.6542 23.7731 43.3644 23.7639 45.1128 23.2409C47.2758 22.5917 49.0152 23.3349 50.3761 25.1058C51.3179 26.3307 52.4152 27.3262 53.9157 27.8171C56.3649 28.6199 57.559 30.4091 57.5906 32.985C57.6086 34.4989 58.0637 35.8271 58.9177 37.0451C60.3484 39.0889 60.3574 41.1625 58.9605 43.2246C58.0863 44.516 57.5793 45.8877 57.5726 47.498C57.5635 49.9868 56.3649 51.7003 54.0149 52.4962C52.5796 52.9825 51.435 53.8175 50.5135 55.0561C49.7655 56.0631 48.8755 56.9669 47.5687 57.233C47.0189 57.3454 47.0302 57.6917 47.2465 58.084C48.2717 59.9511 49.3081 61.8137 50.3378 63.6786C50.6036 64.158 50.8222 64.0594 51.0295 63.6327C51.4103 62.8436 51.8339 62.0729 52.1673 61.2632C52.5436 60.3457 53.17 59.9947 54.1185 60.114C54.9003 60.2126 55.6867 60.2723 56.473 60.3365C57.2256 60.3961 57.3247 60.0796 56.971 59.458C56.2162 58.1367 55.4771 56.8063 54.7449 55.4713C54.5444 55.1066 54.3393 54.7304 54.2244 54.3336C54.0667 53.7899 54.2807 53.3449 54.799 53.1133C55.2744 52.9022 55.7318 53.0238 55.9841 53.4688C57.2751 55.7534 58.618 58.0152 59.7761 60.3686C60.3754 61.5866 59.3931 62.6968 57.9849 62.6326L57.9804 62.6372ZM38.5787 25.1448C37.5445 25.0943 36.8844 25.6471 36.3369 26.3559C35.0819 27.9868 33.5813 29.2644 31.6076 29.8907C30.2061 30.3357 29.5099 31.3541 29.5144 32.8015C29.5189 34.9118 28.8588 36.7652 27.6691 38.4604C26.8828 39.582 26.8535 40.7267 27.6556 41.8575C28.8768 43.5802 29.5122 45.484 29.5257 47.6287C29.5324 48.8032 29.9966 49.8331 31.1795 50.2506C33.3718 51.0236 35.1495 52.3196 36.5577 54.2097C37.2471 55.1341 38.2182 55.4208 39.3763 55.0538C41.3546 54.4253 43.3508 54.3359 45.3516 55.0057C46.7215 55.4644 47.8729 55.1227 48.72 53.9138C49.9164 52.2003 51.5229 51.0901 53.4651 50.4272C54.7426 49.9891 55.4636 49.0303 55.4591 47.6723C55.4501 45.5207 56.1193 43.6421 57.3179 41.8988C58.0727 40.8001 58.1448 39.6187 57.3337 38.4856C56.1013 36.7629 55.4771 34.8568 55.4636 32.7144C55.4546 31.3014 54.7224 30.3219 53.393 29.8998C51.408 29.2736 49.9164 27.9937 48.6637 26.3651C47.8706 25.3328 46.8928 24.8901 45.5995 25.2961C43.5379 25.943 41.4695 25.9728 39.3989 25.3099C39.115 25.2182 38.8108 25.1906 38.5787 25.1448ZM34.4059 64.3369C34.5096 64.041 34.5389 63.8827 34.6132 63.7497C35.6587 61.8527 36.7131 59.9603 37.7541 58.061C37.9704 57.6665 37.7924 57.3866 37.4003 57.272C35.7758 56.7994 34.8183 55.5057 33.8044 54.2808C33.4123 53.8083 32.9775 53.4046 32.4255 53.127C31.9816 52.9022 31.6459 52.9481 31.3913 53.4138C30.2557 55.4782 29.1156 57.5403 27.9778 59.6025C27.6691 60.1622 27.8832 60.387 28.4555 60.3434C29.2778 60.2814 30.1002 60.2172 30.9181 60.1186C31.8171 60.0108 32.4255 60.3319 32.7882 61.2058C33.1082 61.9789 33.5047 62.7175 33.8742 63.4676C33.9711 63.6648 34.104 63.846 34.4059 64.3369Z" fill="white"/>
<path d="M42.4216 30.3746C40.4907 30.3837 38.7265 30.9457 37.12 32.0353C36.4892 32.4619 35.7727 33.0629 35.1801 32.15C34.583 31.2302 35.3513 30.6842 36.0205 30.2232C42.8024 25.5438 52.3985 29.5488 53.9486 37.7584C54.8589 42.5777 53.4191 46.6584 49.5775 49.6358C45.7788 52.581 41.5407 52.9939 37.2733 50.8217C32.9157 48.6012 30.8023 44.8073 30.7775 39.8641C30.7662 37.8432 31.3701 35.9508 32.3569 34.1869C32.7264 33.5263 33.1928 32.9987 33.9679 33.4253C34.761 33.8612 34.5425 34.5745 34.1955 35.2191C32.589 38.1965 32.3727 41.2174 33.8012 44.3416C35.4054 47.8512 39.1726 50.2253 42.8678 49.9959C47.0405 49.739 50.4878 47.0437 51.6775 43.1121C53.6106 36.7193 48.9917 30.3631 42.4239 30.3769L42.4216 30.3746Z" fill="white"/>
<path d="M41.4654 44.1375C41.1049 44.1168 40.8278 43.9264 40.5844 43.6787C39.575 42.6534 38.5656 41.628 37.5608 40.5981C37.0899 40.1164 36.8353 39.5452 37.3692 38.9901C37.928 38.4075 38.5341 38.6163 39.0546 39.1255C39.6494 39.7081 40.26 40.2793 40.8075 40.9055C41.319 41.4881 41.7178 41.5317 42.2743 40.9353C43.6126 39.4925 45.0006 38.1001 46.3727 36.6917C46.5304 36.5312 46.6949 36.366 46.8819 36.2467C47.3866 35.9302 47.8936 35.921 48.3059 36.3935C48.6957 36.8408 48.6101 37.3455 48.2473 37.7446C47.5331 38.5268 46.7715 39.2654 46.0325 40.0224C44.9217 41.1601 43.8177 42.3024 42.7046 43.4379C42.3599 43.7911 42.0107 44.1489 41.4654 44.1375Z" fill="white"/>
</g>
<defs>
<clipPath id="clip0_150_576">
<rect width="35" height="44" fill="white" transform="translate(25 23)"/>
</clipPath>
</defs>
</svg>
