<svg width="87" height="86" viewBox="0 0 87 86" fill="none" xmlns="http://www.w3.org/2000/svg">
<ellipse cx="43.1943" cy="42.798" rx="43.1943" ry="42.798" fill="#FF001D"/>
<path d="M36.1465 70C35.0327 69.6073 34.1229 68.9315 33.2985 68.0803C31.4117 66.1267 29.4833 64.213 27.5588 62.2973C26.5738 61.3166 26.2052 60.0986 26.9087 58.9444C28.4824 56.3569 28.2505 53.3787 28.9799 50.6197C29.5427 48.4828 28.9204 47.0315 27.2913 45.6381C25.5313 44.1331 25.6284 44.0115 27.2298 42.3888C33.8158 35.7188 40.4116 29.0567 46.9817 22.3687C47.491 21.8504 47.7725 21.9002 48.2382 22.3826C52.0158 26.2878 55.8052 30.179 59.6164 34.0502C60.1377 34.5785 60.1218 34.9114 59.6045 35.4297C56.4632 38.5654 53.3754 41.7549 50.2162 44.8726C49.1836 45.8933 48.8149 47.3545 47.7308 48.3213C47.4217 48.5964 47.7427 48.8655 47.9409 49.0768C48.7674 49.9699 49.1122 50.9905 48.7575 52.1906C48.6207 52.6531 48.8566 52.9441 49.142 53.2431C50.0854 54.2339 50.5055 55.3542 49.9189 56.6898C49.7405 57.0944 49.8891 57.3536 50.1488 57.6626C51.5282 59.3012 51.6451 60.6468 50.3727 62.3412C48.918 64.2788 47.1838 65.9772 45.3565 67.558C44.2902 68.479 42.9465 68.9136 41.5928 69.2664C40.699 69.4996 39.8131 69.7548 38.9232 70H36.1485H36.1465ZM37.3832 68.0365C39.7377 67.5919 42.2132 67.3846 44.1733 65.8357C45.7767 64.5699 47.1501 63.017 48.4523 61.4242C48.8149 60.9817 49.0607 60.4654 48.9676 59.8613C48.8427 59.046 48.3135 58.8347 47.6892 59.347C47.3305 59.6401 46.9737 59.9371 46.6309 60.2481C46.1037 60.7265 45.5269 60.9538 44.9839 60.3557C44.4309 59.7457 44.7639 59.1856 45.2633 58.7151C45.7687 58.2387 46.2999 57.7902 46.8053 57.3117C47.2136 56.925 47.606 56.5223 47.8478 55.9961C48.1153 55.414 47.931 54.9555 47.4633 54.5967C46.9599 54.2099 46.7815 54.7701 46.508 54.9854C46.1175 55.2904 45.7687 55.6472 45.3961 55.9761C44.8828 56.4266 44.318 56.7356 43.7491 56.1197C43.1526 55.4738 43.4875 54.9056 44.0227 54.4013C44.6985 53.7674 45.3803 53.1414 46.0442 52.4936C46.3811 52.1647 46.6249 51.77 46.6388 51.2716C46.6507 50.833 46.4624 50.4882 46.0957 50.2749C45.6914 50.0397 45.5071 50.4324 45.2812 50.6397C44.9165 50.9766 44.5716 51.3354 44.2268 51.6922C43.7412 52.1926 43.1982 52.5095 42.6016 51.9235C41.9733 51.3055 42.2766 50.7274 42.7998 50.2031C43.9909 49.007 45.1781 47.805 46.3693 46.6089C46.7458 46.2302 47.1045 45.8355 47.275 45.3192C47.5069 44.6195 47.5247 43.9278 46.9341 43.3855C46.3871 42.8852 45.7509 42.8792 45.083 43.1503C44.5459 43.3696 44.1455 43.7583 43.7472 44.159C41.5334 46.3916 39.3196 48.6263 37.1038 50.859C36.2178 51.752 35.3319 52.6471 34.4361 53.5282C34.01 53.9468 33.5125 54.0724 33.0131 53.6757C32.5176 53.283 32.4542 52.7647 32.8387 52.2743C33.1855 51.8318 32.9972 51.5367 32.6662 51.2636C32.1945 50.8749 31.8675 49.9878 31.2829 50.1632C30.8012 50.3068 30.9816 51.2198 30.8468 51.7879C30.2404 54.3694 30.5198 57.1762 28.857 59.4946C28.4467 60.0647 28.7341 60.5969 29.2157 61.0754C31.2135 63.0568 33.1914 65.0583 35.1654 67.0637C35.7798 67.6876 36.4834 68.0484 37.3852 68.0424L37.3832 68.0365ZM46.6527 40.21C46.4386 40.7522 46.7082 41.0552 47.2869 41.2266C47.5624 41.3084 47.8339 41.4778 48.0539 41.6692C48.4998 42.0539 48.8348 41.9861 49.2311 41.5715C50.6066 40.1382 52.0019 38.7269 53.4071 37.3235C53.7262 37.0045 53.857 36.7474 53.5934 36.2988C53.0682 35.4038 53.0384 34.4529 53.5993 33.5619C53.9045 33.0774 53.7361 32.7924 53.3991 32.4475C52.1485 31.1717 50.9059 29.8859 49.683 28.5822C49.3382 28.2134 49.0587 28.1098 48.589 28.3948C47.6952 28.9371 46.7498 28.9171 45.8718 28.355C45.4259 28.0699 45.1781 28.2134 44.865 28.5384C40.7525 32.8024 36.634 37.0603 32.5057 41.3064C32.1212 41.7011 32.0499 42.028 32.3253 42.5244C32.7931 43.3656 32.7693 44.2567 32.3016 45.0939C32.0439 45.5544 32.1212 45.8734 32.4819 46.2282C33.354 47.0874 34.222 47.9525 35.0445 48.8595C35.4964 49.3599 35.7977 49.3021 36.2377 48.8436C37.5675 47.4581 38.9073 46.0827 40.3006 44.765C40.9527 44.149 40.9824 43.8819 40.1559 43.3656C38.4336 42.2891 37.8609 40.1362 38.6437 38.2843C39.4206 36.4464 41.4541 35.4297 43.4558 35.8782C45.3327 36.3008 46.722 38.1488 46.6546 40.208L46.6527 40.21Z" fill="white"/>
<path d="M61 29.2451C59.402 30.0049 57.9798 29.7539 56.7334 28.4922C54.1917 25.9281 51.646 23.366 49.0983 20.81C47.6827 19.3895 46.6894 19.3631 45.3075 20.8446C39.6253 26.9415 33.5764 32.6538 27.688 38.535C27.0694 39.1523 26.4568 39.155 25.8501 38.5431C25.7569 38.4475 25.6716 38.3396 25.5666 38.2603C24.7914 37.6864 24.8409 37.2122 25.5368 36.5101C32.6188 29.3611 39.667 22.1755 46.7251 15H47.1216C48.1348 16.3004 49.362 17.3871 50.5139 18.5491C53.9934 22.0635 57.3996 25.6574 61 29.0416V29.2451Z" fill="white"/>
</svg>
