<svg width="87" height="86" viewBox="0 0 87 86" fill="none" xmlns="http://www.w3.org/2000/svg">
<ellipse cx="43.1943" cy="42.798" rx="43.1943" ry="42.798" fill="#FF001D"/>
<path d="M42.6309 22.001H42.6318C43.2666 21.9977 43.6876 22.0008 43.9893 22.0303C44.0795 22.0391 44.1451 22.0495 44.1914 22.0586C44.2046 22.1473 44.2134 22.2601 44.2168 22.4102L44.2129 23.0264C44.1967 23.7637 44.212 24.5785 44.4561 25.3555C44.7129 26.1728 45.2063 26.9022 46.0518 27.499V27.498C46.3363 27.6992 46.5255 28.1197 46.5645 28.8145L46.5713 29.1289V32L46.5586 32.0098V35.8594C46.5514 36.7139 46.2867 37.3651 45.7842 37.792L45.6807 37.875L45.6787 37.876C45.0869 38.3176 44.7005 38.8421 44.4766 39.4443C44.3157 39.877 44.2499 40.3208 44.2256 40.7471L44.2129 41.167V41.1689C44.2022 43.3622 44.0918 45.7534 44.0811 48.0449L44.083 49.0195V49.0205C44.0897 49.6884 43.9615 50.0654 43.79 50.3037C43.6432 50.5077 43.3911 50.7118 42.9102 50.8818L42.6895 50.9531C40.466 51.599 38.6412 52.9788 37.96 55.4756L37.8984 55.7207H37.8975C37.3247 58.1513 38.3802 60.7519 40.6143 61.7148V61.7158C42.8837 62.6953 45.2104 61.906 46.6582 59.8613L46.7959 59.6602L46.7979 59.6572C46.9625 59.4039 47.0948 59.1381 47.1973 58.9365C47.2531 58.8266 47.3021 58.732 47.3486 58.6475L47.4854 58.4199L47.4883 58.417C47.778 57.985 48.0605 57.7932 48.292 57.7227C48.4835 57.6644 48.7392 57.6582 49.085 57.7998L49.2383 57.8701H49.2393C49.6308 58.0656 49.8213 58.2939 49.9131 58.5117C49.9961 58.7089 50.0344 58.985 49.96 59.3672L49.9209 59.5381C49.0721 62.7604 45.6295 65.1851 42.1836 64.9893L41.8496 64.9619C38.2917 64.583 35.4911 61.7547 35.0703 58.334L35.0371 58.001C34.8884 56.0768 35.188 54.4408 35.8818 53.0527C36.5324 51.7514 37.5565 50.614 38.9873 49.6445L39.2783 49.4531H39.2793C39.9892 49.0001 40.5722 48.4523 40.9512 47.7451C41.2856 47.121 41.4263 46.4374 41.418 45.7002L41.4053 45.3809C41.3554 44.6202 41.3481 43.8501 41.3721 43.0771L41.4062 42.3037V42.3008C41.4476 41.5348 41.4698 40.6594 41.2295 39.8242C40.9905 38.9937 40.5077 38.249 39.667 37.6406L39.4941 37.5205H39.4932C39.1059 37.2636 38.881 36.649 38.8838 35.6191C38.8885 34.5826 38.8891 33.5366 38.8887 32.4922L38.8906 29.373C38.8938 28.2767 39.1177 27.6291 39.5566 27.3555C40.4662 26.7912 40.9685 26.0663 41.209 25.2471C41.3748 24.6822 41.4082 24.0901 41.4111 23.5557L41.4072 23.043V23.042L41.4062 22.4102C41.409 22.2591 41.4158 22.141 41.4268 22.0449C41.4413 22.0429 41.4573 22.0391 41.4746 22.0371C41.5969 22.0229 41.7455 22.0149 41.9336 22.0098L42.6309 22.001Z" stroke="white" stroke-width="2"/>
</svg>
