<svg width="88" height="86" viewBox="0 0 88 86" fill="none" xmlns="http://www.w3.org/2000/svg">
<ellipse cx="43.9169" cy="43.0285" rx="43.1943" ry="42.798" fill="#FF001D"/>
<g clip-path="url(#clip0_15_164)">
<path d="M60.968 37.3347C60.9638 40.8239 61.1991 44.334 60.1569 47.7434C57.6735 55.8512 52.0845 61.1206 44.6551 64.7273C43.7348 65.1724 42.9196 65.0254 42.0623 64.5846C31.9183 59.3949 25.6612 51.7112 26.0142 39.7406C26.094 37.0156 26.0898 34.2864 26.0058 31.5615C25.9554 29.9114 26.5857 29.1808 28.2455 28.9708C33.326 28.3284 38.024 26.5776 42.1632 23.5293C43.2179 22.7525 43.9281 22.8827 44.9282 23.5964C49.0422 26.5398 53.6478 28.3284 58.6652 28.954C60.4217 29.1724 61.094 29.9323 60.9974 31.6748C60.8923 33.5559 60.9722 35.4495 60.9722 37.3389L60.968 37.3347ZM58.7324 39.3291C58.7324 36.6251 58.682 34.8071 58.7492 32.989C58.7954 31.6874 58.2197 31.0996 56.9759 30.8729C52.5216 30.0625 48.3572 28.488 44.5794 25.9603C43.8525 25.4733 43.2347 25.4019 42.4741 25.9142C38.646 28.4922 34.4144 30.0751 29.8886 30.9023C28.7414 31.1122 28.2203 31.7084 28.2413 32.9093C28.2876 35.4243 28.317 37.9435 28.2413 40.4586C27.9136 50.9135 33.4689 57.5769 42.18 62.2543C43.0625 62.7287 43.8399 62.7581 44.7475 62.292C47.8319 60.7217 50.6096 58.7567 52.9712 56.2165C57.6566 51.1822 59.4006 45.199 58.7282 39.3249L58.7324 39.3291Z" fill="white"/>
<path d="M53.5503 39.8913C53.3486 40.1768 53.1553 40.5463 52.8779 40.8402C49.7179 44.1992 46.5663 47.5708 43.36 50.8878C42.217 52.0719 40.8933 52.1264 39.6411 50.9718C37.998 49.456 36.3465 47.9445 34.7665 46.3616C34.1992 45.7947 32.9512 45.3203 33.7538 44.1992C34.4892 43.1705 35.5944 42.7171 36.9012 43.1076C38.1031 43.4686 38.9519 44.363 39.6705 45.2783C40.99 46.9662 41.9439 46.6849 43.2297 45.1775C45.1291 42.9438 47.226 40.878 49.2725 38.7745C50.0036 38.0229 50.9281 37.7122 51.9535 38.1992C52.6552 38.5351 53.2687 38.9886 53.5545 39.8955L53.5503 39.8913Z" fill="white"/>
</g>
<defs>
<clipPath id="clip0_15_164">
<rect width="35" height="42" fill="white" transform="translate(26 23)"/>
</clipPath>
</defs>
</svg>
