<svg width="88" height="87" viewBox="0 0 88 87" fill="none" xmlns="http://www.w3.org/2000/svg">
<ellipse cx="43.9169" cy="43.6759" rx="43.1943" ry="42.798" fill="#FF001D"/>
<g clip-path="url(#clip0_14_154)">
<path d="M47.8023 27.4841C47.2128 27.4841 46.6821 27.4699 46.1521 27.4886C45.7403 27.5035 45.5002 27.2958 45.3537 26.9454C45.1746 26.5151 45.1605 26.0743 45.3143 25.632C45.4741 25.1702 45.7098 25.0014 46.1974 25.0006C48.1175 24.9991 50.0383 24.9991 51.9583 25.0006C52.5248 25.0006 52.8095 25.2076 52.9165 25.7724C52.973 26.0698 52.9752 26.3955 52.9195 26.6936C52.8117 27.2742 52.5203 27.4811 51.9353 27.4826C51.4647 27.4841 50.9942 27.4863 50.5237 27.4893C50.5006 27.4893 50.4783 27.505 50.3981 27.5334C50.3981 27.892 50.3981 28.2731 50.3981 28.6541C50.3981 29.1398 50.4204 29.6269 50.3899 30.1103C50.3683 30.4443 50.5006 30.5242 50.8039 30.5533C52.7217 30.7409 54.5452 31.2743 56.2712 32.1343C57.9972 32.9942 59.5233 34.1291 60.848 35.536C60.9238 35.6167 60.9833 35.713 61.0754 35.8341C61.4776 35.5068 61.8284 35.2222 62.2008 34.9196C61.934 34.5804 61.6902 34.2696 61.4449 33.9588C61.1676 33.6069 61.1386 33.3245 61.4337 32.9897C61.6233 32.7746 61.8767 32.593 62.1362 32.469C62.4417 32.3225 62.7204 32.4085 62.9501 32.7013C63.8793 33.8833 64.8256 35.0511 65.7637 36.2256C66.0744 36.6148 66.09 36.9197 65.7473 37.2843C65.5593 37.4845 65.3058 37.6436 65.0538 37.7572C64.7713 37.8842 64.503 37.8095 64.2986 37.5398C64.0458 37.2058 63.7738 36.8868 63.4883 36.5341C63.1137 36.833 62.768 37.1094 62.3919 37.4105C62.4774 37.5465 62.5524 37.6698 62.632 37.7908C67.0935 44.6166 65.818 53.7421 59.6594 59.0528C53.9468 63.9786 45.7053 64.3283 39.601 59.903C39.3899 59.7499 39.1594 59.6116 38.9863 59.4219C38.5625 58.9549 38.0467 58.8884 37.4483 58.8936C34.599 58.919 31.7491 58.9138 28.8998 58.8929C28.5728 58.8906 28.207 58.789 27.9305 58.6179C27.5023 58.3527 27.3834 57.8895 27.4897 57.3994C27.596 56.907 27.9112 56.5887 28.4003 56.4677C28.5661 56.4266 28.7437 56.4236 28.9162 56.4236C32.1995 56.4214 35.4821 56.4273 38.7655 56.4139C39.1379 56.4124 39.4062 56.514 39.6843 56.7688C43.1386 59.9351 47.1868 61.1208 51.7762 60.2654C57.9422 59.1163 62.6052 53.6032 62.8245 47.2989C63.0356 41.2448 59.4995 35.7945 53.8308 33.7839C48.559 31.9139 43.7845 32.9793 39.6211 36.7374C39.404 36.9331 39.2041 37.0362 38.9067 37.0355C35.549 37.0258 32.1921 37.031 28.8344 37.028C27.8956 37.0273 27.2875 36.3272 27.4971 35.4897C27.6243 34.9831 27.9528 34.6671 28.465 34.5759C28.6947 34.5348 28.9333 34.5385 29.1682 34.5385C32.117 34.5371 35.0651 34.543 38.014 34.5281C38.2251 34.5273 38.4763 34.4302 38.6399 34.2935C41.1992 32.1574 44.1235 30.8925 47.4336 30.5466C47.7071 30.5182 47.8172 30.445 47.8105 30.1469C47.7904 29.278 47.803 28.4083 47.803 27.4819L47.8023 27.4841Z" fill="white"/>
<path d="M33.4108 50.9516C33.2383 49.931 33.0756 48.965 32.9068 47.9631C32.7418 47.9631 32.5701 47.9631 32.3991 47.9631C27.047 47.9631 21.6957 47.9631 16.3437 47.9616C15.3015 47.9616 14.6808 46.9858 15.1699 46.1169C15.4175 45.6776 15.8107 45.4849 16.3132 45.4871C17.5895 45.4931 18.8651 45.4893 20.1414 45.4893C24.2417 45.4893 28.3427 45.4893 32.443 45.4893C32.5902 45.4893 32.7381 45.4893 32.9046 45.4893C33.0733 44.4949 33.2383 43.5214 33.4115 42.5C33.2711 42.5 33.1276 42.5 32.9841 42.5C29.7878 42.5 26.5914 42.5015 23.3957 42.4971C22.6182 42.4963 22.0793 42.0032 22.0562 41.2949C22.0347 40.6322 22.5097 40.0883 23.1668 40.0263C23.253 40.0181 23.34 40.0188 23.427 40.0188C27.8372 40.0188 32.2475 40.0188 36.6577 40.0188C36.7677 40.0188 36.8785 40.0188 37.0502 40.0188C34.7912 44.4934 34.7867 48.9381 37.0376 53.4C36.9238 53.4142 36.8428 53.4329 36.7618 53.4329C32.3017 53.4344 27.8424 53.4329 23.3824 53.4359C22.9297 53.4359 22.5521 53.2924 22.2874 52.9188C22.0146 52.5333 21.9745 52.1104 22.1692 51.6793C22.3714 51.2311 22.7379 50.9987 23.2181 50.9576C23.4641 50.9367 23.7132 50.9509 23.9607 50.9509C26.9831 50.9509 30.0063 50.9509 33.0287 50.9509H33.4115L33.4108 50.9516Z" fill="white"/>
<path d="M47.5351 48.3771C48.3922 47.5366 49.2247 46.7214 50.0558 45.9056C51.7372 44.2537 53.4179 42.6003 55.1001 40.9476C55.6866 40.3708 56.4329 40.3394 56.9443 40.8676C57.4431 41.3824 57.3963 42.1251 56.8209 42.6914C54.0616 45.4057 51.3009 48.1193 48.5386 50.8314C47.8889 51.4695 47.2444 51.4777 46.5843 50.8553C44.8509 49.2214 43.1211 47.5836 41.3906 45.9467C40.8093 45.3968 40.7506 44.6601 41.2412 44.1259C41.7259 43.5977 42.4789 43.6059 43.0564 44.1513C44.3558 45.3773 45.6537 46.6056 46.9523 47.8324C47.1322 48.002 47.3128 48.1701 47.5358 48.3786L47.5351 48.3771Z" fill="white"/>
</g>
<defs>
<clipPath id="clip0_14_154">
<rect width="51" height="38" fill="white" transform="translate(15 25)"/>
</clipPath>
</defs>
</svg>
