<svg width="88" height="86" viewBox="0 0 88 86" fill="none" xmlns="http://www.w3.org/2000/svg">
<ellipse cx="43.9169" cy="43.1994" rx="43.1943" ry="42.798" fill="#FF001D"/>
<g clip-path="url(#clip0_15_169)">
<path d="M69.999 42.9163C69.8299 43.2718 69.5993 43.5648 69.2099 43.6923C68.3433 43.9759 67.5232 43.3883 67.5191 42.4599C67.5144 41.4784 67.4482 40.5022 67.3169 39.5316C67.122 38.0942 66.7864 36.6917 66.3143 35.3173C65.7476 33.6692 64.9994 32.1142 64.0805 30.6409C63.0123 28.9288 61.7258 27.3931 60.2552 26.0192C58.6559 24.5251 56.8834 23.2761 54.9402 22.2686C52.9981 21.2616 50.9629 20.5211 48.8321 20.0558C47.2819 19.7171 45.7105 19.538 44.1205 19.4938C41.9633 19.4339 39.8386 19.6619 37.7429 20.1563C35.2516 20.7438 32.9036 21.6972 30.7035 23.0201C28.9858 24.0531 27.4195 25.2823 26.0131 26.7082C24.0906 28.6577 22.5451 30.8814 21.4143 33.3845C20.4882 35.4344 19.8816 37.5811 19.6107 39.8168C19.4783 40.9096 19.4065 42.0093 19.4478 43.1115C19.5559 45.993 20.1598 48.7636 21.3295 51.4C22.3202 53.6331 23.6403 55.6512 25.2706 57.4685C27.3291 59.763 29.7448 61.5761 32.4962 62.9343C35.111 64.225 37.8717 65.0253 40.7693 65.3402C41.9183 65.4651 43.0708 65.5234 44.2249 65.4849C47.6593 65.3704 50.9459 64.6163 54.0638 63.1467C54.2184 63.0738 54.252 63.0041 54.1863 62.8292C53.3952 60.7184 53.6357 58.7321 54.9956 56.932C55.5199 56.2383 56.1554 55.6294 56.7391 54.9809C57.1673 54.5058 57.5954 54.0312 58.0199 53.5529C58.3328 53.2001 58.7583 53.1512 59.1208 53.4504C59.3535 53.6425 59.5758 53.8485 59.7914 54.0603C59.9414 54.2076 60.0375 54.2087 60.1865 54.0395C61.0138 53.0986 61.8463 52.1619 62.6953 51.2408C63.14 50.7584 63.9461 50.7641 64.4259 51.2153C64.9198 51.679 64.9709 52.4825 64.5283 52.9784C63.7119 53.8943 62.8933 54.8092 62.0655 55.7147C61.9068 55.888 61.899 55.9921 62.081 56.1503C62.5826 56.5864 63.0723 57.0366 63.5609 57.4878C63.6715 57.5903 63.732 57.608 63.8463 57.4789C64.6586 56.5599 65.4808 55.6502 66.2993 54.7364C66.683 54.3081 67.2507 54.1629 67.7544 54.3658C68.5455 54.6854 68.7942 55.722 68.2228 56.3808C67.6225 57.073 67.0061 57.75 66.3955 58.4328C66.1824 58.6712 65.9715 58.9121 65.7481 59.1406C65.6235 59.2681 65.6168 59.3607 65.7538 59.482C66.0568 59.7515 66.3546 60.0279 66.6483 60.3084C66.9818 60.6269 67.0113 61.0276 66.7031 61.3716C65.7005 62.492 64.7233 63.639 63.6721 64.7115C61.655 66.7703 58.3447 66.9748 56.0566 65.2267C55.9092 65.1138 55.8001 65.1076 55.6404 65.1877C53.6357 66.1994 51.5338 66.9352 49.3429 67.4151C48.0787 67.6919 46.8005 67.872 45.5099 67.9615C45.4339 67.9667 45.3589 67.987 45.2834 68H41.7156C41.4514 67.9709 41.1876 67.937 40.9234 67.9136C37.4771 67.6113 34.2082 66.6735 31.1192 65.1112C28.2505 63.6603 25.7266 61.7416 23.5492 59.3675C21.6769 57.3259 20.1666 55.0387 19.0471 52.4981C18.1665 50.4997 17.5543 48.4202 17.2327 46.2542C17.1396 45.6287 17.0982 44.998 17 44.374C17 43.125 17 41.876 17 40.6271C17.0533 40.1634 17.0967 39.6976 17.1613 39.2355C17.5279 36.6152 18.2684 34.1079 19.4271 31.7296C20.3413 29.8536 21.467 28.1144 22.8036 26.5157C23.6361 25.5201 24.525 24.5745 25.5033 23.7242C27.3621 22.1078 29.3875 20.7438 31.6109 19.6765C34.2454 18.4108 37.0061 17.5891 39.8965 17.2019C40.501 17.1207 41.1091 17.0666 41.7151 17C42.9043 17 44.0936 17 45.2829 17C45.3413 17.012 45.3992 17.0317 45.4582 17.0349C46.6211 17.0968 47.7721 17.2592 48.9122 17.4871C52.0146 18.1079 54.9314 19.2195 57.643 20.8687C60.02 22.3139 62.1255 24.0848 63.9456 26.193C65.6462 28.1622 67.0232 30.3422 68.0501 32.7413C68.8754 34.6694 69.4493 36.6699 69.7658 38.7468C69.8609 39.3718 69.893 40.0036 69.999 40.6265V42.9163Z" fill="white"/>
<path d="M48.5293 40.0872C49.684 40.0872 50.8386 40.0945 51.9927 40.0815C52.3029 40.0779 52.5703 40.1367 52.7197 40.4198C52.8728 40.7107 52.819 41.0104 52.652 41.2868C52.5041 41.5309 52.3459 41.7687 52.1975 42.0122C50.7548 44.3754 49.3153 46.7407 47.8711 49.1028C46.4859 51.3692 45.0965 53.6329 43.7092 55.8983C43.4336 56.3479 43.1632 56.8012 42.8813 57.2472C42.6818 57.5636 42.4108 57.6698 42.0892 57.5802C41.7888 57.4965 41.5706 57.2321 41.5747 56.8824C41.5788 56.5373 41.629 56.1923 41.6631 55.8478C41.8798 53.6845 42.0975 51.5211 42.3146 49.3578C42.4687 47.8236 42.6207 46.2895 42.7769 44.7558C42.7914 44.6127 42.7505 44.5393 42.5995 44.5451C42.5137 44.5482 42.4274 44.5445 42.341 44.5445C40.1357 44.5445 37.9299 44.5445 35.7245 44.5445C35.0353 44.5445 34.7297 44.0007 35.0684 43.3965C36.0363 41.6677 36.9971 39.9348 37.965 38.2065C39.1491 36.0926 40.3394 33.9823 41.5251 31.8695C42.3338 30.4279 43.1404 28.9854 43.9439 27.5412C44.0835 27.2904 44.2723 27.1171 44.5639 27.089C45.0246 27.0442 45.3633 27.3752 45.3442 27.8753C45.3152 28.6284 45.2692 29.3809 45.2263 30.1329C45.1611 31.2653 45.0939 32.3977 45.0246 33.5301C44.9124 35.3708 44.7976 37.212 44.6849 39.0527C44.6678 39.329 44.658 39.6064 44.6378 39.8827C44.6218 40.1034 44.7713 40.0867 44.9114 40.0867C46.0143 40.0867 47.1167 40.0867 48.2196 40.0867C48.323 40.0867 48.4264 40.0867 48.5299 40.0867L48.5293 40.0872Z" fill="white"/>
</g>
<defs>
<clipPath id="clip0_15_169">
<rect width="53" height="51" fill="white" transform="translate(17 17)"/>
</clipPath>
</defs>
</svg>
