<svg width="88" height="87" viewBox="0 0 88 87" fill="none" xmlns="http://www.w3.org/2000/svg">
<ellipse cx="43.9169" cy="43.4801" rx="43.1943" ry="42.798" fill="#FF001D"/>
<g clip-path="url(#clip0_14_159)">
<path d="M24.3193 35.8009C25.7158 33.2344 27.1125 30.6674 28.509 28.1009C29.115 26.9872 30.1266 26.6935 31.2578 27.3066C32.9131 28.2042 34.5668 29.1047 36.2198 30.0065C36.9477 30.4038 37.3932 30.9754 37.3521 31.8404C37.3379 32.1448 37.2253 32.414 37.0679 32.6648C36.9517 32.8499 36.9845 32.9639 37.1848 33.0674C37.6335 33.2982 38.0773 33.5391 38.5145 33.7909C38.7085 33.9026 38.8542 33.8747 39.0292 33.7521C40.0812 33.0143 41.1106 32.2332 42.2809 31.6863C44.257 30.7625 46.3017 30.4072 48.4385 31.1901C48.7581 31.3074 49.0683 31.4591 49.3692 31.6198C50.4499 32.1969 51.5277 32.7803 52.6007 33.3727C52.8126 33.4898 52.9267 33.4758 53.0427 33.2535C53.3724 32.6217 53.7151 31.9964 54.0663 31.3769C54.1769 31.1815 54.1701 31.0323 54.0427 30.8401C52.8622 29.0597 52.4094 27.1307 52.9655 25.0624C53.6352 22.5703 55.2233 20.8359 57.6076 19.8463C59.3159 19.1376 61.0902 19.063 62.8919 19.5072C63.5969 19.6809 63.8344 20.3675 63.3726 20.9165C62.398 22.0755 61.4162 23.2282 60.426 24.3739C60.2785 24.5444 60.2456 24.6829 60.3273 24.8959C60.6188 25.6575 60.8942 26.4251 61.1645 27.1941C61.2325 27.3869 61.3404 27.4815 61.544 27.5168C62.3682 27.6592 63.1912 27.8106 64.0124 27.9708C64.1962 28.0063 64.31 27.9624 64.4294 27.821C65.3772 26.6979 66.337 25.5843 67.2833 24.4604C67.5211 24.1784 67.7955 24.0156 68.1712 24.0819C68.5424 24.1475 68.7212 24.4103 68.8474 24.7419C69.612 26.7481 69.649 28.7557 68.8077 30.7194C67.7841 33.1084 65.977 34.5757 63.3712 35.0256C63.0704 35.0773 62.768 35.1264 62.4614 35.1129C62.2527 35.104 62.1347 35.1931 62.0396 35.3702C61.4567 36.4527 60.8686 37.5324 60.2758 38.6095C59.8635 39.3582 59.4393 40.1005 59.0236 40.8474C58.8545 41.1515 58.8608 41.1489 59.1759 41.33C59.5896 41.5673 60.0276 41.76 60.4127 42.0487C62.4961 43.6119 62.1715 46.7841 59.8147 47.8648C59.5731 47.9755 59.5022 48.1548 59.602 48.4026C60.1737 49.82 59.4955 51.657 58.1172 52.429C57.5933 52.7221 57.0375 52.9065 56.4283 52.9006C56.2435 52.8987 56.1775 52.9522 56.1954 53.1488C56.4112 55.4965 54.2659 57.2594 52.0537 56.7519C51.8234 56.699 51.7835 56.7722 51.7755 56.9815C51.7078 58.7654 50.4397 60.0994 48.6503 60.2705C48.4836 60.2863 48.3944 60.3552 48.3205 60.4921C47.8257 61.4095 47.3294 62.3261 46.8231 63.2373C46.7249 63.4145 46.7531 63.5504 46.8578 63.7053C47.5736 64.7618 47.9823 65.9256 48.0951 67.1888C48.1882 68.2314 48.0356 69.2426 47.6463 70.2046C46.6363 72.7045 44.7902 74.2876 42.1823 74.9857C40.8892 75.3319 39.5726 75.3287 38.2577 75.0429C37.4854 74.8753 37.2478 74.1977 37.7498 73.5829C38.1497 73.0934 38.5673 72.6177 38.9766 72.1358C39.5361 71.4774 40.0913 70.8156 40.6585 70.1633C40.782 70.0212 40.7969 69.8966 40.733 69.7268C40.4435 68.9546 40.1589 68.1814 39.883 67.4045C39.8116 67.2032 39.6977 67.106 39.4841 67.0688C38.651 66.9247 37.8194 66.7698 36.9901 66.6064C36.7878 66.5663 36.6932 66.6791 36.5886 66.8023C35.6138 67.9491 34.6378 69.0958 33.6631 70.2426C33.1376 70.861 32.4066 70.7408 32.0949 69.9869C31.4686 68.4729 31.245 66.9077 31.5832 65.3111C32.1822 62.4841 33.7985 60.518 36.6237 59.6399C37.2325 59.4509 37.8661 59.3611 38.5082 59.363C38.7311 59.3638 38.8655 59.2866 38.9717 59.0846C39.3908 58.2884 39.822 57.4982 40.2621 56.7141C40.3787 56.5067 40.3382 56.408 40.1318 56.2988C39.193 55.8014 38.2507 55.3105 37.3797 54.6942C36.8221 54.2995 36.3756 53.7943 35.9023 53.3147C34.6693 52.0663 33.4433 50.8119 32.2125 49.5617C32.1439 49.4921 32.0655 49.4269 31.9808 49.379C31.0574 48.8534 30.1283 48.337 29.2087 47.8043C28.9827 47.6734 28.8674 47.7032 28.7535 47.9352C28.6208 48.205 28.4985 48.4865 28.2825 48.708C27.7041 49.3006 26.8398 49.423 26.0492 48.9971C24.2962 48.053 22.5462 47.1032 20.8023 46.1422C19.8691 45.6277 19.5608 44.5496 20.065 43.6208C21.4796 41.0131 22.8996 38.4089 24.3171 35.8027L24.3193 35.8009ZM53.4597 40.1203C51.5844 39.0999 49.7086 38.0793 47.8333 37.0589C47.7227 36.9987 47.6085 36.9427 47.5054 36.8708C47.0608 36.5613 46.9789 36.0457 47.3029 35.6311C47.5587 35.3047 47.9698 35.2357 48.3952 35.4641C49.1969 35.8943 49.9969 36.3277 50.7923 36.7697C50.9869 36.878 51.0954 36.8494 51.1969 36.6539C51.4347 36.1954 51.6793 35.7401 51.9385 35.2932C52.065 35.0754 52.0373 34.9544 51.8047 34.8309C50.6356 34.2094 49.4742 33.5726 48.3082 32.9443C48.0702 32.816 47.8182 32.7148 47.5575 32.6441C45.7577 32.1535 44.1083 32.5662 42.5441 33.4434C41.4908 34.0344 40.4987 34.7209 39.5464 35.4587C39.1164 35.7919 38.7283 35.8029 38.2646 35.5238C37.6633 35.1619 37.0304 34.8523 36.4189 34.5056C36.212 34.3881 36.1062 34.4255 35.9972 34.6291C35.4167 35.7129 34.8251 36.79 34.238 37.8702C32.7791 40.5537 31.3224 43.2389 29.8573 45.919C29.7444 46.1265 29.784 46.2144 29.9813 46.3358C30.8568 46.8748 31.7727 47.3397 32.6683 47.8416C32.9467 47.9974 33.196 48.1817 33.4184 48.4086C34.5263 49.5397 35.6756 50.6342 36.7367 51.8073C37.7876 52.9694 39.0188 53.8468 40.4016 54.5621C42.1617 55.4729 43.8928 56.4392 45.636 57.3822C46.2541 57.7167 46.8659 58.063 47.4891 58.3869C48.7361 59.035 50.1444 58.191 50.1012 56.819C50.0794 56.1341 49.7169 55.6374 49.1292 55.3048C48.4783 54.9367 47.8146 54.592 47.162 54.2271C46.7279 53.9843 46.6047 53.4924 46.8557 53.074C47.0903 52.6826 47.5376 52.5742 47.9807 52.8141C49.2566 53.5041 50.5278 54.2025 51.8045 54.8911C52.4511 55.2399 53.108 55.3052 53.7454 54.8894C54.8489 54.17 54.786 52.5517 53.6234 51.9057C52.3006 51.1707 50.9658 50.4566 49.6382 49.7294C49.2745 49.5303 49.1139 49.1739 49.2022 48.8057C49.2888 48.4463 49.5908 48.1944 49.9712 48.1695C50.206 48.1542 50.4096 48.2517 50.6086 48.3599C52.199 49.2253 53.7898 50.0909 55.3804 50.9557C55.5462 51.0459 55.7101 51.1394 55.8978 51.1825C56.8179 51.394 57.6856 50.9418 58.0243 50.066C58.2797 49.4053 58.01 48.417 57.1343 47.9575C55.5069 47.1037 53.902 46.2073 52.2881 45.3286C52.1932 45.2769 52.0957 45.2287 52.007 45.1677C51.66 44.9277 51.5407 44.5147 51.7094 44.1514C51.8978 43.7463 52.2492 43.5767 52.6778 43.6815C52.8201 43.7163 52.9462 43.7843 53.073 43.8533C54.5689 44.6672 56.0635 45.4823 57.5612 46.2929C58.1641 46.6192 58.771 46.5794 59.3263 46.2207C60.4543 45.4913 60.3708 43.8881 59.1786 43.2344C57.2748 42.1907 55.3651 41.1577 53.458 40.12L53.4597 40.1203ZM61.1586 20.9326C61.0746 20.9185 61.0411 20.9088 61.0066 20.9077C60.1061 20.8729 59.2323 21.0048 58.3962 21.33C56.6139 22.0222 55.3479 23.2448 54.7216 25.0485C54.0517 26.9776 54.4904 28.7414 55.7362 30.3394C56.1196 30.8316 56.1514 31.0673 55.8585 31.6066C54.8074 33.5395 53.7564 35.4723 52.7057 37.4055C52.5384 37.713 52.5393 37.7147 52.857 37.8876C54.2493 38.6464 55.6421 39.4043 57.0342 40.1623C57.2796 40.2958 57.4666 40.2446 57.5954 40.0088C58.6946 37.9908 59.7949 35.9733 60.892 33.9535C61.0126 33.7318 61.1729 33.5696 61.4181 33.49C61.6123 33.4271 61.8096 33.4547 62.006 33.4569C63.2441 33.4697 64.4065 33.193 65.3948 32.4467C67.247 31.0483 67.9111 29.1343 67.6887 26.8657C67.6837 26.8149 67.6706 26.736 67.6387 26.7223C67.5501 26.6838 67.5213 26.7819 67.48 26.8295C66.8197 27.6008 66.161 28.3737 65.5051 29.1481C65.1337 29.5863 64.6649 29.7748 64.0932 29.6707C63.0136 29.4739 61.9369 29.2629 60.8579 29.0629C60.2558 28.9513 59.8954 28.5842 59.6955 28.0251C59.3608 27.0884 59.0302 26.1508 58.673 25.2226C58.4261 24.5813 58.5072 24.0297 58.9611 23.5111C59.6934 22.6742 60.4053 21.8195 61.1596 20.9331L61.1586 20.9326ZM33.2477 68.0571C33.3925 68.0172 33.4472 67.9064 33.5195 67.8222C34.1741 67.058 34.8292 66.2941 35.4727 65.5209C35.9067 64.9994 36.4362 64.7976 37.1174 64.9358C38.0778 65.131 39.043 65.3038 40.0085 65.4738C40.7028 65.5959 41.1543 65.9663 41.3839 66.6426C41.6944 67.5583 42.0276 68.4674 42.3798 69.3686C42.6233 69.9922 42.5447 70.5348 42.1152 71.0369C41.4726 71.7881 40.833 72.5416 40.1982 73.2988C40.1406 73.3673 40.0143 73.4355 40.0672 73.5361C40.1111 73.6196 40.2327 73.5635 40.3193 73.5637C41.0198 73.567 41.6962 73.4256 42.3462 73.1902C44.2574 72.4988 45.5699 71.1895 46.1927 69.2701C46.7923 67.4226 46.3386 65.7262 45.1678 64.1994C44.8459 63.7797 44.8024 63.3982 45.0586 62.9442C45.5792 62.0214 46.0692 61.0812 46.5894 60.1581C46.7181 59.9294 46.676 59.8383 46.4497 59.7169C45.0136 58.9459 43.5823 58.1647 42.159 57.3702C41.9537 57.2554 41.8755 57.2804 41.7646 57.4684C41.1935 58.4343 40.6539 59.4181 40.1378 60.414C39.8965 60.8803 39.5686 61.0609 39.0409 61.0319C37.7572 60.9614 36.5525 61.2436 35.5072 61.9973C33.9896 63.0909 33.263 64.6265 33.1285 66.4641C33.0892 66.9966 33.1242 67.5273 33.2482 68.0573L33.2477 68.0571ZM26.9879 34.4323C25.9923 36.2621 25.0003 38.0944 23.9961 39.9195C23.8671 40.1543 23.8938 40.2637 24.1367 40.3941C25.7871 41.2793 27.4297 42.1797 29.0752 43.0739C29.4143 43.2583 29.4226 43.2556 29.6055 42.9194C31.5842 39.2828 33.5634 35.6465 35.5416 32.0096C35.7307 31.6622 35.7214 31.634 35.3584 31.4359C33.7531 30.5618 32.1475 29.6882 30.5417 28.815C30.1665 28.6109 30.1534 28.6147 29.9497 28.9889C28.9626 30.8032 27.9754 32.6175 26.9882 34.4318L26.9879 34.4323ZM25.8684 43.1942C25.0221 42.7337 24.1738 42.2782 23.3319 41.8098C23.1349 41.7002 23.0234 41.7016 22.9095 41.9177C22.4861 42.7206 22.0506 43.5176 21.6088 44.3105C21.4919 44.5208 21.5219 44.6375 21.7406 44.7559C23.4046 45.6534 25.063 46.56 26.7244 47.4622C27.0069 47.6159 27.0579 47.6004 27.2096 47.3227C27.6407 46.5337 28.0643 45.7406 28.5018 44.9557C28.6079 44.7651 28.5844 44.6647 28.3849 44.5586C27.5421 44.111 26.7065 43.6502 25.8684 43.1942Z" fill="white"/>
<path d="M25.7621 45.0725C25.5386 45.4809 25.0133 45.6332 24.6086 45.4063C24.2168 45.1864 24.0571 44.6474 24.2707 44.264C24.501 43.8508 25.0246 43.6951 25.4291 43.92C25.8414 44.1486 25.9879 44.6586 25.7614 45.0727L25.7621 45.0725Z" fill="white"/>
</g>
<defs>
<clipPath id="clip0_14_159">
<rect width="38.1221" height="60.6488" fill="white" transform="translate(39.9883 7) rotate(28.5512)"/>
</clipPath>
</defs>
</svg>
