<svg width="220" height="241" viewBox="0 0 220 241" fill="none" xmlns="http://www.w3.org/2000/svg">
<circle cx="110.208" cy="130.428" r="109.747" fill="#FF001D"/>
<circle cx="106.916" cy="43.7279" r="43.5331" fill="white"/>
<path d="M97.8152 56.9243V54.4367L108.241 44.3766C109.168 43.4986 109.851 42.7303 110.29 42.0719C110.753 41.389 111.058 40.7671 111.204 40.2062C111.375 39.6208 111.46 39.0599 111.46 38.5234C111.46 37.2064 110.997 36.1699 110.07 35.4139C109.144 34.6578 107.79 34.2798 106.01 34.2798C104.644 34.2798 103.412 34.5115 102.315 34.9749C101.217 35.4139 100.266 36.1089 99.4615 37.0601L96.9738 34.9017C97.9494 33.6579 99.2542 32.7068 100.888 32.0483C102.547 31.3654 104.363 31.024 106.339 31.024C108.119 31.024 109.668 31.3166 110.985 31.902C112.302 32.4629 113.314 33.2799 114.021 34.353C114.753 35.4261 115.119 36.6942 115.119 38.1575C115.119 38.9867 115.009 39.8038 114.789 40.6086C114.57 41.4134 114.155 42.267 113.546 43.1693C112.936 44.0717 112.058 45.0838 110.912 46.2057L101.62 55.1684L100.742 53.7416H116.216V56.9243H97.8152Z" fill="#FF001D"/>
<g clip-path="url(#clip0_15_227)">
<path d="M139.421 134.789C139.421 132.447 139.376 130.105 139.44 127.764C139.472 126.588 139.06 126.178 137.863 126.178C117.115 126.203 96.3668 126.203 75.6186 126.175C74.3379 126.175 73.9679 126.62 73.9711 127.853C74.0033 141.998 73.984 156.145 74.0001 170.29C74.0033 173 75.5607 174.685 78.2604 175.009C78.8975 175.086 79.5443 175.063 80.1878 175.063C97.8792 175.063 115.574 175.063 133.265 175.063C133.854 175.063 134.449 175.082 135.032 175.025C137.741 174.752 139.334 173.102 139.398 170.399C139.456 167.999 139.475 165.593 139.395 163.193C139.347 161.771 139.704 160.611 140.698 159.567C141.654 158.561 142.471 157.43 143.372 156.369C143.533 156.18 143.806 155.94 144.006 155.959C144.418 156.001 144.379 156.418 144.379 156.722C144.373 162.646 144.501 168.576 144.286 174.493C144.167 177.732 141.374 179.984 138.076 179.987C117.221 180.003 96.3636 180.003 75.5092 179.987C71.5996 179.987 69.0608 177.479 69.0254 173.564C68.9771 168.547 69.0125 163.53 69.0125 158.51C69.0125 143.135 69.0125 127.764 69.0125 112.389C69.0125 107.295 71.3647 104.969 76.5003 104.956C77.9483 104.953 79.3995 105.017 80.8411 104.94C82.2633 104.867 82.7428 105.466 82.6687 106.834C82.5851 108.429 82.6205 110.037 82.6591 111.636C82.7588 115.762 85.8833 118.844 89.9409 118.854C93.8698 118.86 96.9589 115.766 97.0554 111.691C97.094 109.983 97.0972 108.275 97.0651 106.568C97.0425 105.411 97.5638 104.947 98.7126 104.95C104.073 104.972 109.434 104.969 114.798 104.953C115.886 104.953 116.349 105.437 116.34 106.504C116.32 108.317 116.301 110.134 116.368 111.947C116.51 115.833 119.557 118.8 123.399 118.854C127.283 118.908 130.53 115.926 130.736 112.024C130.832 110.159 130.784 108.288 130.765 106.42C130.755 105.533 131.035 104.956 132.023 104.969C134.378 105.001 136.743 104.761 139.086 105.126C142.188 105.61 144.325 107.907 144.366 111.047C144.44 116.865 144.392 122.682 144.382 128.5C144.382 128.866 144.389 129.311 144.199 129.59C142.893 131.515 141.387 133.28 139.833 134.998C139.694 134.927 139.559 134.853 139.421 134.783V134.789Z" fill="white"/>
<path d="M153 139.463C152.945 140.031 152.604 140.444 152.266 140.857C144.566 150.225 136.869 159.596 129.159 168.954C127.981 170.382 127.383 170.421 125.986 169.136C120.831 164.398 115.715 159.618 110.538 154.902C109.35 153.819 109.363 152.897 110.419 151.795C111.86 150.289 113.263 148.748 114.682 147.22C115.699 146.127 116.639 146.451 117.591 147.338C120.053 149.635 122.508 151.939 125.015 154.188C126.582 155.594 126.771 155.556 128.068 153.983C133.304 147.636 138.532 141.286 143.755 134.93C145.422 132.899 145.766 132.838 147.751 134.45C149.203 135.629 150.644 136.827 152.079 138.025C152.53 138.403 152.971 138.804 152.996 139.46L153 139.463Z" fill="white"/>
<path d="M94.879 104.902C94.879 107.087 94.9079 109.275 94.8726 111.46C94.8243 114.334 92.8679 116.429 90.1682 116.57C87.5006 116.708 85.1323 114.824 84.9618 111.995C84.6722 107.209 84.6658 102.4 84.9618 97.6135C85.1484 94.6149 87.4009 92.856 90.2711 93.0098C92.9515 93.1508 94.805 95.2332 94.879 98.1838C94.879 98.2895 94.879 98.3984 94.879 98.5042C94.879 100.638 94.879 102.768 94.879 104.902Z" fill="white"/>
<path d="M118.532 104.751C118.532 102.512 118.507 100.276 118.542 98.0361C118.581 95.3002 120.431 93.2306 122.96 93.0255C125.776 92.7949 127.928 94.4672 128.437 97.2833C128.723 98.8723 128.565 100.474 128.575 102.07C128.598 105.161 128.656 108.253 128.543 111.341C128.43 114.484 126.226 116.634 123.407 116.573C120.515 116.509 118.571 114.346 118.536 111.146C118.523 110.079 118.536 109.015 118.536 107.948C118.536 106.882 118.536 105.818 118.536 104.751H118.532Z" fill="white"/>
<path d="M104.143 137.099C104.085 142.19 104.742 141.504 99.6865 141.498C94.538 141.491 95.1494 142.251 95.1558 137.029C95.1623 131.861 94.4737 132.553 99.6768 132.547C104.854 132.543 104.066 131.912 104.143 137.099Z" fill="white"/>
<path d="M113.71 141.504C108.642 141.443 109.324 142.167 109.266 137.083C109.256 136.388 109.266 135.696 109.266 135.001C109.276 132.575 109.311 132.537 111.824 132.534C113.485 132.534 115.148 132.553 116.808 132.54C117.816 132.534 118.273 133.001 118.263 134.001C118.244 136.029 118.247 138.057 118.256 140.085C118.26 141.097 117.764 141.533 116.767 141.507C115.75 141.482 114.73 141.501 113.71 141.501V141.504Z" fill="white"/>
<path d="M132.1 137.048C132.049 142.244 132.728 141.491 127.544 141.498C122.482 141.504 123.165 142.18 123.107 137.083C123.097 136.337 123.103 135.587 123.107 134.841C123.12 132.646 123.21 132.55 125.34 132.537C127.055 132.527 128.773 132.566 130.485 132.531C131.65 132.505 132.149 133.021 132.107 134.165C132.071 135.126 132.1 136.087 132.1 137.048Z" fill="white"/>
<path d="M104.13 150.5C104.072 155.556 104.793 154.87 99.7059 154.931C98.7952 154.94 97.8814 154.889 96.974 154.94C95.7062 155.011 95.0851 154.54 95.127 153.198C95.1881 151.279 95.1559 149.36 95.1463 147.441C95.1431 146.457 95.5807 145.964 96.5975 145.973C98.6311 145.989 100.668 145.989 102.702 145.973C103.728 145.967 104.146 146.486 104.13 147.463C104.114 148.475 104.127 149.488 104.127 150.503L104.13 150.5Z" fill="white"/>
<path d="M81.1679 150.321C81.1679 149.574 81.2354 148.821 81.1518 148.088C80.9748 146.515 81.5508 145.836 83.2047 145.941C84.9101 146.05 86.6252 145.989 88.3371 145.961C89.4536 145.941 90.0296 146.358 90.0071 147.543C89.9685 149.513 89.9781 151.481 90.0007 153.451C90.0103 154.447 89.563 154.925 88.5591 154.921C86.5802 154.912 84.6012 154.905 82.6255 154.931C81.5186 154.944 81.1035 154.425 81.1582 153.355C81.2097 152.346 81.1711 151.333 81.1679 150.321Z" fill="white"/>
<path d="M99.7088 159.945C104.14 159.945 104.162 159.945 104.133 164.308C104.101 169.418 104.738 168.678 99.7313 168.742C98.663 168.755 97.5947 168.723 96.5264 168.733C95.5836 168.742 95.1621 168.268 95.1588 167.361C95.1588 165.34 95.1621 163.318 95.1524 161.297C95.146 160.272 95.6705 159.89 96.6615 159.935C97.6751 159.98 98.692 159.945 99.7088 159.945Z" fill="white"/>
<path d="M85.6278 168.745C82.6546 168.745 81.168 167.242 81.168 164.235C81.168 161.375 82.6117 159.945 85.4991 159.945C90.0008 159.945 90.0233 159.945 89.9975 164.414C89.9686 169.357 90.5928 168.691 85.6278 168.749V168.745Z" fill="white"/>
</g>
<defs>
<clipPath id="clip0_15_227">
<rect width="84" height="87" fill="white" transform="translate(69 93)"/>
</clipPath>
</defs>
</svg>
