<svg width="46" height="46" viewBox="0 0 46 46" fill="none" xmlns="http://www.w3.org/2000/svg">
<rect width="46" height="46" rx="6" fill="#E80000"/>
<path d="M28.8925 16.7102C28.5025 16.3202 27.8725 16.3202 27.4825 16.7102L22.5925 21.5902L17.7025 16.7002C17.3125 16.3102 16.6825 16.3102 16.2925 16.7002C15.9025 17.0902 15.9025 17.7202 16.2925 18.1102L21.1825 23.0002L16.2925 27.8902C15.9025 28.2802 15.9025 28.9102 16.2925 29.3002C16.6825 29.6902 17.3125 29.6902 17.7025 29.3002L22.5925 24.4102L27.4825 29.3002C27.8725 29.6902 28.5025 29.6902 28.8925 29.3002C29.2825 28.9102 29.2825 28.2802 28.8925 27.8902L24.0025 23.0002L28.8925 18.1102C29.2725 17.7302 29.2725 17.0902 28.8925 16.7102Z" fill="white"/>
</svg>
