<svg width="91" height="74" viewBox="0 0 91 74" fill="none" xmlns="http://www.w3.org/2000/svg">
<g clip-path="url(#clip0_15_1101)">
<path d="M10.2253 34.3828C10.1982 34.3085 10.2303 34.2489 10.2501 34.1873C10.8318 32.3834 11.401 30.5752 12.02 28.7836C12.0779 28.616 12.1355 28.449 12.1753 28.2752C12.2516 27.9413 12.1723 27.6452 11.9749 27.3765C11.9033 27.2792 11.8195 27.1906 11.738 27.1009C10.8981 26.1753 10.0891 25.2231 9.29845 24.2548C9.17302 24.1013 9.06865 23.9391 9.01466 23.7457C8.9629 23.5602 8.96025 23.3801 9.02931 23.1967C9.1546 22.8639 9.30752 22.5443 9.47062 22.2293C9.93006 21.3414 10.4491 20.4886 10.9879 19.6479C11.8242 18.3434 12.7026 17.0687 13.67 15.8577C13.9145 15.5515 14.1731 15.2577 14.4403 14.9709C14.5464 14.8571 14.6437 14.8432 14.7852 14.8872C15.593 15.1385 16.4019 15.3868 17.2133 15.6262C17.8016 15.7998 18.3946 15.9577 18.9853 16.1235C19.4697 16.2594 19.9062 16.1473 20.3005 15.8538C20.5542 15.6647 20.7976 15.4612 21.0428 15.2608C22.5295 14.0469 24.0145 12.8311 25.502 11.6183C25.9063 11.2885 26.318 10.9681 26.725 10.6419C26.8121 10.572 26.8958 10.4976 26.9774 10.4216C27.2863 10.1335 27.4028 9.77152 27.3684 9.3571C27.318 8.75194 27.2625 8.14707 27.2094 7.54206C27.1588 6.96495 27.109 6.38785 27.0578 5.81088C27.0462 5.68059 27.0289 5.55087 27.0169 5.42072C27.0092 5.337 27.0038 5.25285 27.0021 5.16884C26.9929 4.70337 27.1468 4.45696 27.5824 4.28587C28.3181 3.99682 29.0588 3.72068 29.7962 3.43571C31.8085 2.65763 33.8201 1.87731 35.8325 1.09924C35.971 1.04566 36.1119 0.996999 36.2548 0.956889C36.5398 0.87695 36.7883 0.95745 36.9998 1.15604C37.0809 1.23219 37.1543 1.31802 37.222 1.40665C38.0608 2.50294 38.9012 3.59797 39.7331 4.69959C39.9605 5.00069 40.2421 5.15272 40.6178 5.12915C41.0817 5.09998 41.5457 5.07418 42.0097 5.04417C42.39 5.01948 42.7698 4.9854 43.1504 4.96479C44.4686 4.89298 45.7864 4.80898 47.1061 4.76845C47.6544 4.75162 48.2026 4.7324 48.7508 4.71067C48.9272 4.70365 49.1037 4.69061 49.279 4.67028C49.753 4.6153 50.1303 4.39259 50.3589 3.96793C50.9656 2.84107 51.6967 1.78938 52.3174 0.671351C52.3992 0.524095 52.4926 0.385394 52.614 0.266607C52.7887 0.0955087 52.9946 0.00827681 53.2398 0.00154509C53.475 -0.00490615 53.7026 0.0448806 53.9311 0.0831672C55.3893 0.328034 56.8358 0.628156 58.2633 1.01804C59.6462 1.39571 61.0022 1.85207 62.3241 2.40982C62.3755 2.43156 62.4256 2.45652 62.478 2.47559C62.6362 2.53309 62.7389 2.64908 62.817 2.79255C62.9354 3.00992 62.9865 3.24175 62.9982 3.48998C63.0536 4.66691 63.0585 5.8444 63.0554 7.02217C63.0552 7.15302 63.0539 7.28387 63.0561 7.41471C63.0634 7.82521 63.2286 8.15506 63.5606 8.3967C63.6509 8.46234 63.7438 8.52461 63.8386 8.58379C66.1372 10.0176 68.4082 11.4948 70.6612 13.0001C70.7771 13.0775 70.8962 13.1517 71.0195 13.2161C71.2974 13.3611 71.5876 13.3815 71.8837 13.2764C71.98 13.2421 72.0743 13.2022 72.1678 13.1608C73.2824 12.668 74.404 12.1926 75.5442 11.7619C75.6312 11.729 75.7197 11.6999 75.8061 11.6657C76.0416 11.5721 76.2803 11.5882 76.519 11.646C76.698 11.6894 76.8295 11.8006 76.9458 11.9426C77.6374 12.7866 78.3369 13.6243 79.0269 14.4696C80.2302 15.9434 81.4287 17.4211 82.6283 18.8979C82.6987 18.9846 82.7686 19.0729 82.8268 19.168C82.9743 19.4087 82.9916 19.6597 82.8624 19.9148C82.8246 19.9896 82.7858 20.065 82.7384 20.1337C82.0544 21.1239 81.3694 22.1132 80.6835 23.1019C80.5931 23.2322 80.4969 23.3582 80.4032 23.4863C80.1511 23.8307 80.1028 24.2017 80.2606 24.5991C80.2916 24.6772 80.3217 24.7558 80.3569 24.8319C81.1117 26.468 81.8022 28.1323 82.5143 29.7872C82.5744 29.9269 82.611 30.0691 82.6096 30.2214C82.6086 30.3327 82.5926 30.356 82.4932 30.3768C82.4568 30.3843 82.42 30.3912 82.3831 30.3943C81.7811 30.4445 81.1823 30.5331 80.577 30.5438C80.5306 30.5446 80.4833 30.5417 80.4378 30.5491C80.1613 30.5939 79.9786 30.4582 79.8295 30.2435C79.7218 30.0886 79.647 29.9189 79.5786 29.7448C78.75 27.6364 77.7471 25.6158 76.549 23.6945C74.5918 20.5557 72.1887 17.8098 69.347 15.4511C67.1877 13.6588 64.8666 12.1167 62.3527 10.8716C59.6603 9.53815 56.8401 8.58982 53.8918 8.02506C52.8687 7.829 51.8388 7.68244 50.8029 7.57333C49.1823 7.40265 47.5582 7.33183 45.9295 7.36928C44.916 7.39256 43.9056 7.4624 42.8974 7.57263C41.0357 7.77612 39.2046 8.13459 37.4043 8.65083C35.0712 9.31993 32.8387 10.239 30.7091 11.4065C27.2704 13.2918 24.1979 15.6612 21.4941 18.5083C19.0139 21.1199 17.0348 24.0784 15.5164 27.3492C14.6378 29.2418 13.9348 31.1987 13.3863 33.2126C13.3398 33.3835 13.2863 33.5534 13.2218 33.7181C13.0837 34.0712 12.8265 34.2746 12.4451 34.3086C12.3988 34.3127 12.3526 34.3206 12.3063 34.3201C11.7013 34.3159 11.0987 34.3684 10.4953 34.3995C10.4043 34.4043 10.3105 34.4231 10.2253 34.3837V34.3828Z" fill="white"/>
<path d="M55.6354 66.871C54.6034 66.871 53.5715 66.8712 52.5394 66.8707C52.307 66.8707 52.0758 66.8623 51.846 66.8151C51.3434 66.7123 51.0435 66.4105 50.941 65.9083C50.9074 65.7435 50.8859 65.5771 50.8844 65.4079C50.8735 64.2397 50.8692 63.0716 50.8875 61.9034C50.8905 61.7059 50.9203 61.5128 50.977 61.3239C51.0866 60.9602 51.3317 60.7406 51.6938 60.6497C51.8749 60.6043 52.0599 60.5911 52.2468 60.5907C53.3439 60.588 54.441 60.5813 55.538 60.5786C56.6351 60.576 57.7321 60.5765 58.8292 60.5765C58.95 60.5765 59.0718 60.5732 59.1913 60.5873C59.4935 60.6232 59.6341 60.7866 59.6422 61.0888C59.6465 61.2497 59.6118 61.4044 59.5803 61.5599C59.5676 61.623 59.5279 61.6592 59.4661 61.6626C59.3733 61.6678 59.2803 61.668 59.1874 61.668C57.7741 61.6682 56.3611 61.6655 54.9478 61.669C54.2971 61.6706 53.6464 61.6853 52.9955 61.6917C52.7693 61.694 52.5517 61.7328 52.3446 61.8253C52.2146 61.8833 52.1056 61.9661 52.0307 62.092C51.784 62.5066 51.9502 62.9549 52.4071 63.1018C52.5504 63.1478 52.6979 63.1573 52.8478 63.1573C54.075 63.1573 55.3022 63.1598 56.5295 63.1608C57.2547 63.1614 57.9798 63.1602 58.705 63.1602C58.7794 63.1602 58.8538 63.1612 58.928 63.1646C58.9958 63.1677 59.0266 63.2096 59.0268 63.2743C59.0273 63.5639 59.0284 63.8536 59.0258 64.1432C59.025 64.2255 58.9936 64.2523 58.9016 64.2575C58.8088 64.2626 58.7158 64.2619 58.6229 64.2619C56.717 64.2626 54.811 64.2627 52.9051 64.2642C52.7565 64.2642 52.6069 64.264 52.4595 64.2791C52.1674 64.309 52.0279 64.4431 51.9727 64.7308C51.9347 64.9282 51.9558 65.1228 52.0166 65.3116C52.0823 65.5155 52.2297 65.6367 52.4351 65.683C52.5804 65.7158 52.729 65.728 52.8783 65.7261C53.1666 65.7228 53.4547 65.7173 53.7429 65.717C55.5931 65.7158 57.4432 65.7158 59.2934 65.7155C59.3399 65.7155 59.3865 65.7151 59.4328 65.7179C59.5648 65.726 59.5836 65.74 59.5849 65.8634C59.5878 66.1344 59.5876 66.4055 59.5843 66.6764C59.583 66.7819 59.5641 66.7962 59.4531 66.8177C59.2238 66.862 58.992 66.8717 58.7592 66.8714C57.7179 66.8707 56.6765 66.8711 55.6353 66.8711L55.6354 66.871Z" fill="white"/>
<path d="M24.9541 60.6236C26.1532 60.6236 27.3522 60.6236 28.5513 60.6236C28.5792 60.6236 28.6071 60.624 28.635 60.6241C28.8626 60.6254 28.8488 60.6414 28.862 60.8422C28.8774 61.0752 28.8924 61.3082 28.9026 61.5415C28.9065 61.63 28.8765 61.6582 28.7892 61.6638C28.7151 61.6685 28.6406 61.6681 28.5662 61.668C26.447 61.6668 24.3277 61.6657 22.2085 61.6636C22.0408 61.6635 21.8743 61.668 21.7097 61.7048C21.4466 61.7638 21.2854 61.9259 21.2242 62.1871C21.181 62.3713 21.1805 62.5588 21.2156 62.7438C21.2589 62.9707 21.4 63.1081 21.6272 63.1417C21.746 63.1592 21.8679 63.1592 21.9885 63.1592C23.9033 63.1602 25.8181 63.1597 27.7329 63.1597C27.7979 63.1597 27.863 63.1588 27.928 63.1599C28.2538 63.1661 28.2238 63.1058 28.3228 63.4881C28.3458 63.577 28.3491 63.6733 28.3476 63.7659C28.3438 63.9911 28.2399 64.1312 28.0261 64.2047C27.8933 64.2504 27.7545 64.2668 27.6145 64.2687C27.4845 64.2702 27.3543 64.2685 27.2242 64.2657C25.8207 64.2364 24.4173 64.2392 23.0137 64.2632C22.6515 64.2694 22.2891 64.288 21.9272 64.2468C21.8076 64.2332 21.6867 64.2399 21.5681 64.275C21.4138 64.3205 21.3055 64.4145 21.2544 64.5668C21.1654 64.8326 21.1692 65.1006 21.2627 65.3635C21.3273 65.545 21.465 65.6543 21.6523 65.6862C21.7799 65.708 21.9109 65.7184 22.0405 65.7184C24.169 65.7186 26.2976 65.7153 28.4263 65.7157C28.921 65.7157 28.8543 65.6592 28.8595 66.1448C28.8616 66.341 28.8601 66.5372 28.8554 66.7333C28.8535 66.8203 28.8206 66.8508 28.7385 66.8562C28.683 66.8598 28.6271 66.8591 28.5712 66.8591C26.3498 66.857 24.1282 66.8552 21.9067 66.852C21.6836 66.8517 21.4606 66.8445 21.2377 66.8376C21.1169 66.8339 20.9958 66.8232 20.8804 66.7837C20.449 66.6357 20.2204 66.3203 20.1487 65.8785C20.1398 65.8235 20.1387 65.7669 20.1376 65.7108C20.112 64.4966 20.0677 63.2822 20.1451 62.0682C20.1511 61.975 20.1564 61.8817 20.1639 61.7887C20.2029 61.3057 20.4928 60.992 20.87 60.7396C20.9567 60.6816 21.0583 60.6619 21.1625 60.6595C21.2648 60.6571 21.3669 60.6526 21.4692 60.6512C22.631 60.6353 23.7928 60.6201 24.9544 60.6045C24.9544 60.6107 24.9544 60.617 24.9544 60.6231L24.9541 60.6236Z" fill="white"/>
<path d="M69.9227 61.1253C69.8647 61.1847 69.8335 61.2184 69.8006 61.2501C69.5279 61.5133 69.2008 61.648 68.8192 61.6542C67.0247 61.6881 65.2303 61.7055 63.4358 61.6591C63.2505 61.6543 63.0648 61.6464 62.8802 61.687C62.5001 61.7703 62.3178 61.9656 62.2833 62.3557C62.2719 62.4851 62.2777 62.6175 62.2887 62.7475C62.34 63.3543 62.3427 63.9605 62.2872 64.5672C62.2685 64.7718 62.2597 64.9764 62.3093 65.1805C62.3755 65.4534 62.5432 65.6194 62.8111 65.6863C62.9285 65.7156 63.0468 65.7396 63.1691 65.7369C63.3272 65.7336 63.4853 65.7355 63.6432 65.7296C65.1958 65.6721 66.7484 65.6897 68.3012 65.7214C68.6077 65.7277 68.9139 65.742 69.2198 65.6953C69.329 65.6786 69.443 65.6799 69.5534 65.6893C69.7398 65.7052 69.8602 65.8128 69.9114 65.9934C69.969 66.1967 69.9612 66.4013 69.9023 66.6022C69.8464 66.7931 69.7134 66.9011 69.5163 66.9118C69.4059 66.9178 69.2942 66.9015 69.1832 66.8934C69.0536 66.8839 68.9239 66.8589 68.7948 66.8632C67.679 66.9 66.5631 66.8676 65.4475 66.8719C64.5642 66.8754 63.6808 66.8719 62.7974 66.8705C62.5742 66.8701 62.3521 66.8607 62.1321 66.8125C61.6123 66.6983 61.302 66.3832 61.2002 65.8577C61.1698 65.7009 61.1525 65.5438 61.1523 65.3845C61.1523 64.2536 61.1526 63.1226 61.1526 61.9916C61.1526 61.7753 61.1801 61.5634 61.2429 61.3559C61.359 60.9717 61.6165 60.7407 62.0002 60.6489C62.154 60.6121 62.3102 60.5905 62.4696 60.5903C62.8322 60.5897 63.1948 60.5828 63.5574 60.5804C65.3706 60.5682 67.1839 60.5754 68.9971 60.5897C69.2605 60.5918 69.4655 60.6724 69.6425 60.8573C69.726 60.9445 69.8168 61.0246 69.9227 61.1254V61.1253Z" fill="white"/>
<path d="M45.362 60.5884C46.4957 60.5884 47.6296 60.588 48.7634 60.589C48.8837 60.589 49.0039 60.5856 49.1231 60.6184C49.2971 60.6665 49.3932 60.7793 49.4109 60.955C49.4327 61.1713 49.3757 61.3818 49.3485 61.5942C49.3435 61.6329 49.3058 61.6569 49.2678 61.6607C49.2032 61.6672 49.1379 61.6683 49.073 61.6683C46.9262 61.6683 44.7793 61.6677 42.6326 61.667C42.5026 61.667 42.3734 61.6667 42.2444 61.6938C42.0037 61.7446 41.8473 61.8812 41.776 62.12C41.7159 62.3217 41.71 62.5263 41.744 62.7301C41.7778 62.9315 41.8986 63.0669 42.1001 63.117C42.1807 63.1371 42.2638 63.1523 42.3465 63.1577C42.4669 63.1652 42.588 63.1629 42.7088 63.1627C44.6233 63.1617 46.5379 63.1605 48.4524 63.1592C48.4895 63.1592 48.5268 63.1588 48.5639 63.1594C48.8066 63.163 48.808 63.163 48.8098 63.4087C48.8115 63.6422 48.8118 63.8759 48.8086 64.1094C48.8069 64.2326 48.785 64.2512 48.6596 64.2594C48.6133 64.2625 48.5667 64.2617 48.5202 64.2617C46.9123 64.2643 45.3046 64.268 43.6968 64.2687C43.3437 64.2687 42.9905 64.2589 42.6375 64.252C42.4884 64.2491 42.3399 64.2533 42.1937 64.2852C41.9134 64.3467 41.7566 64.5169 41.7273 64.8041C41.715 64.9243 41.7218 65.0466 41.722 65.1679C41.7225 65.6443 41.7242 66.1208 41.7248 66.5972C41.7248 66.6437 41.7219 66.6906 41.7167 66.7367C41.7121 66.7778 41.6856 66.8089 41.6458 66.8094C41.3489 66.8124 41.0519 66.8134 40.7548 66.8123C40.7008 66.8122 40.6747 66.7726 40.6713 66.7206C40.6682 66.674 40.6668 66.6273 40.6668 66.5806C40.6661 65.1514 40.6368 63.722 40.6791 62.2929C40.6855 62.0784 40.7065 61.8641 40.711 61.6493C40.7141 61.5022 40.7629 61.375 40.8447 61.2586C40.9857 61.0578 41.1614 60.8933 41.3712 60.7658C41.5187 60.6762 41.6779 60.6463 41.8497 60.6413C43.0202 60.6068 44.1908 60.5779 45.362 60.588V60.5884Z" fill="white"/>
<path d="M58.4969 72.3107C58.5682 72.2169 58.5856 72.1134 58.618 72.0171C58.9238 71.1057 59.2259 70.1929 59.5319 69.2814C59.6323 68.9823 59.5829 69.0048 59.9169 69.0037C60.075 69.0032 60.2331 69.0019 60.391 69.006C60.4968 69.0086 60.5163 69.0256 60.5356 69.1361C60.6094 69.5592 60.6808 69.9828 60.7516 70.4063C60.93 71.4745 61.1075 72.5431 61.2858 73.6113C61.3288 73.8691 61.3296 73.8695 61.0595 73.8712C60.9014 73.8722 60.7433 73.8737 60.5854 73.8701C60.457 73.8671 60.4424 73.8559 60.4196 73.7307C60.3647 73.4276 60.3129 73.1237 60.2617 72.8199C60.1639 72.2399 60.0673 71.6597 59.9697 71.0796C59.9607 71.0263 59.9619 70.9663 59.8959 70.9405C59.8352 71.0148 59.8189 71.1081 59.7894 71.1956C59.5215 71.9918 59.2541 72.7882 58.9863 73.5845C58.9655 73.6464 58.9413 73.7072 58.9227 73.7698C58.9005 73.845 58.849 73.8709 58.7762 73.8705C58.581 73.8696 58.3858 73.8682 58.1906 73.8705C58.1139 73.8713 58.0694 73.8353 58.0458 73.7664C58.0186 73.6869 57.992 73.6072 57.9656 73.5274C57.7045 72.7387 57.4439 71.9498 57.1819 71.1615C57.1587 71.0917 57.1264 71.0249 57.0948 70.9583C57.0919 70.9521 57.0512 70.9533 57.0486 70.9594C57.035 70.9935 57.0251 71.0297 57.0188 71.0659C56.8716 71.9121 56.7206 72.7578 56.5807 73.6053C56.5296 73.9148 56.5021 73.8682 56.2649 73.8706C56.0885 73.8724 55.9118 73.8695 55.7353 73.866C55.6798 73.8649 55.6497 73.8284 55.6575 73.7743C55.683 73.5987 55.7109 73.4235 55.7408 73.2486C55.9673 71.9233 56.1913 70.5976 56.4241 69.2736C56.472 69.0012 56.4226 69.0029 56.7343 69.0034C56.9016 69.0037 57.069 69.0069 57.2363 69.003C57.3366 69.0006 57.3896 69.0462 57.4168 69.1399C57.4481 69.2473 57.4872 69.3525 57.5222 69.459C57.8053 70.3189 58.0868 71.1793 58.3728 72.0382C58.4016 72.1247 58.409 72.223 58.4966 72.3105L58.4969 72.3107Z" fill="white"/>
<path d="M75.8185 60.6379C77.1753 60.6379 78.5322 60.6375 79.889 60.6382C80.2538 60.6383 80.2225 60.6126 80.2239 60.9666C80.2247 61.1627 80.2226 61.3589 80.2204 61.5551C80.2197 61.6213 80.1811 61.6566 80.1176 61.6629C80.0714 61.6676 80.0248 61.6684 79.9785 61.6692C79.1423 61.6845 78.3062 61.7166 77.4702 61.6586C77.3591 61.6509 77.2469 61.6509 77.1359 61.6566C77.053 61.661 76.97 61.6756 76.8889 61.6939C76.6023 61.7587 76.4395 61.9478 76.39 62.2309C76.366 62.3678 76.3584 62.5101 76.3636 62.6493C76.4113 63.9475 76.3819 65.246 76.3781 66.5444C76.3781 66.5725 76.3783 66.6005 76.3774 66.6284C76.3714 66.8069 76.3716 66.81 76.1868 66.8232C75.9367 66.8412 75.6862 66.8563 75.4356 66.8671C75.3316 66.8716 75.309 66.8442 75.3009 66.7361C75.2974 66.6896 75.2972 66.6429 75.2968 66.5962C75.2905 65.7834 75.2792 64.9707 75.2805 64.158C75.2812 63.7004 75.3038 63.2429 75.3138 62.7854C75.3177 62.6083 75.3224 62.4315 75.2822 62.2557C75.1987 61.891 75.0062 61.7043 74.6384 61.6608C74.5101 61.6457 74.3779 61.6447 74.2489 61.6549C73.4038 61.7227 72.5584 61.6882 71.7131 61.6697C71.6666 61.6687 71.6201 61.6673 71.5738 61.6652C71.5114 61.6622 71.4664 61.6373 71.4615 61.5678C71.4425 61.2977 71.4217 61.0278 71.4067 60.7575C71.4021 60.6734 71.4353 60.645 71.5253 60.6407C71.6087 60.6366 71.6925 60.6379 71.7761 60.6379C73.1236 60.6379 74.4713 60.6379 75.8188 60.6379H75.8185Z" fill="white"/>
<path d="M48.542 71.4036C48.8672 71.4036 49.1924 71.402 49.5177 71.4042C49.7578 71.4056 49.7601 71.4098 49.7581 71.66C49.7562 71.8765 49.7226 72.0894 49.654 72.2933C49.3797 73.1069 48.8675 73.6859 48.0168 73.9015C47.3943 74.0593 46.7767 74.0124 46.1906 73.745C45.384 73.377 44.9122 72.7268 44.7678 71.8625C44.575 70.7081 45.0767 69.8215 45.8996 69.2797C46.2662 69.0384 46.6773 68.9295 47.1094 68.8976C47.4547 68.872 47.7955 68.9091 48.1312 68.9964C48.5939 69.1169 48.9836 69.3593 49.3133 69.7031C49.395 69.7884 49.3978 69.8125 49.3234 69.888C49.1665 70.0471 49.0074 70.2044 48.8466 70.3595C48.7793 70.4243 48.7556 70.4203 48.6804 70.3599C48.5644 70.2666 48.4552 70.1626 48.3303 70.0837C47.8564 69.7842 47.3406 69.6989 46.8069 69.8668C45.5526 70.2613 45.3123 71.7424 46.1065 72.5492C46.6117 73.0625 47.2225 73.19 47.902 73.0104C48.2423 72.9205 48.4876 72.6964 48.6536 72.3854C48.6871 72.3229 48.6606 72.2767 48.5875 72.2732C48.4947 72.2688 48.4018 72.269 48.3088 72.2686C48.0301 72.2676 47.7513 72.2699 47.4725 72.2658C47.3392 72.2638 47.3196 72.2446 47.3175 72.1236C47.314 71.9275 47.3143 71.7313 47.318 71.5353C47.3199 71.4284 47.3408 71.4074 47.455 71.4065C47.8173 71.4036 48.1798 71.4054 48.5421 71.4054V71.4037L48.542 71.4036Z" fill="white"/>
<path d="M29.8492 69.8211C29.6657 70.0023 29.481 70.1849 29.296 70.3672C29.2494 70.4131 29.201 70.4193 29.1502 70.3722C29.1025 70.3277 29.0553 70.2824 29.005 70.2412C28.5288 69.8528 27.989 69.7004 27.3875 69.8356C26.7877 69.9704 26.3663 70.3365 26.1845 70.9268C26.0008 71.5233 26.1181 72.0779 26.5541 72.5379C27.0508 73.062 27.665 73.1873 28.3459 73.0152C28.6768 72.9316 28.9197 72.717 29.0912 72.4217C29.1512 72.3183 29.1238 72.2719 28.9952 72.2705C28.6884 72.2673 28.3816 72.2695 28.0748 72.2681C28.0007 72.2677 27.9263 72.2636 27.8525 72.2575C27.8109 72.254 27.7836 72.2248 27.7834 72.1837C27.782 71.9505 27.7823 71.7171 27.7847 71.4837C27.7851 71.4429 27.813 71.4157 27.8553 71.4119C27.9015 71.4077 27.9479 71.4045 27.9943 71.4044C28.6637 71.4039 29.3331 71.4039 30.0025 71.4042C30.0397 71.4042 30.0769 71.4055 30.114 71.4083C30.1675 71.4123 30.1968 71.4432 30.204 71.4961C30.2259 71.6555 30.2131 71.8153 30.1835 71.9705C30.0229 72.8146 29.5914 73.4724 28.7837 73.7957C27.9396 74.1336 27.1003 74.0501 26.3233 73.5672C25.7312 73.1992 25.3837 72.6406 25.2423 71.9641C25.0923 71.2463 25.2066 70.5686 25.6402 69.9636C26.1163 69.2994 26.7687 68.9525 27.577 68.8968C27.9323 68.8722 28.2827 68.9115 28.626 69.0069C29.0863 69.1346 29.4729 69.3834 29.7972 69.7329C29.8154 69.7526 29.8253 69.7799 29.8493 69.8213L29.8492 69.8211Z" fill="white"/>
<path d="M50.6096 71.4352C50.6096 70.7069 50.6088 69.9786 50.6102 69.2504C50.6107 69.0064 50.6135 69.004 50.8587 69.0036C51.5739 69.0023 52.289 69.0032 53.0042 69.0035C53.0506 69.0035 53.097 69.0053 53.1433 69.0078C53.1952 69.0108 53.2356 69.0377 53.2393 69.0896C53.2572 69.3316 53.2568 69.5741 53.2396 69.8163C53.2357 69.8712 53.1943 69.894 53.1438 69.8963C53.0695 69.8995 52.9953 69.9005 52.9211 69.9006C52.5589 69.901 52.1965 69.9006 51.8343 69.9009C51.7693 69.9009 51.7043 69.903 51.6393 69.9036C51.5723 69.9041 51.5331 69.9409 51.5321 70.0047C51.5289 70.2285 51.5287 70.4526 51.531 70.6764C51.5317 70.7383 51.5645 70.7815 51.6336 70.7826C51.7078 70.7839 51.7822 70.7858 51.8564 70.7858C52.2279 70.7861 52.5995 70.7857 52.971 70.7864C53.0359 70.7864 53.1009 70.7889 53.1655 70.7942C53.2058 70.7976 53.2347 70.8236 53.2384 70.8648C53.2593 71.107 53.2541 71.3495 53.2413 71.5917C53.2386 71.6424 53.2029 71.6755 53.1493 71.6779C53.0753 71.6813 53.0009 71.6833 52.9267 71.6834C52.5645 71.684 52.2021 71.6834 51.8399 71.6838C51.7749 71.6838 51.7098 71.6831 51.645 71.6869C51.5614 71.6918 51.5366 71.7192 51.5291 71.8096C51.526 71.8468 51.5257 71.8842 51.5257 71.9215C51.5254 72.1923 51.5235 72.463 51.5261 72.7338C51.5285 72.9693 51.5309 72.9714 51.7552 72.9725C52.1174 72.9745 52.4798 72.9703 52.842 72.9739C53.3017 72.9784 53.2446 72.9095 53.2498 73.3973C53.2511 73.5186 53.2487 73.6401 53.2438 73.7612C53.2413 73.8244 53.2061 73.8642 53.1394 73.867C53.0838 73.8692 53.0281 73.8708 52.9724 73.8708C52.2758 73.8711 51.5792 73.8709 50.8825 73.8709C50.8454 73.8709 50.8082 73.8718 50.7711 73.8701C50.6296 73.8641 50.6126 73.8511 50.6114 73.7036C50.6084 73.3021 50.6098 72.9007 50.6096 72.4992C50.6095 72.1444 50.6096 71.7896 50.6096 71.4349V71.4352Z" fill="white"/>
<path d="M54.4917 73.9464C54.2008 73.9444 53.9852 73.7217 53.9883 73.4262C53.9914 73.1331 54.2132 72.9165 54.5068 72.92C54.7953 72.9235 55.0153 73.1508 55.0116 73.4417C55.0078 73.7325 54.7855 73.9484 54.4917 73.9464Z" fill="#E60000"/>
<path d="M57.2677 36.6806C57.6188 36.6552 57.9698 36.6297 58.3208 36.6047C58.4778 36.5935 58.5142 36.6225 58.5181 36.759C58.5211 36.8621 58.4966 36.895 58.3946 36.9034C58.1269 36.9255 57.8589 36.9437 57.591 36.9635C57.12 36.9981 56.6488 37.0328 56.1778 37.0673C56.15 37.0692 56.1224 37.0719 56.0946 37.0726C55.9738 37.0759 55.9458 37.0527 55.9303 36.9375C55.9131 36.8089 55.9417 36.7701 56.0755 36.7605C56.4729 36.7323 56.8704 36.7071 57.2677 36.6807V36.6806Z" fill="#E20000"/>
<path d="M90.9588 44.4678C90.9556 43.944 90.9143 43.4223 90.8837 42.8999C90.8638 42.5587 90.8552 42.5943 90.5588 42.6543C89.8937 42.7888 89.2304 42.9321 88.5664 43.0714C88.4754 43.0905 88.3843 43.1088 88.2928 43.1251C88.2233 43.1373 88.1922 43.0919 88.1734 43.0351C88.1542 42.9776 88.1552 42.9218 88.2162 42.8899C88.282 42.8556 88.3507 42.8264 88.4186 42.7962C88.5887 42.7209 88.7614 42.6509 88.929 42.5706C89.3435 42.3716 89.7137 42.1081 90.0409 41.7833C90.1956 41.6297 90.2718 41.45 90.2479 41.2275C90.2218 40.9861 90.2171 40.7419 90.1818 40.5021C90.107 39.994 90.0208 39.4876 89.9347 38.9812C89.8789 38.6533 89.9099 38.6796 89.5723 38.6508C89.4243 38.638 89.2767 38.6189 89.1289 38.6024C88.9766 38.5853 88.8671 38.5146 88.823 38.3589C88.8103 38.3142 88.7905 38.2714 88.7736 38.2279C88.5237 37.5827 88.3263 36.9207 88.1568 36.2502C88.1201 36.1053 88.0856 35.9599 88.0502 35.8147C88.0176 35.6809 88.0329 35.554 88.11 35.4386C88.1773 35.3379 88.246 35.2381 88.3183 35.1409C88.5252 34.863 88.7704 34.6201 89.0134 34.3753C89.0491 34.3394 89.11 34.3108 89.0833 34.229C89.0328 34.2263 88.9785 34.2207 88.9243 34.221C88.2165 34.2245 87.5123 34.1608 86.809 34.0948C85.93 34.0122 85.0532 33.9067 84.1784 33.7847C83.1471 33.641 82.1187 33.4814 81.0992 33.2672C80.7261 33.1888 80.3547 33.1027 79.9935 32.9789C79.9484 32.9634 79.8809 32.9643 79.8731 32.8836C79.9389 32.8836 80.0034 32.881 80.0675 32.8843C80.1324 32.8877 80.197 32.8967 80.2618 32.9038C80.3357 32.912 80.4092 32.9239 80.4835 32.9284C80.5411 32.9319 80.6029 32.9479 80.6636 32.9156C80.6202 32.8473 80.564 32.8368 80.5135 32.817C80.0889 32.6514 79.6666 32.4799 79.2392 32.322C77.1352 31.5449 74.9913 30.8944 72.8318 30.2946C70.3588 29.6078 67.8673 28.9958 65.3552 28.471C63.5442 28.0926 61.7267 27.7511 59.8876 27.5353C58.7786 27.4051 57.6667 27.3183 56.5513 27.2865C55.0529 27.2437 53.5587 27.3053 52.069 27.4832C50.8024 27.6346 49.552 27.8682 48.3192 28.1963C46.5713 28.6614 44.8883 29.308 43.2392 30.0468C41.1808 30.9689 39.2098 32.0555 37.2939 33.2453C36.7641 33.5743 36.2417 33.916 35.7077 34.2377C34.7773 34.7982 33.7761 35.0808 32.6807 35.0538C31.426 35.0228 30.1702 35.0266 28.9149 35.0289C27.5201 35.0315 26.126 35.067 24.7337 35.1629C23.3978 35.255 22.0664 35.3876 20.7386 35.5599C19.6968 35.6951 18.6588 35.8548 17.6243 36.0373C16.0955 36.3069 14.5758 36.6234 13.0642 36.9783C11.5973 37.3228 10.1425 37.7104 8.72089 38.2156C7.29707 38.7216 5.92571 39.3399 4.6375 40.1371C3.85995 40.6182 3.12439 41.1571 2.43515 41.7593C2.22042 41.9469 1.99872 42.0839 1.69066 42.0858C1.33962 42.0879 1.11081 42.3275 1.05486 42.6791C1.01914 42.9032 1.03449 43.1269 1.08639 43.3473C1.1228 43.5017 1.15936 43.6568 1.20819 43.8074C1.26526 43.9837 1.26735 44.1495 1.19215 44.3234C1.12936 44.4682 1.08918 44.6233 1.04286 44.7751C0.963889 45.0338 1.01105 45.2715 1.16048 45.495C1.25451 45.6355 1.36222 45.7644 1.48221 45.8812C1.57834 45.9747 1.59104 46.0639 1.52714 46.1799C1.44161 46.335 1.36669 46.496 1.28605 46.6539C1.21015 46.8029 1.19773 46.9556 1.24726 47.1159C1.27474 47.205 1.29721 47.2961 1.31451 47.3877C1.4324 48.013 1.35037 48.5972 0.955797 49.1154C0.836506 49.272 0.696844 49.4088 0.549509 49.5382C0.31581 49.7438 0.154104 50.0039 0.00118771 50.2706C-0.00243986 50.277 0.00314102 50.2886 0.00593146 50.309C0.111131 50.3293 0.219679 50.3533 0.329064 50.3711C0.842784 50.455 1.35692 50.5359 1.8705 50.62C3.07207 50.8171 4.27321 51.0157 5.47463 51.213C6.70354 51.4148 7.93259 51.6162 9.16178 51.8172C9.31763 51.8427 9.47389 51.8658 9.6303 51.8867C9.68527 51.894 9.71959 51.8543 9.70508 51.8023C9.63699 51.5593 9.55119 51.3228 9.45282 51.0903C8.69648 49.3027 8.49068 47.454 8.86167 45.546C9.56668 41.92 12.308 39.052 15.8807 38.2006C16.8945 37.9589 17.9226 37.795 18.9541 37.6521C19.9396 37.5155 20.9288 37.4109 21.9197 37.3263C23.1423 37.2218 24.3659 37.1267 25.5902 37.0436C26.592 36.9755 27.5949 36.9208 28.598 36.8782C30.0193 36.8178 31.4415 36.7685 32.8642 36.7562C37.1602 36.7186 41.4562 36.7049 45.7524 36.7131C48.5886 36.7186 51.4248 36.7185 54.2609 36.7209C54.5681 36.7211 54.8734 36.7033 55.1774 36.6513C55.4796 36.5997 55.7843 36.5629 56.0882 36.5211C56.7052 36.4363 57.3221 36.3524 57.9391 36.268C58.3903 36.2063 58.8415 36.1445 59.2929 36.0832C59.3389 36.0769 59.3852 36.0721 59.4317 36.0694C59.568 36.0614 59.5903 36.0874 59.5727 36.2334C59.5683 36.2704 59.5587 36.3069 59.5538 36.3439C59.5291 36.529 59.5026 36.714 59.4821 36.8997C59.4723 36.9883 59.4907 37.0124 59.5799 37.0396C59.7043 37.0776 59.8306 37.1095 59.9556 37.1455C60.018 37.1636 60.0807 37.1818 60.1406 37.2067C60.1787 37.2224 60.1857 37.2605 60.1818 37.3008C60.1786 37.3336 60.1571 37.356 60.1321 37.3602C60.0223 37.379 59.9119 37.3967 59.8011 37.4069C58.9681 37.4841 58.1348 37.5592 57.3018 37.6351C56.2835 37.728 55.2651 37.8208 54.2469 37.9136C53.2193 38.0073 52.1918 38.101 51.1642 38.1945C49.9329 38.3067 48.7018 38.4189 47.4705 38.5311C46.2392 38.6433 45.008 38.7555 43.7768 38.8677C42.5455 38.9799 41.3143 39.0922 40.0831 39.2046C38.8518 39.3168 37.6206 39.429 36.3894 39.5412C35.1581 39.6534 33.9269 39.7658 32.6956 39.8772C32.5475 39.8907 32.3989 39.8985 32.2504 39.908C32.1879 39.9121 32.1426 39.889 32.1268 39.8229C32.1225 39.8048 32.1155 39.7873 32.1108 39.7692C32.0871 39.6772 32.0965 39.6468 32.1726 39.6093C32.256 39.5682 32.3417 39.5319 32.4269 39.4947C32.7169 39.3682 33.0071 39.2426 33.2967 39.1157C33.3476 39.0934 33.3986 39.0695 33.4452 39.0398C33.4671 39.0258 33.4796 38.9946 33.46 38.9667C33.4503 38.9531 33.434 38.9343 33.421 38.9346C33.2729 38.9387 33.1241 38.9395 32.9767 38.9537C32.1069 39.0368 31.2375 39.1245 30.3677 39.2082C29.683 39.2741 28.9979 39.336 28.313 39.4006C28.1372 39.4172 27.9618 39.4372 27.7863 39.457C27.7483 39.4612 27.722 39.5119 27.7429 39.5392C27.7767 39.5835 27.8118 39.627 27.8495 39.6679C29.0735 41 30.2978 42.3317 31.5228 43.6629C31.5647 43.7084 31.598 43.767 31.666 43.7808C31.6657 43.7808 31.6654 43.7808 31.6651 43.7809H31.6663C31.6671 43.7809 31.6679 43.7812 31.6688 43.7813C31.6649 43.7838 31.6611 43.7862 31.6573 43.7882C31.6534 43.7948 31.6505 43.8026 31.6421 43.7973C31.6414 43.7969 31.6411 43.7963 31.6406 43.7959C31.5877 43.8164 31.5403 43.7948 31.4927 43.7593C31.2686 43.5924 31.0405 43.431 30.8195 43.26C30.1543 42.7453 29.538 42.1793 29.012 41.5178C28.9022 41.3796 28.7772 41.2517 28.6473 41.1322C28.153 40.6781 27.5724 40.4439 26.898 40.4494C26.4275 40.4532 25.9766 40.5567 25.533 40.7021C25.5012 40.7125 25.4609 40.7238 25.4592 40.7902C25.529 40.8816 25.6072 40.9851 25.6865 41.0878C26.3453 41.9412 26.8998 42.856 27.3008 43.8608C27.9435 45.4718 28.1133 47.1303 27.8011 48.8392C27.6339 49.7545 27.3462 50.6297 26.9651 51.4758C26.9229 51.5694 26.8812 51.6632 26.8426 51.7583C26.8228 51.8071 26.8518 51.8519 26.9066 51.8543C27.0365 51.8599 27.1667 51.8629 27.2966 51.863C40.1468 51.8634 52.9969 51.8633 65.8472 51.8633C65.9774 51.8633 66.1075 51.8639 66.2377 51.8625C66.284 51.8619 66.3304 51.8583 66.3764 51.8526C66.4198 51.8475 66.4455 51.817 66.4353 51.7762C66.4152 51.6949 66.3878 51.6154 66.3615 51.5357C66.1705 50.9597 65.9765 50.3849 65.8066 49.802C65.4687 48.643 65.4076 47.4704 65.5949 46.2789C65.7346 45.3909 65.9541 44.5228 66.2026 43.661C66.2801 43.3919 66.3645 43.1247 66.4421 42.8556C66.4711 42.755 66.4424 42.719 66.3376 42.7104C66.2821 42.7059 66.2261 42.7054 66.1705 42.7044C65.2779 42.6885 64.3856 42.6619 63.493 42.6592C61.0471 42.6521 58.6033 42.7204 56.1632 42.9028C55.2918 42.968 54.4215 43.0417 53.552 43.1302C52.2294 43.2648 50.9115 43.4328 49.5971 43.6317C47.8688 43.8931 46.1517 44.213 44.4448 44.5908C40.8439 45.3879 37.3223 46.4489 33.8863 47.7938C33.159 48.0785 32.4403 48.3852 31.7179 48.6826C31.67 48.7022 31.6058 48.7064 31.6046 48.7938C31.6492 48.7963 31.6933 48.8019 31.7373 48.8008C32.7132 48.7777 33.6893 48.7565 34.6651 48.7287C35.0554 48.7176 35.4455 48.6967 35.8352 48.6718C36.8742 48.6053 37.9129 48.5345 38.9518 48.4648C39.564 48.4237 40.1761 48.3824 40.7882 48.3398C41.799 48.2693 42.8097 48.1972 43.8204 48.1264C44.414 48.0847 45.0075 48.0445 45.601 48.0028C46.5933 47.9331 47.5853 47.862 48.5776 47.7927C49.1989 47.7494 49.8204 47.7089 50.4419 47.6661C51.4064 47.5997 52.3709 47.5335 53.3353 47.4654C53.8823 47.4268 54.43 47.3939 54.9758 47.3415C55.5226 47.2892 56.06 47.1822 56.5849 47.0138C57.6716 46.6652 58.5341 46.0241 59.1427 45.0477C59.1771 44.9926 59.214 44.938 59.2563 44.8891C59.3064 44.831 59.3251 44.8271 59.4719 44.7988C59.4635 44.8382 59.4597 44.8747 59.4479 44.9083C59.245 45.4832 58.9868 46.0304 58.6393 46.5328C57.9981 47.4598 57.1375 48.0724 56.0512 48.3646C55.5908 48.4885 55.122 48.5582 54.6472 48.5712C53.2344 48.6098 51.8226 48.6688 50.4108 48.735C49.1013 48.7964 47.7914 48.849 46.4817 48.9044C45.1441 48.9611 43.8063 49.0168 42.4688 49.0722C41.1032 49.1288 39.7376 49.1862 38.372 49.2403C36.9134 49.2982 35.4547 49.351 33.9961 49.409C32.1556 49.4824 30.3144 49.4392 28.4736 49.4301C28.4327 49.4299 28.3786 49.447 28.3474 49.3588C28.3685 49.3447 28.4003 49.3264 28.4288 49.3038C28.7431 49.0548 29.0713 48.8281 29.4201 48.6286C31.0277 47.7088 32.6336 46.7863 34.2367 45.8589C36.0915 44.7859 37.9962 43.8144 39.962 42.9628C43.6047 41.385 47.3794 40.2451 51.2752 39.506C53.3686 39.1088 55.479 38.8381 57.6021 38.6693C58.6681 38.5844 59.7361 38.53 60.805 38.5028C62.5252 38.459 64.2451 38.4756 65.9641 38.5576C66.382 38.5775 66.7991 38.6094 67.2169 38.6329C67.8479 38.6686 68.4777 38.7292 69.1106 38.7307C69.7064 38.7322 70.2995 38.7091 70.889 38.6101C71.3766 38.5282 71.8494 38.3949 72.3192 38.2438C73.8763 37.7424 75.4582 37.6533 77.053 38.0145C79.4697 38.5617 81.4063 39.8623 82.8306 41.8925C84.3585 44.0701 84.8638 46.49 84.3728 49.112C84.2715 49.6533 84.1406 50.1891 84.0237 50.7275C83.9594 51.0235 83.9832 50.9951 84.2366 50.9298C85.518 50.6004 86.7654 50.1722 87.9702 49.6221C88.8092 49.2391 89.6181 48.8002 90.4 48.3092C90.5966 48.1858 90.7166 48.0283 90.7482 47.799C90.7648 47.6788 90.7886 47.5596 90.8075 47.4397C90.8705 47.0434 90.9565 46.65 90.956 46.2455C90.956 46.1805 90.9564 46.1139 90.9996 46.0583V44.7123C90.9528 44.6364 90.9586 44.5503 90.9581 44.4674L90.9588 44.4678ZM31.6668 43.7809C31.6681 43.7808 31.6692 43.7805 31.6706 43.7803C31.6702 43.7806 31.6697 43.7809 31.6693 43.7812C31.6685 43.7809 31.6677 43.7809 31.6668 43.7809ZM61.4031 33.7768C60.7023 33.8655 60.0014 33.9524 59.2998 34.0341C58.7274 34.1007 58.1545 34.1638 57.5809 34.2188C56.7944 34.2942 56.0075 34.3655 55.2201 34.4291C54.6178 34.4778 54.0146 34.5157 53.4115 34.5518C52.1679 34.6263 50.9242 34.697 49.6804 34.7678C49.2905 34.79 48.9004 34.8097 48.5105 34.8271C47.4516 34.8745 46.3927 34.9211 45.3337 34.9661C43.9588 35.0245 42.584 35.0808 41.2091 35.1382C39.8901 35.1932 38.5709 35.2475 37.2519 35.304C36.7132 35.3271 36.1746 35.3566 35.6359 35.3803C35.4875 35.3869 35.3382 35.3891 35.1899 35.3819C35.0423 35.3749 34.8952 35.3536 34.7447 35.3383C34.7546 35.2777 34.7955 35.287 34.8232 35.2856C35.5956 35.2462 36.2928 34.9766 36.9426 34.5733C37.3062 34.3475 37.6605 34.1064 38.0151 33.8663C38.4162 33.5948 38.8162 33.3219 39.2491 33.1033C39.5511 32.9508 39.5398 32.9334 39.6183 33.2737C39.6729 33.5102 39.7238 33.7477 39.7816 33.9834C39.8216 34.1471 39.8823 34.3039 39.9657 34.4511C40.0814 34.6553 40.245 34.7646 40.4891 34.749C40.6755 34.7371 40.8584 34.7102 41.0407 34.6724C41.25 34.6293 41.46 34.5897 41.6697 34.5483C41.6971 34.543 41.7241 34.5363 41.7512 34.5297C42.0957 34.445 42.236 34.2782 42.245 33.9175C42.2505 33.6935 42.2378 33.4692 42.2327 33.2449C42.232 33.217 42.229 33.1888 42.2247 33.1612C42.1686 32.8082 41.9981 32.6539 41.6422 32.6497C41.2704 32.6454 40.8984 32.6505 40.5265 32.6514C40.4986 32.6514 40.4702 32.6519 40.4432 32.6468C40.428 32.6438 40.4077 32.6323 40.4028 32.6196C40.3977 32.6061 40.4023 32.5796 40.4126 32.571C40.4409 32.5476 40.474 32.5294 40.5062 32.5111C42.7096 31.271 44.9905 30.2067 47.3999 29.4326C48.828 28.9738 50.2825 28.6272 51.7659 28.4082C53.3252 28.1779 54.8933 28.1078 56.4668 28.1845C57.3771 28.2289 58.2815 28.3378 59.1824 28.4788C60.3394 28.66 61.4948 28.8502 62.6466 29.0621C63.8072 29.2756 64.9672 29.4937 66.1272 29.7112C67.0681 29.8876 68.0084 30.0674 68.9493 30.2433C69.3714 30.3221 69.7812 30.4381 70.1743 30.6138C70.4069 30.7177 70.6151 30.8529 70.7896 31.0401C70.9166 31.1763 71.0469 31.3093 71.1962 31.4651C71.0141 31.6571 70.8562 31.8275 70.6936 31.9932C70.6011 32.0875 70.4884 32.1555 70.3625 32.1953C69.4495 32.4839 68.5416 32.7935 67.593 32.9479C67.0979 33.0285 66.5996 33.0905 66.1024 33.158C65.3197 33.2643 64.5367 33.3694 63.7535 33.4727C62.9704 33.5759 62.187 33.678 61.4033 33.7771L61.4031 33.7768ZM76.7899 32.7504C76.1968 32.7939 75.6035 32.8344 75.0103 32.8748C73.8422 32.9543 72.6758 33.0539 71.5174 33.2279C70.5248 33.377 69.5424 33.5818 68.5637 33.8034C67.6848 34.0024 66.8061 34.2024 65.9274 34.4022C65.8641 34.4166 65.8006 34.4315 65.7382 34.45C65.6728 34.4694 65.6534 34.5071 65.6655 34.5779C65.6773 34.6457 65.7117 34.6783 65.7798 34.6696C65.9271 34.6507 66.0739 34.6273 66.2206 34.603C67.4485 34.3994 68.6764 34.1955 69.9042 33.9911C70.8389 33.8356 71.7732 33.6792 72.708 33.5243C72.7622 33.5153 72.8177 33.5129 72.8727 33.5126C72.884 33.5126 72.9018 33.5344 72.9048 33.5487C72.9077 33.563 72.9003 33.5893 72.8894 33.595C72.8488 33.616 72.8061 33.6356 72.762 33.6468C72.6721 33.6696 72.5805 33.6864 72.4897 33.7055C69.8713 34.2549 67.2529 34.8044 64.6345 35.3542C64.0708 35.4725 63.5074 35.5919 62.9439 35.7108C62.9084 35.7183 62.873 35.7321 62.8384 35.7072C62.8507 35.6306 62.9206 35.6104 62.9721 35.5749C63.3562 35.3099 63.7664 35.0915 64.189 34.8963C65.1453 34.4542 66.1396 34.1186 67.1514 33.8328C68.5751 33.4307 70.0203 33.1306 71.4835 32.9148C73.0122 32.6894 74.5467 32.5552 76.0933 32.5904C76.4372 32.5982 76.7804 32.6146 77.1222 32.6545C77.1578 32.6587 77.1928 32.6679 77.2288 32.7002C77.0825 32.7173 76.9367 32.7399 76.7899 32.7507V32.7504ZM90.8921 45.8731C90.5264 46.6482 90.159 47.4225 89.7915 48.1966C89.7717 48.2384 89.748 48.2787 89.7219 48.3168C89.7133 48.3294 89.6916 48.3329 89.6668 48.3451C89.5863 48.2946 89.485 48.2663 89.4231 48.1781C89.4145 48.166 89.4151 48.1418 89.4207 48.1265C89.4366 48.0829 89.456 48.0404 89.4763 47.9986C89.8406 47.2539 90.2052 46.5093 90.5699 45.7649C90.5904 45.7231 90.6104 45.6808 90.6345 45.6412C90.6608 45.5983 90.697 45.5735 90.7502 45.5979C90.7671 45.6056 90.7849 45.6111 90.8018 45.6189C90.9565 45.6909 90.9671 45.7136 90.8919 45.8731H90.8921Z" fill="white"/>
<path d="M31.6668 43.7812C31.6466 43.7841 31.6369 43.7912 31.6419 43.7964C31.6475 43.7943 31.6531 43.7917 31.659 43.7886C31.6611 43.7851 31.6634 43.7821 31.6669 43.7812H31.6668Z" fill="white"/>
<path d="M31.6728 43.7828C31.6686 43.79 31.6644 43.797 31.6602 43.8041C31.664 43.7965 31.6678 43.789 31.6716 43.7813C31.6716 43.7811 31.6728 43.7828 31.6728 43.7828Z" fill="black"/>
<path d="M83.0431 45.1138C82.6523 43.7528 81.9441 42.5795 80.9253 41.6096C78.9031 39.6842 76.5042 38.8671 73.738 39.2908C71.6955 39.6037 69.9772 40.5668 68.6342 42.1479C67.0594 44.0019 66.4231 46.1503 66.8544 48.5636C67.2592 50.8283 68.4208 52.6379 70.289 53.9728C71.3631 54.7404 72.5649 55.184 73.8771 55.3287C74.2855 55.3737 74.6935 55.3729 75.1024 55.376C75.2326 55.376 75.3627 55.3751 75.4928 55.376C76.2142 55.3812 76.9198 55.2735 77.6077 55.0582C79.3101 54.5251 80.664 53.5041 81.7044 52.0601C82.5784 50.8469 83.0913 49.4895 83.2607 48.0004C83.3717 47.0235 83.3152 46.0611 83.0431 45.1138ZM72.6859 47.782C72.5046 47.822 72.3224 47.8575 72.1405 47.8944C71.3946 48.0453 70.6489 48.1963 69.9028 48.3465C69.8222 48.3628 69.7406 48.3739 69.5969 48.3977C69.7201 48.2185 69.8424 48.1359 69.9634 48.0536C70.2985 47.8258 70.6729 47.6885 71.0614 47.5893C71.5421 47.4666 72.0311 47.4288 72.5257 47.462C72.5812 47.4658 72.6369 47.47 72.692 47.478C72.7648 47.4887 72.8052 47.5303 72.8133 47.6073C72.8248 47.7164 72.8013 47.7567 72.6859 47.7822V47.782ZM76.7624 46.3332C76.6811 46.2698 76.6747 46.2426 76.7393 46.1475C76.9861 45.7852 77.2353 45.4247 77.4835 45.0634C77.9851 44.333 78.489 43.6043 78.9868 42.8712C79.1492 42.6321 79.163 42.6927 78.9598 42.453C78.8574 42.3324 78.7482 42.2166 78.6341 42.1072C78.5677 42.0435 78.4896 41.9893 78.4092 41.9442C78.2743 41.8686 78.1388 41.886 78.017 41.9785C77.9202 42.0519 77.8374 42.1416 77.7695 42.2427C77.6343 42.4439 77.497 42.6439 77.3689 42.8497C76.8464 43.6892 76.3271 44.5306 75.8061 45.371C75.7623 45.4416 75.7148 45.5098 75.6571 45.5969C75.609 45.5756 75.5817 45.5676 75.5588 45.5527C75.3865 45.4395 75.3851 45.4383 75.4767 45.2424C75.9949 44.1351 76.5145 43.0285 77.0314 41.9207C77.0779 41.821 77.1421 41.7262 77.1503 41.6096C77.1239 41.5915 77.1031 41.5713 77.0782 41.5611C75.7993 41.0355 74.5132 41.0045 73.2197 41.506C73.1937 41.5161 73.1661 41.5238 73.1425 41.5381C73.0979 41.565 73.0804 41.6054 73.1001 41.6565C73.1236 41.7175 73.1476 41.7782 73.1729 41.8383C73.6323 42.931 74.092 44.0235 74.5516 45.1161C74.5697 45.1592 74.5877 45.2022 74.6069 45.2447C74.7138 45.4809 74.6905 45.4813 74.4524 45.5865C74.4144 45.6032 74.3786 45.5848 74.3572 45.5506C74.3177 45.4875 74.2803 45.4229 74.2441 45.3578C73.6221 44.2412 73.0012 43.1238 72.3781 42.0078C72.1928 41.6759 72.2617 41.725 71.9105 41.8106C71.7301 41.8545 71.553 41.913 71.3873 42.0006C71.0904 42.158 71.0224 42.3312 71.1347 42.645C71.2076 42.8489 71.3222 43.031 71.4391 43.2106C71.7343 43.6639 72.033 44.1148 72.3306 44.5665C72.6334 45.0261 72.9366 45.4854 73.2395 45.9448C73.2755 45.9994 73.3126 46.0532 73.346 46.1093C73.3931 46.1887 73.3885 46.2199 73.3228 46.2789C73.2953 46.3036 73.2649 46.3257 73.2338 46.3457C73.1981 46.3685 73.1619 46.3629 73.1337 46.3316C73.0714 46.2625 73.0096 46.1928 72.9499 46.1213C72.2203 45.2484 71.4911 44.3752 70.7619 43.5022C70.7081 43.4378 70.6533 43.3743 70.5978 43.3115C70.5618 43.2708 70.5188 43.2634 70.4771 43.3007C70.4285 43.3442 70.3825 43.3906 70.337 43.4373C69.7065 44.0849 69.2853 44.856 69.0079 45.7123C68.7973 46.363 68.6728 47.0327 68.5719 47.7076C68.5362 47.9467 68.5006 48.1858 68.4632 48.4367C68.3739 48.406 68.3649 48.3409 68.3459 48.2848C68.0613 47.4464 68.0338 46.5967 68.2743 45.7471C69.0058 43.1632 70.9544 41.2678 73.4544 40.6816C75.4896 40.2044 77.3865 40.5747 79.1099 41.7713C79.8305 42.2716 80.3968 42.9254 80.8736 43.6612C80.9507 43.7803 80.9687 43.8765 80.8693 43.9834C80.844 44.0105 80.8256 44.0438 80.801 44.0716C80.7735 44.1026 80.7366 44.111 80.7011 44.0897C80.6455 44.0562 80.5922 44.0186 80.539 43.981C80.2958 43.8089 80.0538 43.6352 79.8097 43.4643C79.6536 43.3549 79.6522 43.3565 79.5156 43.5029C79.4775 43.5439 79.4412 43.5865 79.4039 43.6281C78.632 44.4888 77.8602 45.3495 77.0883 46.2102C77.0572 46.2448 77.027 46.2804 76.9946 46.314C76.8975 46.4149 76.8696 46.4169 76.762 46.3329L76.7624 46.3332ZM80.7073 50.9028C80.6817 50.9472 80.6383 50.9626 80.588 50.9396C80.5458 50.9204 80.5036 50.9009 80.4621 50.8802C79.5897 50.4435 78.7175 50.0065 77.8451 49.5699C77.6128 49.4536 77.6139 49.4608 77.7412 49.217C77.772 49.1581 77.8179 49.142 77.8792 49.174C77.9286 49.1998 77.9798 49.2221 78.0296 49.247C78.8851 49.6758 79.7407 50.1046 80.5961 50.5341C80.654 50.5631 80.7119 50.5931 80.7656 50.6291C80.785 50.6422 80.7918 50.674 80.8065 50.7011C80.7731 50.7701 80.7441 50.8388 80.7073 50.9029V50.9028ZM81.6694 49.3989C81.6294 49.51 81.5977 49.6279 81.4735 49.772C81.4735 49.6264 81.4759 49.5428 81.4731 49.4592C81.4628 49.1484 81.3134 48.9273 81.0326 48.8033C80.906 48.7473 80.7717 48.7046 80.637 48.6722C79.4724 48.3917 78.3195 48.067 77.1641 47.752C77.1283 47.7422 77.0916 47.7356 77.056 47.7248C76.8866 47.6732 76.8766 47.655 76.9223 47.4888C76.953 47.3772 76.9668 47.3643 77.0754 47.3818C77.6252 47.4704 78.1756 47.5555 78.7241 47.6525C79.4736 47.7847 80.2213 47.9265 80.9699 48.0641C80.9972 48.0691 81.0248 48.0729 81.0524 48.0771C81.2525 48.107 81.2638 48.0986 81.269 47.9078C81.2708 47.8425 81.2697 47.7771 81.2697 47.7118C81.2697 46.881 81.2697 46.0503 81.2697 45.2195C81.2697 45.1355 81.2683 45.0513 81.2723 44.9675C81.2744 44.9246 81.2623 44.864 81.3231 44.8537C81.375 44.845 81.4007 44.8962 81.4254 44.933C81.4825 45.0178 81.5392 45.1034 81.5889 45.1927C81.6797 45.3562 81.7443 45.531 81.8007 45.7092C81.9081 46.0492 81.9684 46.3989 81.9963 46.7524C82.0679 47.6561 81.9782 48.5419 81.6693 49.3986L81.6694 49.3989Z" fill="white"/>
<path d="M26.4238 45.4516C25.8351 42.7696 23.8826 40.5857 21.2843 39.6585C19.9714 39.1901 18.624 39.0698 17.2445 39.2548C16.05 39.4149 14.926 39.781 13.8872 40.3968C12.327 41.322 11.1974 42.6243 10.5546 44.3312C10.0244 45.739 9.87123 47.1953 10.086 48.6869C10.2924 50.1205 10.8547 51.3994 11.8061 52.4858C13.4946 54.4141 15.642 55.3412 18.1866 55.3638C18.2795 55.3638 18.3726 55.3646 18.4655 55.3638C19.3171 55.355 20.1506 55.2262 20.9627 54.968C25.043 53.6702 27.3323 49.5902 26.4237 45.4516H26.4238ZM11.8615 49.4312C11.8552 49.5103 11.8801 49.5954 11.8375 49.6696C11.756 49.6598 11.7496 49.593 11.7273 49.5483C11.5635 49.2205 11.4563 48.8724 11.3924 48.5129C11.23 47.5987 11.2611 46.6904 11.5015 45.7923C11.5864 45.4756 11.7038 45.1713 11.875 44.8902C11.9041 44.8425 11.9349 44.7957 11.9682 44.7512C11.984 44.7302 12.0069 44.7058 12.0372 44.7256C12.0499 44.7338 12.0602 44.7553 12.0609 44.7713C12.0648 44.8552 12.0665 44.9393 12.0666 45.0233C12.0669 45.9293 12.0666 46.8354 12.067 47.7414C12.067 47.8254 12.0676 47.9095 12.073 47.9933C12.0773 48.0593 12.1163 48.0935 12.1853 48.0843C12.3417 48.0635 12.4977 48.0386 12.653 48.0105C13.7407 47.814 14.8282 47.6164 15.9157 47.4194C15.9615 47.4111 16.0078 47.4065 16.0536 47.3983C16.2915 47.3558 16.2694 47.349 16.3247 47.584C16.348 47.6832 16.3276 47.7129 16.2192 47.741C15.5626 47.9105 14.9055 48.0782 14.2486 48.2467C13.7446 48.376 13.2403 48.5032 12.7373 48.6364C12.5941 48.6743 12.4511 48.7196 12.3159 48.7793C12.0367 48.9029 11.8861 49.1232 11.8618 49.4315L11.8615 49.4312ZM12.8686 50.9216C12.8183 50.9474 12.7761 50.9332 12.7512 50.8866C12.7083 50.8063 12.6439 50.7335 12.6476 50.6353C12.6894 50.5766 12.7531 50.5558 12.8101 50.5261C13.7411 50.0389 14.6726 49.5521 15.6039 49.0653C15.6533 49.0395 15.7032 49.0145 15.7535 48.9903C15.8019 48.9668 15.8449 48.9762 15.873 49.0221C15.9023 49.0695 15.9265 49.1201 15.9517 49.1699C15.9767 49.2193 15.9614 49.2625 15.9205 49.2926C15.8834 49.32 15.8407 49.3402 15.7997 49.362C14.8642 49.861 13.9285 50.3597 12.9929 50.8583C12.9519 50.8802 12.91 50.9005 12.8687 50.9217L12.8686 50.9216ZM21.9215 52.8372C21.8983 52.8524 21.873 52.8648 21.8479 52.8771C21.4641 53.0655 21.0796 53.2524 20.6963 53.442C20.1579 53.7085 19.5861 53.8636 18.9967 53.9607C18.6382 54.0197 18.277 54.0423 18.0287 54.0475C16.5102 54.0616 15.2723 53.6047 14.1892 52.713C14.0088 52.5647 13.8515 52.3945 13.7125 52.2052C13.5928 52.0421 13.6124 51.8728 13.6629 51.6982C13.6693 51.6761 13.6983 51.6484 13.7204 51.6448C13.8976 51.6148 14.063 51.6097 14.2129 51.7517C14.5384 52.0598 14.8992 52.3236 15.2854 52.5508C16.3106 53.1537 17.417 53.3971 18.6001 53.3168C19.5266 53.2538 20.412 53.0196 21.2787 52.6994C21.3571 52.6704 21.4347 52.6387 21.5138 52.6121C21.6959 52.5509 21.8358 52.601 21.9414 52.7658C21.9565 52.7893 21.9474 52.8202 21.9213 52.8374L21.9215 52.8372ZM23.4847 48.3482C22.474 48.1538 21.4634 47.9583 20.453 47.7617C20.4189 47.7551 20.387 47.7375 20.3475 47.7223C20.6977 47.495 21.4038 47.437 22.0904 47.5735C22.7134 47.6973 23.315 48.0133 23.5334 48.3317C23.517 48.3376 23.4993 48.351 23.4847 48.3482ZM24.9877 48.1775C24.9688 48.2495 24.9456 48.3204 24.9205 48.3904C24.916 48.4029 24.8917 48.4158 24.8777 48.4148C24.8636 48.4138 24.8496 48.3966 24.8377 48.3844C24.8317 48.3782 24.8302 48.3676 24.827 48.3587C24.7112 48.0418 24.6195 47.7206 24.6176 47.3779C24.6149 46.8992 24.5446 46.4283 24.4281 45.9648C24.1766 44.9634 23.679 44.0998 22.9743 43.3529C22.9488 43.3258 22.9213 43.3005 22.8956 43.2735C22.8563 43.232 22.8126 43.2318 22.7753 43.2701C22.7236 43.3234 22.6768 43.3819 22.6291 43.4392C21.8171 44.4132 21.0052 45.3874 20.1932 46.3614C20.1455 46.4186 20.099 46.4772 20.0491 46.5325C19.979 46.6099 19.9476 46.6116 19.8595 46.5499C19.7739 46.49 19.7651 46.4572 19.8211 46.3646C19.879 46.269 19.9418 46.1763 20.0025 46.0821C20.7299 44.953 21.4578 43.8242 22.1846 42.6947C22.3504 42.4371 22.3598 42.4746 22.0896 42.303C21.8146 42.1284 21.5385 41.9557 21.2614 41.7845C21.1782 41.7332 21.1566 41.7399 21.1033 41.8207C21.0623 41.883 21.0243 41.9473 20.9862 42.0116C20.3387 43.1027 19.6915 44.1938 19.0441 45.2849C19.0108 45.341 18.9785 45.3979 18.9422 45.452C18.8923 45.5266 18.8658 45.5325 18.7786 45.4968C18.6211 45.4323 18.6098 45.4098 18.6797 45.2464C19.0984 44.2684 19.5185 43.291 19.9383 42.3134C20.023 42.1162 20.11 41.92 20.1925 41.7218C20.2461 41.5929 20.2374 41.5746 20.1006 41.5158C19.8003 41.3871 19.4888 41.2944 19.168 41.2346C18.3381 41.0799 17.5207 41.1538 16.7119 41.3735C16.5506 41.4172 16.3907 41.4676 16.2319 41.5197C16.1423 41.5492 16.1281 41.5824 16.1612 41.6647C16.1959 41.7513 16.2351 41.8361 16.2733 41.9212C16.7936 43.0788 17.314 44.2364 17.8344 45.394C17.8498 45.428 17.8657 45.4618 17.8799 45.4963C17.9356 45.6306 17.9283 45.6516 17.8057 45.7161C17.6801 45.7822 17.6564 45.7796 17.583 45.6562C17.2588 45.111 16.9372 44.5641 16.6147 44.0179C16.1879 43.2948 15.7614 42.5717 15.3345 41.8487C15.3013 41.7925 15.2674 41.7367 15.2307 41.6827C15.189 41.6213 15.1528 41.6158 15.0941 41.6696C14.7781 41.9592 14.4629 42.2497 14.1497 42.5421C14.0809 42.6063 14.0807 42.6279 14.1386 42.711C14.454 43.162 14.7708 43.6117 15.0875 44.0617C15.5383 44.7023 15.9895 45.3428 16.4405 45.9833C16.4727 46.029 16.5061 46.074 16.5359 46.1214C16.5997 46.2224 16.597 46.2396 16.5027 46.3364C16.4839 46.3558 16.4578 46.3681 16.4349 46.3837C16.339 46.3516 16.2887 46.2684 16.2253 46.2023C15.4508 45.395 14.6997 44.5661 13.9788 43.7098C13.9368 43.6598 13.8942 43.6102 13.8512 43.5613C13.6798 43.3658 13.6968 43.3808 13.4942 43.5213C13.2493 43.691 13.0053 43.8618 12.7604 44.0314C12.7224 44.0577 12.6833 44.0852 12.6407 44.1016C12.6134 44.1121 12.5837 44.0876 12.59 44.0569C12.6049 43.9841 12.624 43.9116 12.6483 43.8413C12.8252 43.329 13.1226 42.8917 13.4883 42.4992C14.1088 41.8332 14.8534 41.3507 15.6905 41.0076C18.2446 39.9603 21.2194 40.5525 23.1848 42.4971C24.0301 43.3332 24.6414 44.3102 24.9587 45.4645C25.2065 46.366 25.2267 47.2707 24.9879 48.1777L24.9877 48.1775Z" fill="white"/>
<path d="M39.131 61.82C39.1204 61.6903 39.0968 61.5609 39.0683 61.4338C38.9673 60.9821 38.6764 60.7305 38.2329 60.6386C38.0219 60.595 37.8093 60.5834 37.5953 60.5834C36.5543 60.5831 35.5132 60.5832 34.4722 60.5832V60.5724C33.4312 60.5724 32.3901 60.5722 31.3491 60.5727C31.2191 60.5727 31.0884 60.5695 30.959 60.5803C30.5681 60.6128 30.3691 60.8139 30.3422 61.2045C30.3326 61.3441 30.3365 61.4847 30.3382 61.6247C30.3542 63.0635 30.3566 64.5024 30.3365 65.9411C30.3348 66.0624 30.3372 66.184 30.3407 66.3053C30.3436 66.4091 30.3673 66.5084 30.4114 66.6031C30.4798 66.7496 30.5926 66.8392 30.7514 66.8618C30.9582 66.8913 31.1588 66.8512 31.3557 66.7902C31.4016 66.776 31.4337 66.7398 31.4397 66.6885C31.444 66.6515 31.4465 66.614 31.4467 66.5767C31.4497 66.0723 31.4708 65.5678 31.4366 65.0636C31.4284 64.942 31.4313 64.8217 31.456 64.7012C31.5051 64.4616 31.6536 64.3259 31.8874 64.2855C31.9874 64.2683 32.091 64.2659 32.1928 64.2656C33.048 64.2632 33.9031 64.2614 34.7582 64.263C35.0463 64.2634 35.3344 64.2696 35.6223 64.2815C35.7421 64.2864 35.862 64.3081 35.9803 64.3308C36.2432 64.3815 36.4389 64.5301 36.5645 64.7657C36.6344 64.8971 36.6987 65.0329 36.7509 65.1722C36.8227 65.3643 36.8794 65.5621 36.9451 65.7566C37.0017 65.9244 37.0507 66.0962 37.1226 66.2575C37.39 66.8576 37.7473 66.9506 38.2905 66.8477C38.522 66.8038 38.5291 66.785 38.4549 66.5474C38.2739 65.9683 38.0907 65.39 37.9085 64.8113C37.8832 64.7312 37.8552 64.6519 37.8333 64.5708C37.8055 64.4686 37.8182 64.4367 37.9085 64.3893C38.0237 64.3287 38.143 64.2759 38.2577 64.2143C38.397 64.1396 38.5363 64.0642 38.6699 63.98C38.9383 63.8107 39.089 63.5668 39.1233 63.2466C39.1744 62.771 39.1702 62.2955 39.1314 61.82H39.131ZM37.9707 62.7507C37.923 62.9452 37.7952 63.0726 37.5951 63.1252C37.4758 63.1566 37.3564 63.1577 37.2358 63.1577C36.3903 63.1581 35.5448 63.1578 34.6993 63.1578V63.1622C33.8446 63.1622 32.9898 63.1627 32.1351 63.1613C32.0427 63.1612 31.9485 63.1587 31.8583 63.141C31.6575 63.1017 31.5245 62.9778 31.4771 62.7774C31.4227 62.5478 31.4143 62.3146 31.4661 62.0827C31.5134 61.8705 31.6445 61.7425 31.8577 61.6951C31.9957 61.6644 32.1344 61.6665 32.2736 61.6669C33.4814 61.6707 34.6893 61.6757 35.8971 61.678C36.3338 61.6788 36.7705 61.6707 37.2071 61.672C37.3271 61.6722 37.449 61.6816 37.5668 61.7039C37.7652 61.7415 37.9012 61.8614 37.9595 62.0585C38.0274 62.2873 38.0268 62.5214 37.9707 62.7504V62.7507Z" fill="white"/>
<path d="M18.7004 61.9989C18.6841 61.7818 18.6301 61.5757 18.5394 61.3787C18.3117 60.8848 17.9491 60.5958 17.3851 60.6134C17.3294 60.6151 17.2736 60.6106 17.2178 60.6102C16.1393 60.6011 15.0608 60.5921 13.9823 60.583V60.5982C12.8386 60.5982 11.695 60.6012 10.5513 60.5955C10.3348 60.5944 10.1545 60.6446 9.9931 60.7963C9.8339 60.946 9.79135 61.1236 9.80739 61.3285C9.80809 61.3378 9.80739 61.3472 9.80711 61.3566C9.76889 63.0573 9.77712 64.7584 9.78047 66.4594C9.78061 66.5341 9.77963 66.609 9.78465 66.6835C9.79051 66.7714 9.81855 66.8023 9.90506 66.803C10.2119 66.8055 10.5187 66.8055 10.8255 66.8028C10.9079 66.8021 10.9326 66.7706 10.9368 66.6768C10.9406 66.5927 10.9396 66.5086 10.9398 66.4245C10.94 65.7889 10.9389 65.1534 10.9407 64.5178C10.9413 64.3336 10.9502 64.3268 11.1217 64.3083C11.1679 64.3033 11.2143 64.3003 11.2608 64.2988C11.6418 64.2869 12.0227 64.2669 12.4038 64.2657C13.8636 64.2603 15.3233 64.262 16.7831 64.2585C17.0154 64.258 17.2477 64.2473 17.4797 64.2361C17.6482 64.228 17.8098 64.1836 17.9652 64.1183C18.249 63.9992 18.4377 63.7921 18.5219 63.4948C18.56 63.3603 18.5892 63.2228 18.6163 63.0855C18.687 62.7269 18.728 62.3658 18.7005 61.9989H18.7004ZM17.4776 62.7126C17.4208 62.9458 17.2724 63.0794 17.0413 63.1321C16.9305 63.1573 16.8199 63.1558 16.7087 63.1558C15.8628 63.1565 15.0169 63.1562 14.1709 63.1562V63.159C13.3157 63.159 12.4605 63.1597 11.6053 63.158C11.5037 63.1579 11.4002 63.154 11.301 63.1343C11.1326 63.1011 11.0168 62.9994 10.9755 62.8266C10.9138 62.5689 10.9075 62.3076 10.958 62.0488C10.9953 61.8581 11.1202 61.7403 11.3119 61.695C11.4126 61.6713 11.5136 61.6647 11.6162 61.6667C13.2893 61.6971 14.9626 61.6656 16.6357 61.6713C16.7754 61.6717 16.9148 61.6717 17.0518 61.7036C17.2697 61.7542 17.4144 61.8831 17.4736 62.1035C17.528 62.3063 17.5271 62.5093 17.4778 62.7128L17.4776 62.7126Z" fill="white"/>
<path d="M65.864 70.9258C65.7987 70.5131 65.6324 70.1409 65.3768 69.8099C65.099 69.4503 64.7446 69.2119 64.2997 69.1126C64.0177 69.0498 63.7322 69.0135 63.4443 69.0081C63.0638 69.0011 62.683 69.0028 62.3024 69.0041C62.0896 69.0048 62.0849 69.0122 62.0792 69.2224C62.0774 69.2878 62.0785 69.3531 62.0785 69.4183C62.0785 70.0903 62.0785 70.7622 62.0785 71.4341C62.0785 72.106 62.0785 72.7966 62.0785 73.4779C62.0785 73.5432 62.0772 73.6086 62.0795 73.6738C62.0857 73.8529 62.0977 73.8687 62.2682 73.8698C62.6303 73.8722 62.9923 73.8683 63.3544 73.8703C63.6242 73.8718 63.8923 73.8491 64.16 73.8205C64.562 73.7774 64.9067 73.6111 65.2011 73.3343C65.4147 73.1334 65.5734 72.8953 65.6911 72.6274C65.9322 72.0788 65.9558 71.5069 65.8638 70.9256L65.864 70.9258ZM64.9408 71.9374C64.8992 72.1412 64.8212 72.3295 64.7016 72.4995C64.5567 72.7055 64.365 72.8458 64.1193 72.9044C63.7815 72.9849 63.4376 72.9789 63.0939 72.9692C63.0426 72.9678 63.006 72.9376 63.002 72.8839C62.9963 72.8096 62.9944 72.735 62.9943 72.6604C62.9936 72.2496 62.994 71.839 62.994 71.4282C62.994 71.0174 62.9937 70.6254 62.9943 70.2241C62.9943 70.1494 62.9951 70.0747 62.9997 70.0002C63.0029 69.9493 63.03 69.9102 63.0842 69.9074C63.4864 69.8863 63.885 69.9046 64.256 70.0826C64.6479 70.2703 64.8459 70.6097 64.9366 71.0199C65.0038 71.3243 65.0033 71.6313 64.9408 71.9374Z" fill="white"/>
<path d="M39.1552 73.7989C39.1291 73.7296 39.0984 73.6616 39.0639 73.5961C38.7815 73.0599 38.4977 72.5245 38.2145 71.9886C38.1796 71.9227 38.1442 71.8571 38.1129 71.7895C38.0898 71.7392 38.1089 71.7001 38.1573 71.6754C38.1988 71.6544 38.2405 71.6342 38.2819 71.6132C38.697 71.4022 38.9247 71.0616 38.9749 70.5991C39.0503 69.9058 38.7069 69.1303 37.7837 69.0407C37.2729 68.9912 36.7631 69.0132 36.2527 69.0049C36.2343 69.0046 36.2157 69.0072 36.1973 69.0097C36.1446 69.017 36.114 69.0492 36.1108 69.1011C36.1063 69.1756 36.1056 69.2503 36.1056 69.3249C36.1054 70.0253 36.1055 70.7256 36.1055 71.4259C36.1055 72.1263 36.1054 72.8452 36.1058 73.5549C36.1058 73.6295 36.107 73.7042 36.1121 73.7785C36.1157 73.832 36.1508 73.8641 36.2022 73.8655C36.36 73.8697 36.5179 73.8718 36.6757 73.871C37.0653 73.869 37.0322 73.9099 37.0332 73.5076C37.0344 73.0407 37.0332 72.5738 37.034 72.107C37.034 72.0325 37.0382 71.958 37.0442 71.8838C37.0453 71.87 37.0626 71.8512 37.0764 71.8465C37.0903 71.8419 37.1176 71.8465 37.1242 71.8566C37.1694 71.9268 37.2139 71.9979 37.2529 72.0716C37.5148 72.566 37.7752 73.061 38.0362 73.5558C38.071 73.6217 38.1089 73.6863 38.1413 73.7533C38.1823 73.8384 38.2445 73.8745 38.3406 73.8725C38.582 73.8676 38.8237 73.8704 39.0652 73.8694C39.0835 73.8694 39.1022 73.8658 39.12 73.8617C39.1539 73.8538 39.1638 73.822 39.1552 73.7989ZM38.0204 70.6835C37.9685 70.7777 37.8802 70.8281 37.7785 70.858C37.561 70.922 37.3389 70.9132 37.1168 70.9024C37.0598 70.8996 37.0389 70.8554 37.0383 70.8058C37.0354 70.573 37.0349 70.3402 37.034 70.1074C37.034 70.0702 37.0349 70.0326 37.0397 69.9959C37.0466 69.9452 37.0734 69.9086 37.1279 69.9067C37.2019 69.9042 37.276 69.906 37.3499 69.906C37.4799 69.9006 37.6082 69.9103 37.7358 69.9409C38.0338 70.0121 38.1936 70.3695 38.0206 70.6832L38.0204 70.6835Z" fill="white"/>
<path d="M35.2177 73.578C34.7756 72.4193 34.3323 71.2612 33.8893 70.1028C33.7695 69.7892 33.6464 69.4769 33.5309 69.1618C33.4907 69.0519 33.4358 68.9943 33.3088 69.0016C33.1236 69.0121 32.9374 69.0031 32.7517 69.0041C32.5319 69.0054 32.5463 68.994 32.4682 69.1929C32.3454 69.5052 32.2272 69.8195 32.1069 70.1329C31.6661 71.2821 31.2246 72.431 30.7854 73.5807C30.7532 73.665 30.6961 73.7453 30.7209 73.8674C30.9675 73.8755 31.2165 73.8647 31.4647 73.8738C31.5872 73.8783 31.6561 73.8353 31.6899 73.7181C31.7104 73.6468 31.744 73.5793 31.7714 73.5099C31.8398 73.3364 31.9088 73.1632 31.9761 72.9892C32.0063 72.9109 32.0566 72.8698 32.1441 72.8739C32.2275 72.8778 32.3112 72.8739 32.3948 72.8739C32.8777 72.8739 33.3607 72.8763 33.8436 72.8726C33.9523 72.8718 34.0155 72.9105 34.0508 73.0147C34.1017 73.1647 34.1583 73.313 34.2185 73.4595C34.4231 73.9589 34.2709 73.8609 34.8218 73.8705C34.9764 73.8731 35.133 73.8859 35.2906 73.8552C35.303 73.7437 35.2501 73.6629 35.2177 73.578ZM32.4033 71.9519C32.4033 71.9257 32.3955 71.8957 32.4044 71.8721C32.5936 71.3765 32.7846 70.8816 32.9717 70.3956C33.0377 70.3837 33.0543 70.4195 33.0664 70.4509C33.2489 70.92 33.4305 71.3895 33.6107 71.8595C33.6201 71.884 33.6177 71.9131 33.6227 71.9567C33.3183 71.9867 32.6205 71.983 32.4032 71.952L32.4033 71.9519Z" fill="white"/>
<path d="M44.1025 73.5348C43.6534 72.3587 43.2031 71.183 42.7529 70.0072C42.6395 69.7111 42.5238 69.4159 42.4119 69.1193C42.3814 69.0384 42.3307 69.0026 42.2442 69.0038C42.0306 69.0066 41.8169 69.0095 41.6034 69.0022C41.4816 68.9981 41.4086 69.0425 41.3806 69.1617C41.3764 69.1796 41.3661 69.196 41.3594 69.2134C40.7979 70.6762 40.2366 72.1388 39.6755 73.6015C39.6554 73.6537 39.6354 73.7061 39.6195 73.7597C39.5996 73.8265 39.6278 73.8669 39.7002 73.868C39.923 73.8712 40.1462 73.8639 40.3688 73.8742C40.4952 73.88 40.5531 73.8234 40.5935 73.7137C40.6775 73.4862 40.7763 73.2642 40.8553 73.0351C40.9001 72.9051 40.9785 72.8707 41.1056 72.8718C41.6164 72.8766 42.1273 72.8718 42.6382 72.8745C42.9173 72.876 42.8821 72.8372 42.9922 73.1219C43.0763 73.3394 43.1586 73.5575 43.2417 73.7753C43.2636 73.8328 43.3026 73.8687 43.3657 73.8688C43.6343 73.8695 43.9028 73.8691 44.1897 73.8691C44.1901 73.7195 44.1386 73.6287 44.1026 73.5346L44.1025 73.5348ZM41.3069 71.9464C41.2869 71.8987 41.3051 71.8555 41.3222 71.8123C41.5077 71.3458 41.6928 70.8794 41.8799 70.4136C41.8851 70.4009 41.9103 70.3964 41.9262 70.3881C42.1054 70.7494 42.4817 71.7495 42.5124 71.9459C42.2935 71.9879 41.5289 71.9881 41.3068 71.9464H41.3069Z" fill="white"/>
<path d="M51.3917 33.1493C48.8624 33.1678 46.3333 33.1863 43.8041 33.2046C43.6645 33.2055 43.525 33.2069 43.3858 33.2009C43.2648 33.1957 43.1459 33.1743 43.0352 33.1193C42.8829 33.0437 42.7821 32.9165 42.7495 32.7576C42.6981 32.5064 42.5375 32.3502 42.3454 32.2106C42.27 32.1559 42.1956 32.0997 42.1242 32.0401C42.061 31.9874 42.0634 31.9505 42.1278 31.9105C42.1753 31.8811 42.2241 31.8539 42.2735 31.8279C44.3324 30.7449 46.4787 29.8886 48.7345 29.3178C49.781 29.053 50.8395 28.8535 51.9107 28.7172C53.279 28.543 54.652 28.4785 56.0297 28.52C56.8569 28.5449 57.6812 28.6165 58.5042 28.7052C59.0401 28.763 59.5781 28.8019 60.1154 28.8472C60.3193 28.8644 60.5235 28.8763 60.7275 28.8908C60.7461 28.892 60.7646 28.8934 60.783 28.8958C61.1501 28.9437 61.2839 29.1284 61.2157 29.4937C61.2089 29.5304 61.2033 29.5677 61.1921 29.6032C60.9188 30.4764 60.6871 31.3627 60.3708 32.2223C60.3482 32.2836 60.3251 32.3449 60.3034 32.4064C60.147 32.8479 59.8061 33.0353 59.3698 33.09C59.3239 33.0957 59.2769 33.0921 59.2304 33.0925C56.6176 33.1144 54.0046 33.1363 51.3918 33.158C51.3918 33.1552 51.3918 33.1524 51.3918 33.1494L51.3917 33.1493Z" fill="white"/>
<path d="M70.6511 31.4706C70.4611 31.5532 70.2758 31.6376 70.0876 31.715C69.1549 32.0986 68.1876 32.3609 67.1977 32.5423C66.2641 32.7134 65.3231 32.8233 64.3768 32.8896C63.5423 32.9481 62.7077 33.0022 61.8731 33.0587C61.5671 33.0795 61.2612 33.1028 60.955 33.122C60.8303 33.1298 60.8116 33.1037 60.8496 32.9737C60.9594 32.5973 61.0717 32.2216 61.1834 31.8458C61.4308 31.0135 61.6794 30.1816 61.9251 29.349C61.9915 29.1239 61.9995 29.1198 62.2333 29.155C63.2717 29.311 64.3089 29.4732 65.3384 29.6814C66.8723 29.9913 68.3768 30.4008 69.8175 31.0246C70.0563 31.128 70.2914 31.2403 70.5279 31.3493C70.5694 31.3684 70.6171 31.3801 70.6514 31.4706H70.6511Z" fill="white"/>
</g>
<defs>
<clipPath id="clip0_15_1101">
<rect width="91" height="74" fill="white"/>
</clipPath>
</defs>
</svg>
