<svg width="91" height="74" viewBox="0 0 91 74" fill="none" xmlns="http://www.w3.org/2000/svg">
<g clip-path="url(#clip0_15_754)">
<path d="M10.2253 34.3824C10.1982 34.3081 10.2303 34.2485 10.2501 34.1869C10.8318 32.3829 11.401 30.5748 12.02 28.7832C12.0779 28.6156 12.1355 28.4485 12.1753 28.2748C12.2516 27.9409 12.1723 27.6448 11.9749 27.3761C11.9033 27.2788 11.8195 27.1901 11.738 27.1005C10.8981 26.1749 10.0891 25.2226 9.29845 24.2544C9.17302 24.1008 9.06865 23.9387 9.01466 23.7453C8.9629 23.5598 8.96025 23.3797 9.02931 23.1963C9.1546 22.8635 9.30752 22.5438 9.47062 22.2288C9.93006 21.341 10.4491 20.4881 10.9879 19.6475C11.8242 18.343 12.7026 17.0683 13.67 15.8573C13.9145 15.5511 14.1731 15.2573 14.4403 14.9705C14.5464 14.8566 14.6437 14.8427 14.7852 14.8868C15.593 15.1381 16.4019 15.3863 17.2133 15.6257C17.8016 15.7994 18.3946 15.9573 18.9853 16.123C19.4697 16.2589 19.9062 16.1469 20.3005 15.8533C20.5542 15.6643 20.7976 15.4608 21.0428 15.2604C22.5295 14.0464 24.0145 12.8307 25.502 11.6178C25.9063 11.2881 26.318 10.9677 26.725 10.6415C26.8121 10.5716 26.8958 10.4971 26.9774 10.4211C27.2863 10.1331 27.4028 9.77109 27.3684 9.35667C27.318 8.75152 27.2625 8.14665 27.2094 7.54163C27.1588 6.96453 27.109 6.38742 27.0578 5.81046C27.0462 5.68017 27.0289 5.55045 27.0169 5.4203C27.0092 5.33657 27.0038 5.25243 27.0021 5.16842C26.9929 4.70295 27.1468 4.45654 27.5824 4.28544C28.3181 3.9964 29.0588 3.72026 29.7962 3.43528C31.8085 2.65721 33.8201 1.87689 35.8325 1.09881C35.971 1.04524 36.1119 0.996575 36.2548 0.956465C36.5398 0.876526 36.7883 0.957026 36.9998 1.15561C37.0809 1.23176 37.1543 1.31759 37.222 1.40623C38.0608 2.50252 38.9012 3.59754 39.7331 4.69916C39.9605 5.00027 40.2421 5.15229 40.6178 5.12873C41.0817 5.09956 41.5457 5.07376 42.0097 5.04374C42.39 5.01906 42.7698 4.98498 43.1504 4.96437C44.4686 4.89256 45.7864 4.80855 47.1061 4.76802C47.6544 4.75119 48.2026 4.73198 48.7508 4.71024C48.9272 4.70323 49.1037 4.69019 49.279 4.66985C49.753 4.61488 50.1303 4.39217 50.3589 3.96751C50.9656 2.84065 51.6967 1.78896 52.3174 0.670928C52.3992 0.523672 52.4926 0.38497 52.614 0.266183C52.7887 0.0950853 52.9946 0.00785338 53.2398 0.00112166C53.475 -0.00532958 53.7026 0.0444571 53.9311 0.0827438C55.3893 0.32761 56.8358 0.627733 58.2633 1.01761C59.6462 1.39529 61.0022 1.85164 62.3241 2.4094C62.3755 2.43113 62.4256 2.4561 62.478 2.47517C62.6362 2.53267 62.7389 2.64865 62.817 2.79212C62.9354 3.0095 62.9865 3.24132 62.9982 3.48956C63.0536 4.66649 63.0585 5.84398 63.0554 7.02175C63.0552 7.1526 63.0539 7.28344 63.0561 7.41429C63.0634 7.82479 63.2286 8.15464 63.5606 8.39628C63.6509 8.46192 63.7438 8.52418 63.8386 8.58337C66.1372 10.0172 68.4082 11.4944 70.6612 12.9997C70.7771 13.0771 70.8962 13.1513 71.0195 13.2156C71.2974 13.3606 71.5876 13.3811 71.8837 13.2759C71.98 13.2417 72.0743 13.2017 72.1678 13.1604C73.2824 12.6676 74.404 12.1921 75.5442 11.7614C75.6312 11.7286 75.7197 11.6995 75.8061 11.6652C76.0416 11.5717 76.2803 11.5878 76.519 11.6456C76.698 11.6889 76.8295 11.8001 76.9458 11.9422C77.6374 12.7862 78.3369 13.6239 79.0269 14.4691C80.2302 15.943 81.4287 17.4207 82.6283 18.8975C82.6987 18.9842 82.7686 19.0725 82.8268 19.1676C82.9743 19.4083 82.9916 19.6593 82.8624 19.9144C82.8246 19.9891 82.7858 20.0646 82.7384 20.1333C82.0544 21.1234 81.3694 22.1127 80.6835 23.1014C80.5931 23.2317 80.4969 23.3578 80.4032 23.4859C80.1511 23.8303 80.1028 24.2012 80.2606 24.5987C80.2916 24.6768 80.3217 24.7554 80.3569 24.8315C81.1117 26.4676 81.8022 28.1319 82.5143 29.7867C82.5744 29.9264 82.611 30.0686 82.6096 30.2209C82.6086 30.3323 82.5926 30.3556 82.4932 30.3763C82.4568 30.3839 82.42 30.3908 82.3831 30.3939C81.7811 30.4441 81.1823 30.5327 80.577 30.5434C80.5306 30.5442 80.4833 30.5413 80.4378 30.5487C80.1613 30.5934 79.9786 30.4578 79.8295 30.2431C79.7218 30.0881 79.647 29.9184 79.5786 29.7444C78.75 27.636 77.7471 25.6153 76.549 23.6941C74.5918 20.5553 72.1887 17.8093 69.347 15.4507C67.1877 13.6584 64.8666 12.1163 62.3527 10.8712C59.6603 9.53773 56.8401 8.5894 53.8918 8.02463C52.8687 7.82857 51.8388 7.68202 50.8029 7.57291C49.1823 7.40223 47.5582 7.33141 45.9295 7.36885C44.916 7.39213 43.9056 7.46197 42.8974 7.57221C41.0357 7.7757 39.2046 8.13416 37.4043 8.6504C35.0712 9.31951 32.8387 10.2385 30.7091 11.4061C27.2704 13.2914 24.1979 15.6608 21.4941 18.5079C19.0139 21.1195 17.0348 24.078 15.5164 27.3487C14.6378 29.2413 13.9348 31.1983 13.3863 33.2122C13.3398 33.383 13.2863 33.553 13.2218 33.7177C13.0837 34.0708 12.8265 34.2741 12.4451 34.3082C12.3988 34.3123 12.3526 34.3201 12.3063 34.3197C11.7013 34.3155 11.0987 34.368 10.4953 34.3991C10.4043 34.4039 10.3105 34.4227 10.2253 34.3833V34.3824Z" fill="#E80000"/>
<path d="M55.6354 66.8708C54.6034 66.8708 53.5715 66.8711 52.5394 66.8705C52.307 66.8705 52.0758 66.8621 51.846 66.815C51.3434 66.7122 51.0435 66.4104 50.941 65.9082C50.9074 65.7434 50.8859 65.5769 50.8844 65.4078C50.8735 64.2396 50.8692 63.0715 50.8875 61.9032C50.8905 61.7058 50.9203 61.5127 50.977 61.3237C51.0866 60.9601 51.3317 60.7405 51.6938 60.6496C51.8749 60.6041 52.0599 60.591 52.2468 60.5905C53.3439 60.5879 54.441 60.5812 55.538 60.5785C56.6351 60.5758 57.7321 60.5764 58.8292 60.5764C58.95 60.5764 59.0718 60.573 59.1913 60.5872C59.4935 60.6231 59.6341 60.7865 59.6422 61.0887C59.6465 61.2496 59.6118 61.4042 59.5803 61.5598C59.5676 61.6229 59.5279 61.6591 59.4661 61.6624C59.3733 61.6676 59.2803 61.6679 59.1874 61.6679C57.7741 61.668 56.3611 61.6654 54.9478 61.6689C54.2971 61.6704 53.6464 61.6852 52.9955 61.6916C52.7693 61.6939 52.5517 61.7327 52.3446 61.8251C52.2146 61.8832 52.1056 61.9659 52.0307 62.0919C51.784 62.5064 51.9502 62.9548 52.4071 63.1016C52.5504 63.1476 52.6979 63.1572 52.8478 63.1572C54.075 63.1572 55.3022 63.1597 56.5295 63.1607C57.2547 63.1612 57.9798 63.1601 58.705 63.1601C58.7794 63.1601 58.8538 63.1611 58.928 63.1645C58.9958 63.1675 59.0266 63.2095 59.0268 63.2741C59.0273 63.5637 59.0284 63.8535 59.0258 64.1431C59.025 64.2254 58.9936 64.2522 58.9016 64.2574C58.8088 64.2624 58.7158 64.2617 58.6229 64.2617C56.717 64.2624 54.811 64.2626 52.9051 64.2641C52.7565 64.2641 52.6069 64.2638 52.4595 64.279C52.1674 64.3088 52.0279 64.4429 51.9727 64.7307C51.9347 64.928 51.9558 65.1227 52.0166 65.3114C52.0823 65.5154 52.2297 65.6365 52.4351 65.6828C52.5804 65.7156 52.729 65.7278 52.8783 65.726C53.1666 65.7226 53.4547 65.7172 53.7429 65.7169C55.5931 65.7156 57.4432 65.7156 59.2934 65.7153C59.3399 65.7153 59.3865 65.7149 59.4328 65.7177C59.5648 65.7259 59.5836 65.7399 59.5849 65.8633C59.5878 66.1343 59.5876 66.4054 59.5843 66.6763C59.583 66.7818 59.5641 66.7961 59.4531 66.8175C59.2238 66.8619 58.992 66.8715 58.7592 66.8712C57.7179 66.8705 56.6765 66.871 55.6353 66.871L55.6354 66.8708Z" fill="#E80000"/>
<path d="M24.9541 60.6237C26.1532 60.6237 27.3522 60.6237 28.5513 60.6237C28.5792 60.6237 28.6071 60.6241 28.635 60.6242C28.8626 60.6255 28.8488 60.6415 28.862 60.8423C28.8774 61.0752 28.8924 61.3083 28.9026 61.5416C28.9065 61.6301 28.8765 61.6582 28.7892 61.6639C28.7151 61.6686 28.6406 61.6682 28.5662 61.6681C26.447 61.6669 24.3277 61.6658 22.2085 61.6637C22.0408 61.6636 21.8743 61.6681 21.7097 61.7049C21.4466 61.7638 21.2854 61.926 21.2242 62.1872C21.181 62.3714 21.1805 62.5589 21.2156 62.7439C21.2589 62.9708 21.4 63.1082 21.6272 63.1417C21.746 63.1593 21.8679 63.1593 21.9885 63.1593C23.9033 63.1603 25.8181 63.1598 27.7329 63.1598C27.7979 63.1598 27.863 63.1589 27.928 63.16C28.2538 63.1661 28.2238 63.1058 28.3228 63.4882C28.3458 63.5771 28.3491 63.6734 28.3476 63.766C28.3438 63.9912 28.2399 64.1313 28.0261 64.2048C27.8933 64.2505 27.7545 64.2669 27.6145 64.2687C27.4845 64.2703 27.3543 64.2686 27.2242 64.2658C25.8207 64.2365 24.4173 64.2393 23.0137 64.2633C22.6515 64.2695 22.2891 64.2881 21.9272 64.2469C21.8076 64.2333 21.6867 64.24 21.5681 64.2751C21.4138 64.3206 21.3055 64.4146 21.2544 64.5669C21.1654 64.8327 21.1692 65.1007 21.2627 65.3636C21.3273 65.5451 21.465 65.6544 21.6523 65.6863C21.7799 65.7081 21.9109 65.7185 22.0405 65.7185C24.169 65.7187 26.2976 65.7154 28.4263 65.7158C28.921 65.7158 28.8543 65.6593 28.8595 66.1449C28.8616 66.3411 28.8601 66.5373 28.8554 66.7334C28.8535 66.8204 28.8206 66.8509 28.7385 66.8563C28.683 66.8599 28.6271 66.8592 28.5712 66.8592C26.3498 66.8571 24.1282 66.8553 21.9067 66.852C21.6836 66.8518 21.4606 66.8446 21.2377 66.8377C21.1169 66.834 20.9958 66.8233 20.8804 66.7837C20.449 66.6358 20.2204 66.3204 20.1487 65.8786C20.1398 65.8236 20.1387 65.767 20.1376 65.7109C20.112 64.4966 20.0677 63.2823 20.1451 62.0683C20.1511 61.9751 20.1564 61.8818 20.1639 61.7888C20.2029 61.3058 20.4928 60.9921 20.87 60.7396C20.9567 60.6817 21.0583 60.6619 21.1625 60.6596C21.2648 60.6572 21.3669 60.6527 21.4692 60.6513C22.631 60.6354 23.7928 60.6202 24.9544 60.6046C24.9544 60.6108 24.9544 60.6171 24.9544 60.6232L24.9541 60.6237Z" fill="#E80000"/>
<path d="M69.9227 61.1256C69.8647 61.185 69.8335 61.2187 69.8006 61.2504C69.5279 61.5136 69.2008 61.6483 68.8192 61.6545C67.0247 61.6884 65.2303 61.7058 63.4358 61.6594C63.2505 61.6546 63.0648 61.6467 62.8802 61.6873C62.5001 61.7706 62.3178 61.9659 62.2833 62.356C62.2719 62.4854 62.2777 62.6178 62.2887 62.7478C62.34 63.3546 62.3427 63.9608 62.2872 64.5675C62.2685 64.7721 62.2597 64.9767 62.3093 65.1808C62.3755 65.4537 62.5432 65.6197 62.8111 65.6866C62.9285 65.7159 63.0468 65.7399 63.1691 65.7372C63.3272 65.7339 63.4853 65.7358 63.6432 65.7299C65.1958 65.6724 66.7484 65.69 68.3012 65.7217C68.6077 65.728 68.9139 65.7423 69.2198 65.6956C69.329 65.6789 69.443 65.6802 69.5534 65.6896C69.7398 65.7055 69.8602 65.8131 69.9114 65.9937C69.969 66.197 69.9612 66.4016 69.9023 66.6025C69.8464 66.7934 69.7134 66.9014 69.5163 66.9121C69.4059 66.9181 69.2942 66.9018 69.1832 66.8937C69.0536 66.8842 68.9239 66.8592 68.7948 66.8635C67.679 66.9003 66.5631 66.8679 65.4475 66.8722C64.5642 66.8757 63.6808 66.8722 62.7974 66.8708C62.5742 66.8704 62.3521 66.861 62.1321 66.8128C61.6123 66.6986 61.302 66.3835 61.2002 65.858C61.1698 65.7012 61.1525 65.5441 61.1523 65.3848C61.1523 64.2539 61.1526 63.1229 61.1526 61.9919C61.1526 61.7756 61.1801 61.5637 61.2429 61.3562C61.359 60.972 61.6165 60.741 62.0002 60.6492C62.154 60.6124 62.3102 60.5908 62.4696 60.5906C62.8322 60.59 63.1948 60.5831 63.5574 60.5807C65.3706 60.5685 67.1839 60.5757 68.9971 60.59C69.2605 60.5921 69.4655 60.6727 69.6425 60.8576C69.726 60.9448 69.8168 61.0249 69.9227 61.1257V61.1256Z" fill="#E80000"/>
<path d="M45.362 60.588C46.4957 60.588 47.6296 60.5876 48.7634 60.5886C48.8837 60.5886 49.0039 60.5852 49.1231 60.618C49.2971 60.6661 49.3932 60.7789 49.4109 60.9546C49.4327 61.1709 49.3757 61.3814 49.3485 61.5938C49.3435 61.6326 49.3058 61.6565 49.2678 61.6603C49.2032 61.6668 49.1379 61.6679 49.073 61.6679C46.9262 61.6679 44.7793 61.6673 42.6326 61.6666C42.5026 61.6666 42.3734 61.6664 42.2444 61.6934C42.0037 61.7442 41.8473 61.8808 41.776 62.1196C41.7159 62.3213 41.71 62.5259 41.744 62.7297C41.7778 62.9311 41.8986 63.0666 42.1001 63.1166C42.1807 63.1367 42.2638 63.152 42.3465 63.1573C42.4669 63.1649 42.588 63.1625 42.7088 63.1623C44.6233 63.1614 46.5379 63.1601 48.4524 63.1588C48.4895 63.1588 48.5268 63.1584 48.5639 63.159C48.8066 63.1626 48.808 63.1626 48.8098 63.4083C48.8115 63.6418 48.8118 63.8755 48.8086 64.109C48.8069 64.2323 48.785 64.2508 48.6596 64.2591C48.6133 64.2621 48.5667 64.2613 48.5202 64.2613C46.9123 64.264 45.3046 64.2676 43.6968 64.2683C43.3437 64.2683 42.9905 64.2585 42.6375 64.2516C42.4884 64.2487 42.3399 64.2529 42.1937 64.2849C41.9134 64.3463 41.7566 64.5165 41.7273 64.8038C41.715 64.9239 41.7218 65.0462 41.722 65.1676C41.7225 65.644 41.7242 66.1204 41.7248 66.5968C41.7248 66.6433 41.7219 66.6902 41.7167 66.7363C41.7121 66.7774 41.6856 66.8085 41.6458 66.809C41.3489 66.8121 41.0519 66.813 40.7548 66.8119C40.7008 66.8118 40.6747 66.7722 40.6713 66.7202C40.6682 66.6736 40.6668 66.6269 40.6668 66.5802C40.6661 65.151 40.6368 63.7216 40.6791 62.2925C40.6855 62.078 40.7065 61.8637 40.711 61.649C40.7141 61.5019 40.7629 61.3747 40.8447 61.2582C40.9857 61.0574 41.1614 60.8929 41.3712 60.7654C41.5187 60.6758 41.6779 60.6459 41.8497 60.6409C43.0202 60.6064 44.1908 60.5775 45.362 60.5876V60.588Z" fill="#E80000"/>
<path d="M58.4969 72.3108C58.5682 72.2169 58.5856 72.1134 58.618 72.0172C58.9238 71.1058 59.2259 70.1929 59.5319 69.2815C59.6323 68.9823 59.5829 69.0049 59.9169 69.0038C60.075 69.0032 60.2331 69.002 60.391 69.006C60.4968 69.0087 60.5163 69.0257 60.5356 69.1362C60.6094 69.5593 60.6808 69.9828 60.7516 70.4064C60.93 71.4746 61.1075 72.5431 61.2858 73.6114C61.3288 73.8692 61.3296 73.8696 61.0595 73.8713C60.9014 73.8722 60.7433 73.8738 60.5854 73.8701C60.457 73.8672 60.4424 73.856 60.4196 73.7307C60.3647 73.4277 60.3129 73.1238 60.2617 72.82C60.1639 72.2399 60.0673 71.6597 59.9697 71.0797C59.9607 71.0264 59.9619 70.9664 59.8959 70.9406C59.8352 71.0149 59.8189 71.1082 59.7894 71.1957C59.5215 71.9918 59.2541 72.7883 58.9863 73.5846C58.9655 73.6465 58.9413 73.7073 58.9227 73.7699C58.9005 73.845 58.849 73.871 58.7762 73.8706C58.581 73.8697 58.3858 73.8683 58.1906 73.8706C58.1139 73.8714 58.0694 73.8354 58.0458 73.7665C58.0186 73.687 57.992 73.6073 57.9656 73.5275C57.7045 72.7388 57.4439 71.9499 57.1819 71.1616C57.1587 71.0918 57.1264 71.025 57.0948 70.9584C57.0919 70.9522 57.0512 70.9533 57.0486 70.9595C57.035 70.9936 57.0251 71.0298 57.0188 71.066C56.8716 71.9122 56.7206 72.7579 56.5807 73.6054C56.5296 73.9149 56.5021 73.8683 56.2649 73.8707C56.0885 73.8725 55.9118 73.8696 55.7353 73.8661C55.6798 73.8649 55.6497 73.8285 55.6575 73.7744C55.683 73.5988 55.7109 73.4236 55.7408 73.2487C55.9673 71.9234 56.1913 70.5977 56.4241 69.2736C56.472 69.0013 56.4226 69.003 56.7343 69.0035C56.9016 69.0038 57.069 69.007 57.2363 69.0031C57.3366 69.0007 57.3896 69.0463 57.4168 69.14C57.4481 69.2474 57.4872 69.3526 57.5222 69.459C57.8053 70.319 58.0868 71.1794 58.3728 72.0383C58.4016 72.1248 58.409 72.2231 58.4966 72.3106L58.4969 72.3108Z" fill="#E80000"/>
<path d="M75.8185 60.6382C77.1753 60.6382 78.5322 60.6378 79.889 60.6385C80.2538 60.6387 80.2225 60.613 80.2239 60.967C80.2247 61.163 80.2226 61.3592 80.2204 61.5554C80.2197 61.6216 80.1811 61.657 80.1176 61.6633C80.0714 61.6679 80.0248 61.6687 79.9785 61.6696C79.1423 61.6849 78.3062 61.717 77.4702 61.6589C77.3591 61.6512 77.2469 61.6512 77.1359 61.657C77.053 61.6613 76.97 61.6759 76.8889 61.6943C76.6023 61.7591 76.4395 61.9481 76.39 62.2313C76.366 62.3681 76.3584 62.5105 76.3636 62.6496C76.4113 63.9479 76.3819 65.2464 76.3781 66.5448C76.3781 66.5728 76.3783 66.6009 76.3774 66.6288C76.3714 66.8073 76.3716 66.8104 76.1868 66.8236C75.9367 66.8415 75.6862 66.8567 75.4356 66.8675C75.3316 66.872 75.309 66.8446 75.3009 66.7365C75.2974 66.6899 75.2972 66.6432 75.2968 66.5965C75.2905 65.7838 75.2792 64.9711 75.2805 64.1584C75.2812 63.7007 75.3038 63.2433 75.3138 62.7858C75.3177 62.6087 75.3224 62.4318 75.2822 62.2561C75.1987 61.8913 75.0062 61.7047 74.6384 61.6612C74.5101 61.646 74.3779 61.645 74.2489 61.6553C73.4038 61.723 72.5584 61.6885 71.7131 61.67C71.6666 61.669 71.6201 61.6676 71.5738 61.6655C71.5114 61.6626 71.4664 61.6376 71.4615 61.5682C71.4425 61.2981 71.4217 61.0281 71.4067 60.7579C71.4021 60.6737 71.4353 60.6454 71.5253 60.641C71.6087 60.637 71.6925 60.6382 71.7761 60.6382C73.1236 60.6382 74.4713 60.6382 75.8188 60.6382H75.8185Z" fill="#E80000"/>
<path d="M48.542 71.4035C48.8672 71.4035 49.1924 71.402 49.5177 71.4041C49.7578 71.4055 49.7601 71.4097 49.7581 71.6599C49.7562 71.8764 49.7226 72.0893 49.654 72.2932C49.3797 73.1068 48.8675 73.6859 48.0168 73.9014C47.3943 74.0592 46.7767 74.0123 46.1906 73.7449C45.384 73.3769 44.9122 72.7267 44.7678 71.8624C44.575 70.708 45.0767 69.8214 45.8996 69.2797C46.2662 69.0383 46.6773 68.9295 47.1094 68.8975C47.4547 68.872 47.7955 68.909 48.1312 68.9964C48.5939 69.1168 48.9836 69.3592 49.3133 69.7031C49.395 69.7883 49.3978 69.8124 49.3234 69.8879C49.1665 70.0471 49.0074 70.2043 48.8466 70.3594C48.7793 70.4242 48.7556 70.4203 48.6804 70.3598C48.5644 70.2666 48.4552 70.1625 48.3303 70.0837C47.8564 69.7841 47.3406 69.6989 46.8069 69.8667C45.5526 70.2612 45.3123 71.7424 46.1065 72.5492C46.6117 73.0625 47.2225 73.19 47.902 73.0103C48.2423 72.9204 48.4876 72.6963 48.6536 72.3854C48.6871 72.3228 48.6606 72.2767 48.5875 72.2732C48.4947 72.2687 48.4018 72.269 48.3088 72.2685C48.0301 72.2676 47.7513 72.2698 47.4725 72.2657C47.3392 72.2638 47.3196 72.2446 47.3175 72.1235C47.314 71.9275 47.3143 71.7313 47.318 71.5352C47.3199 71.4283 47.3408 71.4073 47.455 71.4065C47.8173 71.4035 48.1798 71.4053 48.5421 71.4053V71.4037L48.542 71.4035Z" fill="#E80000"/>
<path d="M29.8492 69.8209C29.6657 70.0021 29.481 70.1847 29.296 70.367C29.2494 70.4128 29.201 70.419 29.1502 70.3719C29.1025 70.3274 29.0553 70.2821 29.005 70.2409C28.5288 69.8526 27.989 69.7001 27.3875 69.8353C26.7877 69.9701 26.3663 70.3363 26.1845 70.9265C26.0008 71.523 26.1181 72.0777 26.5541 72.5377C27.0508 73.0618 27.665 73.187 28.3459 73.0149C28.6768 72.9313 28.9197 72.7168 29.0912 72.4214C29.1512 72.3181 29.1238 72.2716 28.9952 72.2702C28.6884 72.267 28.3816 72.2692 28.0748 72.2678C28.0007 72.2674 27.9263 72.2634 27.8525 72.2572C27.8109 72.2537 27.7836 72.2245 27.7834 72.1834C27.782 71.9502 27.7823 71.7168 27.7847 71.4835C27.7851 71.4426 27.813 71.4154 27.8553 71.4117C27.9015 71.4074 27.9479 71.4042 27.9943 71.4041C28.6637 71.4037 29.3331 71.4037 30.0025 71.4039C30.0397 71.4039 30.0769 71.4052 30.114 71.408C30.1675 71.4121 30.1968 71.4429 30.204 71.4958C30.2259 71.6553 30.2131 71.815 30.1835 71.9702C30.0229 72.8144 29.5914 73.4721 28.7837 73.7954C27.9396 74.1334 27.1003 74.0498 26.3233 73.5669C25.7312 73.1989 25.3837 72.6403 25.2423 71.9638C25.0923 71.246 25.2066 70.5684 25.6402 69.9634C26.1163 69.2992 26.7687 68.9522 27.577 68.8965C27.9323 68.872 28.2827 68.9112 28.626 69.0066C29.0863 69.1344 29.4729 69.3832 29.7972 69.7326C29.8154 69.7523 29.8253 69.7796 29.8493 69.821L29.8492 69.8209Z" fill="#E80000"/>
<path d="M50.6096 71.4355C50.6096 70.7072 50.6088 69.9789 50.6102 69.2508C50.6107 69.0067 50.6135 69.0044 50.8587 69.0039C51.5739 69.0027 52.289 69.0035 53.0042 69.0038C53.0506 69.0038 53.097 69.0056 53.1433 69.0081C53.1952 69.0111 53.2356 69.038 53.2393 69.0899C53.2572 69.332 53.2568 69.5745 53.2396 69.8167C53.2357 69.8715 53.1943 69.8944 53.1438 69.8966C53.0695 69.8998 52.9953 69.9008 52.9211 69.9009C52.5589 69.9014 52.1965 69.9009 51.8343 69.9012C51.7693 69.9012 51.7043 69.9033 51.6393 69.9039C51.5723 69.9044 51.5331 69.9412 51.5321 70.005C51.5289 70.2288 51.5287 70.4529 51.531 70.6768C51.5317 70.7386 51.5645 70.7818 51.6336 70.7829C51.7078 70.7842 51.7822 70.7862 51.8564 70.7862C52.2279 70.7864 52.5995 70.786 52.971 70.7867C53.0359 70.7867 53.1009 70.7893 53.1655 70.7946C53.2058 70.7979 53.2347 70.8239 53.2384 70.8651C53.2593 71.1073 53.2541 71.3498 53.2413 71.592C53.2386 71.6428 53.2029 71.6759 53.1493 71.6783C53.0753 71.6816 53.0009 71.6836 52.9267 71.6837C52.5645 71.6843 52.2021 71.6837 51.8399 71.6841C51.7749 71.6841 51.7098 71.6834 51.645 71.6872C51.5614 71.6921 51.5366 71.7195 51.5291 71.8099C51.526 71.8471 51.5257 71.8846 51.5257 71.9219C51.5254 72.1927 51.5235 72.4633 51.5261 72.7342C51.5285 72.9696 51.5309 72.9717 51.7552 72.9729C52.1174 72.9748 52.4798 72.9706 52.842 72.9743C53.3017 72.9787 53.2446 72.9099 53.2498 73.3977C53.2511 73.519 53.2487 73.6404 53.2438 73.7616C53.2413 73.8247 53.2061 73.8645 53.1394 73.8673C53.0838 73.8696 53.0281 73.8711 52.9724 73.8711C52.2758 73.8714 51.5792 73.8713 50.8825 73.8713C50.8454 73.8713 50.8082 73.8721 50.7711 73.8704C50.6296 73.8644 50.6126 73.8515 50.6114 73.7039C50.6084 73.3024 50.6098 72.901 50.6096 72.4995C50.6095 72.1447 50.6096 71.7899 50.6096 71.4352V71.4355Z" fill="#E80000"/>
<path d="M54.4917 73.9467C54.2008 73.9447 53.9852 73.722 53.9883 73.4265C53.9914 73.1334 54.2132 72.9168 54.5068 72.9203C54.7953 72.9238 55.0153 73.1511 55.0116 73.442C55.0078 73.7328 54.7855 73.9487 54.4917 73.9467Z" fill="#E60000"/>
<path d="M57.2677 36.6807C57.6188 36.6554 57.9698 36.6298 58.3208 36.6049C58.4778 36.5936 58.5142 36.6227 58.5181 36.7591C58.5211 36.8622 58.4966 36.8952 58.3946 36.9036C58.1269 36.9256 57.8589 36.9438 57.591 36.9636C57.12 36.9982 56.6488 37.0329 56.1778 37.0674C56.15 37.0694 56.1224 37.072 56.0946 37.0727C55.9738 37.0761 55.9458 37.0528 55.9303 36.9377C55.9131 36.8091 55.9417 36.7702 56.0755 36.7607C56.4729 36.7325 56.8704 36.7072 57.2677 36.6809V36.6807Z" fill="#E20000"/>
<path d="M90.9588 44.4682C90.9556 43.9444 90.9143 43.4227 90.8837 42.9003C90.8638 42.5591 90.8552 42.5947 90.5588 42.6547C89.8937 42.7892 89.2304 42.9325 88.5664 43.0718C88.4754 43.0909 88.3843 43.1093 88.2928 43.1255C88.2233 43.1377 88.1922 43.0923 88.1734 43.0355C88.1542 42.978 88.1552 42.9222 88.2162 42.8903C88.282 42.856 88.3507 42.8268 88.4186 42.7966C88.5887 42.7213 88.7614 42.6514 88.929 42.571C89.3435 42.372 89.7137 42.1085 90.0409 41.7837C90.1956 41.6301 90.2718 41.4504 90.2479 41.2279C90.2218 40.9865 90.2171 40.7423 90.1818 40.5025C90.107 39.9944 90.0208 39.488 89.9347 38.9816C89.8789 38.6537 89.9099 38.6801 89.5723 38.6512C89.4243 38.6384 89.2767 38.6193 89.1289 38.6028C88.9766 38.5857 88.8671 38.515 88.823 38.3593C88.8103 38.3146 88.7905 38.2718 88.7736 38.2283C88.5237 37.5831 88.3263 36.9211 88.1568 36.2506C88.1201 36.1057 88.0856 35.9603 88.0502 35.8151C88.0176 35.6814 88.0329 35.5544 88.11 35.439C88.1773 35.3383 88.246 35.2385 88.3183 35.1413C88.5252 34.8635 88.7704 34.6205 89.0134 34.3757C89.0491 34.3398 89.11 34.3112 89.0833 34.2294C89.0328 34.2267 88.9785 34.2211 88.9243 34.2214C88.2165 34.2249 87.5123 34.1612 86.809 34.0952C85.93 34.0126 85.0532 33.9071 84.1784 33.7851C83.1471 33.6414 82.1187 33.4818 81.0992 33.2676C80.7261 33.1892 80.3547 33.1031 79.9935 32.9793C79.9484 32.9638 79.8809 32.9647 79.8731 32.884C79.9389 32.884 80.0034 32.8814 80.0675 32.8847C80.1324 32.8881 80.197 32.8971 80.2618 32.9042C80.3357 32.9124 80.4092 32.9243 80.4835 32.9288C80.5411 32.9323 80.6029 32.9483 80.6636 32.916C80.6202 32.8477 80.564 32.8372 80.5135 32.8174C80.0889 32.6518 79.6666 32.4803 79.2392 32.3224C77.1352 31.5453 74.9913 30.8948 72.8318 30.295C70.3588 29.6082 67.8673 28.9962 65.3552 28.4714C63.5442 28.093 61.7267 27.7515 59.8876 27.5357C58.7786 27.4055 57.6667 27.3187 56.5513 27.2869C55.0529 27.2441 53.5587 27.3057 52.069 27.4837C50.8024 27.635 49.552 27.8686 48.3192 28.1967C46.5713 28.6619 44.8883 29.3084 43.2392 30.0472C41.1808 30.9693 39.2098 32.0559 37.2939 33.2457C36.7641 33.5747 36.2417 33.9164 35.7077 34.2381C34.7773 34.7987 33.7761 35.0813 32.6807 35.0542C31.426 35.0232 30.1702 35.027 28.9149 35.0294C27.5201 35.0319 26.126 35.0674 24.7337 35.1633C23.3978 35.2554 22.0664 35.388 20.7386 35.5603C19.6968 35.6955 18.6588 35.8553 17.6243 36.0377C16.0955 36.3073 14.5758 36.6238 13.0642 36.9788C11.5973 37.3232 10.1425 37.7108 8.72089 38.216C7.29707 38.722 5.92571 39.3403 4.6375 40.1375C3.85995 40.6187 3.12439 41.1575 2.43515 41.7597C2.22042 41.9473 1.99872 42.0843 1.69066 42.0862C1.33962 42.0883 1.11081 42.328 1.05486 42.6795C1.01914 42.9037 1.03449 43.1273 1.08639 43.3477C1.1228 43.5021 1.15936 43.6572 1.20819 43.8078C1.26526 43.9841 1.26735 44.1499 1.19215 44.3238C1.12936 44.4686 1.08918 44.6237 1.04286 44.7755C0.963889 45.0342 1.01105 45.272 1.16048 45.4954C1.25451 45.6359 1.36222 45.7648 1.48221 45.8816C1.57834 45.9751 1.59104 46.0643 1.52714 46.1803C1.44161 46.3354 1.36669 46.4964 1.28605 46.6543C1.21015 46.8033 1.19773 46.956 1.24726 47.1163C1.27474 47.2054 1.29721 47.2965 1.31451 47.3881C1.4324 48.0135 1.35037 48.5976 0.955797 49.1158C0.836506 49.2724 0.696844 49.4092 0.549509 49.5386C0.31581 49.7442 0.154104 50.0044 0.00118771 50.271C-0.00243986 50.2774 0.00314102 50.2891 0.00593146 50.3094C0.111131 50.3297 0.219679 50.3537 0.329064 50.3715C0.842784 50.4554 1.35692 50.5363 1.8705 50.6205C3.07207 50.8175 4.27321 51.0161 5.47463 51.2134C6.70354 51.4152 7.93259 51.6166 9.16178 51.8176C9.31763 51.8431 9.47389 51.8662 9.6303 51.8871C9.68527 51.8944 9.71959 51.8547 9.70508 51.8027C9.63699 51.5597 9.55119 51.3232 9.45282 51.0907C8.69648 49.3031 8.49068 47.4544 8.86167 45.5464C9.56668 41.9204 12.308 39.0524 15.8807 38.201C16.8945 37.9593 17.9226 37.7954 18.9541 37.6525C19.9396 37.5159 20.9288 37.4113 21.9197 37.3267C23.1423 37.2222 24.3659 37.1271 25.5902 37.044C26.592 36.9759 27.5949 36.9213 28.598 36.8786C30.0193 36.8182 31.4415 36.7689 32.8642 36.7566C37.1602 36.719 41.4562 36.7053 45.7524 36.7136C48.5886 36.719 51.4248 36.7189 54.2609 36.7213C54.5681 36.7215 54.8734 36.7037 55.1774 36.6517C55.4796 36.6001 55.7843 36.5634 56.0882 36.5216C56.7052 36.4367 57.3221 36.3528 57.9391 36.2684C58.3903 36.2067 58.8415 36.1449 59.2929 36.0836C59.3389 36.0773 59.3852 36.0725 59.4317 36.0698C59.568 36.0618 59.5903 36.0878 59.5727 36.2338C59.5683 36.2708 59.5587 36.3073 59.5538 36.3443C59.5291 36.5294 59.5026 36.7144 59.4821 36.9001C59.4723 36.9887 59.4907 37.0128 59.5799 37.04C59.7043 37.078 59.8306 37.1099 59.9556 37.1459C60.018 37.164 60.0807 37.1823 60.1406 37.2071C60.1787 37.2228 60.1857 37.2609 60.1818 37.3012C60.1786 37.334 60.1571 37.3564 60.1321 37.3606C60.0223 37.3794 59.9119 37.3971 59.8011 37.4073C58.9681 37.4845 58.1348 37.5596 57.3018 37.6355C56.2835 37.7284 55.2651 37.8212 54.2469 37.914C53.2193 38.0077 52.1918 38.1014 51.1642 38.195C49.9329 38.3071 48.7018 38.4193 47.4705 38.5315C46.2392 38.6437 45.008 38.7559 43.7768 38.8681C42.5455 38.9803 41.3143 39.0927 40.0831 39.205C38.8518 39.3172 37.6206 39.4294 36.3894 39.5416C35.1581 39.6538 33.9269 39.7662 32.6956 39.8776C32.5475 39.8911 32.3989 39.8989 32.2504 39.9085C32.1879 39.9125 32.1426 39.8894 32.1268 39.8233C32.1225 39.8052 32.1155 39.7877 32.1108 39.7696C32.0871 39.6776 32.0965 39.6472 32.1726 39.6097C32.256 39.5686 32.3417 39.5323 32.4269 39.4952C32.7169 39.3687 33.0071 39.243 33.2967 39.1161C33.3476 39.0938 33.3986 39.0699 33.4452 39.0402C33.4671 39.0262 33.4796 38.995 33.46 38.9671C33.4503 38.9535 33.434 38.9347 33.421 38.935C33.2729 38.9391 33.1241 38.9399 32.9767 38.9541C32.1069 39.0373 31.2375 39.1249 30.3677 39.2086C29.683 39.2746 28.9979 39.3364 28.313 39.4011C28.1372 39.4176 27.9618 39.4377 27.7863 39.4574C27.7483 39.4616 27.722 39.5123 27.7429 39.5396C27.7767 39.5839 27.8118 39.6274 27.8495 39.6684C29.0735 41.0004 30.2978 42.3322 31.5228 43.6634C31.5647 43.7088 31.598 43.7674 31.666 43.7812C31.6657 43.7812 31.6654 43.7812 31.6651 43.7813H31.6663C31.6671 43.7813 31.6679 43.7816 31.6688 43.7817C31.6649 43.7842 31.6611 43.7866 31.6573 43.7886C31.6534 43.7952 31.6505 43.803 31.6421 43.7977C31.6414 43.7973 31.6411 43.7967 31.6406 43.7963C31.5877 43.8168 31.5403 43.7952 31.4927 43.7597C31.2686 43.5928 31.0405 43.4314 30.8195 43.2604C30.1543 42.7457 29.538 42.1797 29.012 41.5182C28.9022 41.38 28.7772 41.2521 28.6473 41.1326C28.153 40.6785 27.5724 40.4443 26.898 40.4498C26.4275 40.4536 25.9766 40.5571 25.533 40.7025C25.5012 40.7129 25.4609 40.7243 25.4592 40.7906C25.529 40.882 25.6072 40.9855 25.6865 41.0882C26.3453 41.9416 26.8998 42.8564 27.3008 43.8612C27.9435 45.4722 28.1133 47.1308 27.8011 48.8396C27.6339 49.7549 27.3462 50.6301 26.9651 51.4762C26.9229 51.5698 26.8812 51.6636 26.8426 51.7587C26.8228 51.8075 26.8518 51.8524 26.9066 51.8547C27.0365 51.8603 27.1667 51.8633 27.2966 51.8634C40.1468 51.8639 52.9969 51.8637 65.8472 51.8637C65.9774 51.8637 66.1075 51.8643 66.2377 51.8629C66.284 51.8623 66.3304 51.8587 66.3764 51.8531C66.4198 51.8479 66.4455 51.8174 66.4353 51.7766C66.4152 51.6953 66.3878 51.6158 66.3615 51.5361C66.1705 50.9601 65.9765 50.3853 65.8066 49.8024C65.4687 48.6434 65.4076 47.4708 65.5949 46.2793C65.7346 45.3913 65.9541 44.5232 66.2026 43.6614C66.2801 43.3923 66.3645 43.1251 66.4421 42.856C66.4711 42.7554 66.4424 42.7194 66.3376 42.7108C66.2821 42.7063 66.2261 42.7058 66.1705 42.7048C65.2779 42.6889 64.3856 42.6623 63.493 42.6596C61.0471 42.6525 58.6033 42.7208 56.1632 42.9032C55.2918 42.9684 54.4215 43.0421 53.552 43.1306C52.2294 43.2652 50.9115 43.4332 49.5971 43.6321C47.8688 43.8935 46.1517 44.2134 44.4448 44.5912C40.8439 45.3884 37.3223 46.4493 33.8863 47.7942C33.159 48.0789 32.4403 48.3857 31.7179 48.683C31.67 48.7026 31.6058 48.7068 31.6046 48.7942C31.6492 48.7967 31.6933 48.8023 31.7373 48.8012C32.7132 48.7781 33.6893 48.7569 34.6651 48.7291C35.0554 48.718 35.4455 48.6971 35.8352 48.6722C36.8742 48.6057 37.9129 48.5349 38.9518 48.4652C39.564 48.4241 40.1761 48.3829 40.7882 48.3402C41.799 48.2697 42.8097 48.1976 43.8204 48.1268C44.414 48.0851 45.0075 48.0449 45.601 48.0032C46.5933 47.9335 47.5853 47.8624 48.5776 47.7931C49.1989 47.7498 49.8204 47.7093 50.4419 47.6665C51.4064 47.6002 52.3709 47.534 53.3353 47.4658C53.8823 47.4272 54.43 47.3943 54.9758 47.342C55.5226 47.2896 56.06 47.1826 56.5849 47.0142C57.6716 46.6656 58.5341 46.0245 59.1427 45.0481C59.1771 44.993 59.214 44.9385 59.2563 44.8895C59.3064 44.8315 59.3251 44.8275 59.4719 44.7992C59.4635 44.8386 59.4597 44.8751 59.4479 44.9087C59.245 45.4836 58.9868 46.0308 58.6393 46.5332C57.9981 47.4602 57.1375 48.0728 56.0512 48.365C55.5908 48.4889 55.122 48.5586 54.6472 48.5716C53.2344 48.6102 51.8226 48.6692 50.4108 48.7354C49.1013 48.7969 47.7914 48.8494 46.4817 48.9048C45.1441 48.9615 43.8063 49.0172 42.4688 49.0726C41.1032 49.1292 39.7376 49.1866 38.372 49.2407C36.9134 49.2987 35.4547 49.3514 33.9961 49.4094C32.1556 49.4828 30.3144 49.4396 28.4736 49.4305C28.4327 49.4303 28.3786 49.4474 28.3474 49.3592C28.3685 49.3451 28.4003 49.3268 28.4288 49.3043C28.7431 49.0552 29.0713 48.8286 29.4201 48.629C31.0277 47.7093 32.6336 46.7867 34.2367 45.8593C36.0915 44.7863 37.9962 43.8148 39.962 42.9633C43.6047 41.3854 47.3794 40.2455 51.2752 39.5064C53.3686 39.1092 55.479 38.8385 57.6021 38.6697C58.6681 38.5848 59.7361 38.5304 60.805 38.5032C62.5252 38.4595 64.2451 38.476 65.9641 38.558C66.382 38.578 66.7991 38.6098 67.2169 38.6334C67.8479 38.669 68.4777 38.7296 69.1106 38.7311C69.7064 38.7326 70.2995 38.7095 70.889 38.6105C71.3766 38.5286 71.8494 38.3954 72.3192 38.2442C73.8763 37.7428 75.4582 37.6538 77.053 38.0149C79.4697 38.5621 81.4063 39.8627 82.8306 41.8929C84.3585 44.0705 84.8638 46.4904 84.3728 49.1124C84.2715 49.6537 84.1406 50.1895 84.0237 50.7279C83.9594 51.0239 83.9832 50.9955 84.2366 50.9303C85.518 50.6008 86.7654 50.1727 87.9702 49.6225C88.8092 49.2395 89.6181 48.8006 90.4 48.3096C90.5966 48.1862 90.7166 48.0287 90.7482 47.7994C90.7648 47.6793 90.7886 47.56 90.8075 47.4401C90.8705 47.0438 90.9565 46.6504 90.956 46.246C90.956 46.1809 90.9564 46.1143 90.9996 46.0587V44.7127C90.9528 44.6368 90.9586 44.5507 90.9581 44.4678L90.9588 44.4682ZM31.6668 43.7813C31.6681 43.7812 31.6692 43.7809 31.6706 43.7807C31.6702 43.781 31.6697 43.7813 31.6693 43.7816C31.6685 43.7813 31.6677 43.7813 31.6668 43.7813ZM61.4031 33.7773C60.7023 33.8659 60.0014 33.9528 59.2998 34.0345C58.7274 34.1011 58.1545 34.1642 57.5809 34.2192C56.7944 34.2946 56.0075 34.3659 55.2201 34.4295C54.6178 34.4782 54.0146 34.5161 53.4115 34.5522C52.1679 34.6267 50.9242 34.6974 49.6804 34.7682C49.2905 34.7904 48.9004 34.8102 48.5105 34.8276C47.4516 34.875 46.3927 34.9215 45.3337 34.9665C43.9588 35.0249 42.584 35.0813 41.2091 35.1386C39.8901 35.1936 38.5709 35.2479 37.2519 35.3044C36.7132 35.3275 36.1746 35.357 35.6359 35.3807C35.4875 35.3873 35.3382 35.3895 35.1899 35.3824C35.0423 35.3753 34.8952 35.354 34.7447 35.3387C34.7546 35.2782 34.7955 35.2874 34.8232 35.286C35.5956 35.2466 36.2928 34.977 36.9426 34.5737C37.3062 34.3479 37.6605 34.1068 38.0151 33.8667C38.4162 33.5952 38.8162 33.3223 39.2491 33.1037C39.5511 32.9512 39.5398 32.9338 39.6183 33.2741C39.6729 33.5107 39.7238 33.7481 39.7816 33.9838C39.8216 34.1475 39.8823 34.3043 39.9657 34.4516C40.0814 34.6558 40.245 34.765 40.4891 34.7494C40.6755 34.7375 40.8584 34.7106 41.0407 34.6729C41.25 34.6297 41.46 34.5901 41.6697 34.5487C41.6971 34.5434 41.7241 34.5367 41.7512 34.5301C42.0957 34.4454 42.236 34.2786 42.245 33.9179C42.2505 33.694 42.2378 33.4696 42.2327 33.2453C42.232 33.2174 42.229 33.1892 42.2247 33.1616C42.1686 32.8086 41.9981 32.6543 41.6422 32.6501C41.2704 32.6458 40.8984 32.651 40.5265 32.6518C40.4986 32.6518 40.4702 32.6524 40.4432 32.6472C40.428 32.6442 40.4077 32.6327 40.4028 32.62C40.3977 32.6065 40.4023 32.58 40.4126 32.5714C40.4409 32.548 40.474 32.5298 40.5062 32.5116C42.7096 31.2714 44.9905 30.2071 47.3999 29.4331C48.828 28.9742 50.2825 28.6276 51.7659 28.4086C53.3252 28.1783 54.8933 28.1082 56.4668 28.1849C57.3771 28.2293 58.2815 28.3382 59.1824 28.4793C60.3394 28.6604 61.4948 28.8506 62.6466 29.0625C63.8072 29.276 64.9672 29.4941 66.1272 29.7116C67.0681 29.888 68.0084 30.0678 68.9493 30.2437C69.3714 30.3225 69.7812 30.4385 70.1743 30.6142C70.4069 30.7181 70.6151 30.8533 70.7896 31.0405C70.9166 31.1767 71.0469 31.3097 71.1962 31.4655C71.0141 31.6575 70.8562 31.8279 70.6936 31.9936C70.6011 32.0879 70.4884 32.1559 70.3625 32.1957C69.4495 32.4843 68.5416 32.7939 67.593 32.9483C67.0979 33.0289 66.5996 33.0909 66.1024 33.1584C65.3197 33.2647 64.5367 33.3699 63.7535 33.4731C62.9704 33.5763 62.187 33.6784 61.4033 33.7775L61.4031 33.7773ZM76.7899 32.7508C76.1968 32.7943 75.6035 32.8348 75.0103 32.8752C73.8422 32.9547 72.6758 33.0543 71.5174 33.2283C70.5248 33.3774 69.5424 33.5822 68.5637 33.8038C67.6848 34.0028 66.8061 34.2028 65.9274 34.4026C65.8641 34.4171 65.8006 34.4319 65.7382 34.4504C65.6728 34.4698 65.6534 34.5075 65.6655 34.5783C65.6773 34.6461 65.7117 34.6788 65.7798 34.6701C65.9271 34.6511 66.0739 34.6277 66.2206 34.6034C67.4485 34.3998 68.6764 34.1959 69.9042 33.9916C70.8389 33.836 71.7732 33.6796 72.708 33.5247C72.7622 33.5157 72.8177 33.5133 72.8727 33.513C72.884 33.513 72.9018 33.5348 72.9048 33.5491C72.9077 33.5634 72.9003 33.5898 72.8894 33.5954C72.8488 33.6164 72.8061 33.636 72.762 33.6473C72.6721 33.67 72.5805 33.6868 72.4897 33.7059C69.8713 34.2554 67.2529 34.8048 64.6345 35.3546C64.0708 35.473 63.5074 35.5923 62.9439 35.7112C62.9084 35.7187 62.873 35.7325 62.8384 35.7076C62.8507 35.631 62.9206 35.6108 62.9721 35.5753C63.3562 35.3103 63.7664 35.0919 64.189 34.8967C65.1453 34.4546 66.1396 34.119 67.1514 33.8332C68.5751 33.4311 70.0203 33.131 71.4835 32.9152C73.0122 32.6898 74.5467 32.5556 76.0933 32.5908C76.4372 32.5986 76.7804 32.6151 77.1222 32.6549C77.1578 32.6591 77.1928 32.6683 77.2288 32.7006C77.0825 32.7177 76.9367 32.7403 76.7899 32.7511V32.7508ZM90.8921 45.8735C90.5264 46.6486 90.159 47.4229 89.7915 48.197C89.7717 48.2388 89.748 48.2791 89.7219 48.3172C89.7133 48.3298 89.6916 48.3333 89.6668 48.3456C89.5863 48.2951 89.485 48.2667 89.4231 48.1785C89.4145 48.1665 89.4151 48.1422 89.4207 48.1269C89.4366 48.0833 89.456 48.0408 89.4763 47.999C89.8406 47.2543 90.2052 46.5098 90.5699 45.7653C90.5904 45.7235 90.6104 45.6812 90.6345 45.6416C90.6608 45.5987 90.697 45.5739 90.7502 45.5983C90.7671 45.606 90.7849 45.6115 90.8018 45.6193C90.9565 45.6913 90.9671 45.714 90.8919 45.8735H90.8921Z" fill="#E80000"/>
<path d="M31.6668 43.7814C31.6466 43.7843 31.6369 43.7913 31.6419 43.7966C31.6475 43.7945 31.6531 43.7919 31.659 43.7888C31.6611 43.7853 31.6634 43.7823 31.6669 43.7814H31.6668Z" fill="#E80000"/>
<path d="M31.6728 43.7826C31.6686 43.7897 31.6644 43.7967 31.6602 43.8039C31.664 43.7963 31.6678 43.7887 31.6716 43.781C31.6716 43.7809 31.6728 43.7826 31.6728 43.7826Z" fill="black"/>
<path d="M83.0431 45.1136C82.6523 43.7527 81.9441 42.5794 80.9253 41.6095C78.9031 39.6841 76.5042 38.867 73.738 39.2907C71.6955 39.6036 69.9772 40.5666 68.6342 42.1477C67.0594 44.0018 66.4231 46.1502 66.8544 48.5635C67.2592 50.8282 68.4208 52.6377 70.289 53.9727C71.3631 54.7403 72.5649 55.1839 73.8771 55.3286C74.2855 55.3736 74.6935 55.3728 75.1024 55.3759C75.2326 55.3759 75.3627 55.375 75.4928 55.3759C76.2142 55.381 76.9198 55.2733 77.6077 55.0581C79.3101 54.525 80.664 53.504 81.7044 52.0599C82.5784 50.8468 83.0913 49.4894 83.2607 48.0003C83.3717 47.0233 83.3152 46.061 83.0431 45.1136ZM72.6859 47.7819C72.5046 47.8219 72.3224 47.8574 72.1405 47.8942C71.3946 48.0451 70.6489 48.1962 69.9028 48.3464C69.8222 48.3627 69.7406 48.3737 69.5969 48.3976C69.7201 48.2183 69.8424 48.1357 69.9634 48.0534C70.2985 47.8257 70.6729 47.6884 71.0614 47.5892C71.5421 47.4665 72.0311 47.4286 72.5257 47.4619C72.5812 47.4657 72.6369 47.4699 72.692 47.4779C72.7648 47.4885 72.8052 47.5302 72.8133 47.6072C72.8248 47.7163 72.8013 47.7565 72.6859 47.782V47.7819ZM76.7624 46.333C76.6811 46.2697 76.6747 46.2424 76.7393 46.1474C76.9861 45.7851 77.2353 45.4245 77.4835 45.0633C77.9851 44.3329 78.489 43.6042 78.9868 42.8711C79.1492 42.632 79.163 42.6926 78.9598 42.4529C78.8574 42.3323 78.7482 42.2165 78.6341 42.1071C78.5677 42.0434 78.4896 41.9891 78.4092 41.9441C78.2743 41.8685 78.1388 41.8859 78.017 41.9783C77.9202 42.0518 77.8374 42.1414 77.7695 42.2425C77.6343 42.4438 77.497 42.6438 77.3689 42.8495C76.8464 43.689 76.3271 44.5305 75.8061 45.3708C75.7623 45.4415 75.7148 45.5097 75.6571 45.5968C75.609 45.5754 75.5817 45.5675 75.5588 45.5526C75.3865 45.4394 75.3851 45.4381 75.4767 45.2422C75.9949 44.135 76.5145 43.0283 77.0314 41.9205C77.0779 41.8208 77.1421 41.726 77.1503 41.6095C77.1239 41.5914 77.1031 41.5712 77.0782 41.561C75.7993 41.0353 74.5132 41.0043 73.2197 41.5058C73.1937 41.5159 73.1661 41.5236 73.1425 41.538C73.0979 41.5649 73.0804 41.6053 73.1001 41.6563C73.1236 41.7173 73.1476 41.7781 73.1729 41.8382C73.6323 42.9309 74.092 44.0234 74.5516 45.116C74.5697 45.1591 74.5877 45.2021 74.6069 45.2446C74.7138 45.4808 74.6905 45.4812 74.4524 45.5864C74.4144 45.6031 74.3786 45.5847 74.3572 45.5505C74.3177 45.4874 74.2803 45.4227 74.2441 45.3576C73.6221 44.241 73.0012 43.1237 72.3781 42.0076C72.1928 41.6758 72.2617 41.7249 71.9105 41.8104C71.7301 41.8543 71.553 41.9128 71.3873 42.0005C71.0904 42.1578 71.0224 42.331 71.1347 42.6449C71.2076 42.8488 71.3222 43.0309 71.4391 43.2105C71.7343 43.6638 72.033 44.1147 72.3306 44.5664C72.6334 45.026 72.9366 45.4853 73.2395 45.9447C73.2755 45.9993 73.3126 46.0531 73.346 46.1092C73.3931 46.1886 73.3885 46.2197 73.3228 46.2788C73.2953 46.3035 73.2649 46.3256 73.2338 46.3455C73.1981 46.3684 73.1619 46.3628 73.1337 46.3315C73.0714 46.2624 73.0096 46.1927 72.9499 46.1211C72.2203 45.2483 71.4911 44.3751 70.7619 43.5021C70.7081 43.4377 70.6533 43.3742 70.5978 43.3113C70.5618 43.2707 70.5188 43.2632 70.4771 43.3005C70.4285 43.344 70.3825 43.3904 70.337 43.4371C69.7065 44.0848 69.2853 44.8559 69.0079 45.7122C68.7973 46.3629 68.6728 47.0326 68.5719 47.7074C68.5362 47.9466 68.5006 48.1857 68.4632 48.4366C68.3739 48.4059 68.3649 48.3408 68.3459 48.2847C68.0613 47.4463 68.0338 46.5966 68.2743 45.747C69.0058 43.1631 70.9544 41.2677 73.4544 40.6815C75.4896 40.2042 77.3865 40.5746 79.1099 41.7712C79.8305 42.2714 80.3968 42.9252 80.8736 43.6611C80.9507 43.7802 80.9687 43.8764 80.8693 43.9833C80.844 44.0103 80.8256 44.0437 80.801 44.0715C80.7735 44.1025 80.7366 44.1109 80.7011 44.0896C80.6455 44.056 80.5922 44.0185 80.539 43.9809C80.2958 43.8088 80.0538 43.635 79.8097 43.4642C79.6536 43.3548 79.6522 43.3564 79.5156 43.5028C79.4775 43.5437 79.4412 43.5864 79.4039 43.628C78.632 44.4887 77.8602 45.3494 77.0883 46.21C77.0572 46.2447 77.027 46.2803 76.9946 46.3138C76.8975 46.4148 76.8696 46.4168 76.762 46.3328L76.7624 46.333ZM80.7073 50.9026C80.6817 50.9471 80.6383 50.9625 80.588 50.9395C80.5458 50.9203 80.5036 50.9008 80.4621 50.88C79.5897 50.4433 78.7175 50.0063 77.8451 49.5697C77.6128 49.4535 77.6139 49.4606 77.7412 49.2169C77.772 49.158 77.8179 49.1419 77.8792 49.1738C77.9286 49.1996 77.9798 49.2219 78.0296 49.2469C78.8851 49.6756 79.7407 50.1045 80.5961 50.5339C80.654 50.5629 80.7119 50.593 80.7656 50.629C80.785 50.642 80.7918 50.6739 80.8065 50.7009C80.7731 50.7699 80.7441 50.8387 80.7073 50.9028V50.9026ZM81.6694 49.3988C81.6294 49.5099 81.5977 49.6278 81.4735 49.7718C81.4735 49.6263 81.4759 49.5427 81.4731 49.4591C81.4628 49.1483 81.3134 48.9271 81.0326 48.8032C80.906 48.7472 80.7717 48.7044 80.637 48.672C79.4724 48.3915 78.3195 48.0669 77.1641 47.7519C77.1283 47.7421 77.0916 47.7355 77.056 47.7247C76.8866 47.6731 76.8766 47.6548 76.9223 47.4887C76.953 47.377 76.9668 47.3641 77.0754 47.3816C77.6252 47.4703 78.1756 47.5554 78.7241 47.6523C79.4736 47.7846 80.2213 47.9264 80.9699 48.0639C80.9972 48.069 81.0248 48.0728 81.0524 48.077C81.2525 48.1069 81.2638 48.0984 81.269 47.9077C81.2708 47.8424 81.2697 47.777 81.2697 47.7116C81.2697 46.8808 81.2697 46.0502 81.2697 45.2194C81.2697 45.1354 81.2683 45.0512 81.2723 44.9673C81.2744 44.9244 81.2623 44.8638 81.3231 44.8536C81.375 44.8449 81.4007 44.8961 81.4254 44.9328C81.4825 45.0177 81.5392 45.1032 81.5889 45.1926C81.6797 45.3561 81.7443 45.5308 81.8007 45.7091C81.9081 46.049 81.9684 46.3988 81.9963 46.7522C82.0679 47.656 81.9782 48.5417 81.6693 49.3985L81.6694 49.3988Z" fill="#E80000"/>
<path d="M26.4238 45.4515C25.8351 42.7694 23.8826 40.5856 21.2843 39.6584C19.9714 39.19 18.624 39.0697 17.2445 39.2546C16.05 39.4148 14.926 39.7808 13.8872 40.3966C12.327 41.3218 11.1974 42.6241 10.5546 44.3311C10.0244 45.7388 9.87123 47.1951 10.086 48.6868C10.2924 50.1203 10.8547 51.3992 11.8061 52.4857C13.4946 54.4139 15.642 55.3411 18.1866 55.3637C18.2795 55.3637 18.3726 55.3645 18.4655 55.3637C19.3171 55.3548 20.1506 55.2261 20.9627 54.9679C25.043 53.6701 27.3323 49.5901 26.4237 45.4515H26.4238ZM11.8615 49.431C11.8552 49.5101 11.8801 49.5953 11.8375 49.6695C11.756 49.6596 11.7496 49.5929 11.7273 49.5481C11.5635 49.2204 11.4563 48.8723 11.3924 48.5127C11.23 47.5986 11.2611 46.6902 11.5015 45.7921C11.5864 45.4755 11.7038 45.1711 11.875 44.8901C11.9041 44.8424 11.9349 44.7955 11.9682 44.7511C11.984 44.7301 12.0069 44.7057 12.0372 44.7254C12.0499 44.7337 12.0602 44.7552 12.0609 44.7711C12.0648 44.855 12.0665 44.9392 12.0666 45.0232C12.0669 45.9291 12.0666 46.8353 12.067 47.7412C12.067 47.8252 12.0676 47.9094 12.073 47.9931C12.0773 48.0592 12.1163 48.0934 12.1853 48.0841C12.3417 48.0634 12.4977 48.0384 12.653 48.0104C13.7407 47.8139 14.8282 47.6163 15.9157 47.4192C15.9615 47.411 16.0078 47.4063 16.0536 47.3982C16.2915 47.3557 16.2694 47.3488 16.3247 47.5839C16.348 47.683 16.3276 47.7128 16.2192 47.7408C15.5626 47.9104 14.9055 48.0781 14.2486 48.2465C13.7446 48.3758 13.2403 48.503 12.7373 48.6363C12.5941 48.6741 12.4511 48.7194 12.3159 48.7792C12.0367 48.9027 11.8861 49.1231 11.8618 49.4313L11.8615 49.431ZM12.8686 50.9214C12.8183 50.9472 12.7761 50.9331 12.7512 50.8865C12.7083 50.8061 12.6439 50.7333 12.6476 50.6352C12.6894 50.5764 12.7531 50.5557 12.8101 50.5259C13.7411 50.0387 14.6726 49.5519 15.6039 49.0651C15.6533 49.0393 15.7032 49.0144 15.7535 48.9901C15.8019 48.9667 15.8449 48.9761 15.873 49.0219C15.9023 49.0693 15.9265 49.12 15.9517 49.1698C15.9767 49.2191 15.9614 49.2623 15.9205 49.2925C15.8834 49.3198 15.8407 49.34 15.7997 49.3619C14.8642 49.8609 13.9285 50.3596 12.9929 50.8582C12.9519 50.88 12.91 50.9004 12.8687 50.9216L12.8686 50.9214ZM21.9215 52.837C21.8983 52.8523 21.873 52.8646 21.8479 52.877C21.4641 53.0653 21.0796 53.2523 20.6963 53.4419C20.1579 53.7083 19.5861 53.8635 18.9967 53.9605C18.6382 54.0196 18.277 54.0421 18.0287 54.0473C16.5102 54.0615 15.2723 53.6046 14.1892 52.7129C14.0088 52.5645 13.8515 52.3944 13.7125 52.2051C13.5928 52.042 13.6124 51.8727 13.6629 51.6981C13.6693 51.6759 13.6983 51.6483 13.7204 51.6447C13.8976 51.6146 14.063 51.6096 14.2129 51.7515C14.5384 52.0596 14.8992 52.3234 15.2854 52.5506C16.3106 53.1535 17.417 53.397 18.6001 53.3166C19.5266 53.2537 20.412 53.0195 21.2787 52.6993C21.3571 52.6703 21.4347 52.6386 21.5138 52.6119C21.6959 52.5508 21.8358 52.6008 21.9414 52.7656C21.9565 52.7892 21.9474 52.82 21.9213 52.8373L21.9215 52.837ZM23.4847 48.3481C22.474 48.1537 21.4634 47.9582 20.453 47.7616C20.4189 47.755 20.387 47.7373 20.3475 47.7222C20.6977 47.4948 21.4038 47.4369 22.0904 47.5734C22.7134 47.6972 23.315 48.0132 23.5334 48.3315C23.517 48.3374 23.4993 48.3509 23.4847 48.3481ZM24.9877 48.1774C24.9688 48.2493 24.9456 48.3203 24.9205 48.3903C24.916 48.4028 24.8917 48.4157 24.8777 48.4147C24.8636 48.4137 24.8496 48.3965 24.8377 48.3843C24.8317 48.3781 24.8302 48.3674 24.827 48.3586C24.7112 48.0416 24.6195 47.7205 24.6176 47.3777C24.6149 46.8991 24.5446 46.4281 24.4281 45.9646C24.1766 44.9633 23.679 44.0997 22.9743 43.3527C22.9488 43.3256 22.9213 43.3004 22.8956 43.2733C22.8563 43.2318 22.8126 43.2317 22.7753 43.27C22.7236 43.3233 22.6768 43.3817 22.6291 43.4391C21.8171 44.4131 21.0052 45.3872 20.1932 46.3612C20.1455 46.4185 20.099 46.4771 20.0491 46.5323C19.979 46.6097 19.9476 46.6114 19.8595 46.5497C19.7739 46.4898 19.7651 46.457 19.8211 46.3645C19.879 46.2688 19.9418 46.1761 20.0025 46.082C20.7299 44.9529 21.4578 43.8241 22.1846 42.6945C22.3504 42.4369 22.3598 42.4745 22.0896 42.3028C21.8146 42.1282 21.5385 41.9556 21.2614 41.7844C21.1782 41.733 21.1566 41.7398 21.1033 41.8205C21.0623 41.8828 21.0243 41.9472 20.9862 42.0114C20.3387 43.1025 19.6915 44.1936 19.0441 45.2847C19.0108 45.3408 18.9785 45.3978 18.9422 45.4519C18.8923 45.5265 18.8658 45.5324 18.7786 45.4966C18.6211 45.4321 18.6098 45.4097 18.6797 45.2463C19.0984 44.2682 19.5185 43.2909 19.9383 42.3132C20.023 42.116 20.11 41.9198 20.1925 41.7217C20.2461 41.5928 20.2374 41.5744 20.1006 41.5157C19.8003 41.3869 19.4888 41.2942 19.168 41.2345C18.3381 41.0798 17.5207 41.1537 16.7119 41.3733C16.5506 41.4171 16.3907 41.4674 16.2319 41.5196C16.1423 41.549 16.1281 41.5823 16.1612 41.6646C16.1959 41.7511 16.2351 41.836 16.2733 41.9211C16.7936 43.0787 17.314 44.2363 17.8344 45.3938C17.8498 45.4279 17.8657 45.4617 17.8799 45.4962C17.9356 45.6304 17.9283 45.6515 17.8057 45.716C17.6801 45.782 17.6564 45.7795 17.583 45.6561C17.2588 45.1108 16.9372 44.564 16.6147 44.0178C16.1879 43.2947 15.7614 42.5716 15.3345 41.8486C15.3013 41.7924 15.2674 41.7365 15.2307 41.6825C15.189 41.6211 15.1528 41.6156 15.0941 41.6695C14.7781 41.9591 14.4629 42.2496 14.1497 42.542C14.0809 42.6062 14.0807 42.6278 14.1386 42.7108C14.454 43.1618 14.7708 43.6116 15.0875 44.0615C15.5383 44.7021 15.9895 45.3426 16.4405 45.9831C16.4727 46.0289 16.5061 46.0739 16.5359 46.1213C16.5997 46.2222 16.597 46.2395 16.5027 46.3363C16.4839 46.3556 16.4578 46.368 16.4349 46.3835C16.339 46.3514 16.2887 46.2683 16.2253 46.2022C15.4508 45.3948 14.6997 44.566 13.9788 43.7096C13.9368 43.6597 13.8942 43.6101 13.8512 43.5611C13.6798 43.3656 13.6968 43.3806 13.4942 43.5211C13.2493 43.6908 13.0053 43.8617 12.7604 44.0312C12.7224 44.0576 12.6833 44.0851 12.6407 44.1015C12.6134 44.112 12.5837 44.0875 12.59 44.0567C12.6049 43.984 12.624 43.9114 12.6483 43.8412C12.8252 43.3289 13.1226 42.8916 13.4883 42.499C14.1088 41.833 14.8534 41.3506 15.6905 41.0074C18.2446 39.9602 21.2194 40.5523 23.1848 42.4969C24.0301 43.3331 24.6414 44.31 24.9587 45.4644C25.2065 46.3659 25.2267 47.2706 24.9879 48.1775L24.9877 48.1774Z" fill="#E80000"/>
<path d="M39.131 61.8198C39.1204 61.6901 39.0968 61.5606 39.0683 61.4336C38.9673 60.9818 38.6764 60.7302 38.2329 60.6384C38.0219 60.5948 37.8093 60.5831 37.5953 60.5831C36.5543 60.5828 35.5132 60.583 34.4722 60.583V60.5722C33.4312 60.5722 32.3901 60.5719 31.3491 60.5725C31.2191 60.5725 31.0884 60.5692 30.959 60.58C30.5681 60.6126 30.3691 60.8137 30.3422 61.2043C30.3326 61.3438 30.3365 61.4845 30.3382 61.6244C30.3542 63.0632 30.3566 64.5021 30.3365 65.9409C30.3348 66.0622 30.3372 66.1838 30.3407 66.3051C30.3436 66.4089 30.3673 66.5082 30.4114 66.6028C30.4798 66.7494 30.5926 66.839 30.7514 66.8616C30.9582 66.891 31.1588 66.8509 31.3557 66.7899C31.4016 66.7757 31.4337 66.7396 31.4397 66.6882C31.444 66.6512 31.4465 66.6138 31.4467 66.5765C31.4497 66.072 31.4708 65.5675 31.4366 65.0634C31.4284 64.9418 31.4313 64.8214 31.456 64.701C31.5051 64.4613 31.6536 64.3257 31.8874 64.2853C31.9874 64.268 32.091 64.2657 32.1928 64.2654C33.048 64.263 33.9031 64.2612 34.7582 64.2627C35.0463 64.2631 35.3344 64.2693 35.6223 64.2812C35.7421 64.2861 35.862 64.3079 35.9803 64.3306C36.2432 64.3812 36.4389 64.5299 36.5645 64.7655C36.6344 64.8969 36.6987 65.0326 36.7509 65.1719C36.8227 65.364 36.8794 65.5618 36.9451 65.7563C37.0017 65.9242 37.0507 66.096 37.1226 66.2573C37.39 66.8574 37.7473 66.9503 38.2905 66.8474C38.522 66.8035 38.5291 66.7847 38.4549 66.5471C38.2739 65.9681 38.0907 65.3897 37.9085 64.8111C37.8832 64.731 37.8552 64.6516 37.8333 64.5705C37.8055 64.4683 37.8182 64.4365 37.9085 64.3891C38.0237 64.3285 38.143 64.2756 38.2577 64.214C38.397 64.1393 38.5363 64.064 38.6699 63.9797C38.9383 63.8104 39.089 63.5665 39.1233 63.2464C39.1744 62.7708 39.1702 62.2952 39.1314 61.8198H39.131ZM37.9707 62.7505C37.923 62.945 37.7952 63.0723 37.5951 63.1249C37.4758 63.1563 37.3564 63.1574 37.2358 63.1574C36.3903 63.1579 35.5448 63.1576 34.6993 63.1576V63.1619C33.8446 63.1619 32.9898 63.1625 32.1351 63.1611C32.0427 63.1609 31.9485 63.1584 31.8583 63.1408C31.6575 63.1015 31.5245 62.9775 31.4771 62.7771C31.4227 62.5475 31.4143 62.3143 31.4661 62.0825C31.5134 61.8703 31.6445 61.7422 31.8577 61.6948C31.9957 61.6641 32.1344 61.6662 32.2736 61.6666C33.4814 61.6704 34.6893 61.6755 35.8971 61.6777C36.3338 61.6786 36.7705 61.6704 37.2071 61.6717C37.3271 61.672 37.449 61.6814 37.5668 61.7037C37.7652 61.7413 37.9012 61.8612 37.9595 62.0582C38.0274 62.2871 38.0268 62.5212 37.9707 62.7502V62.7505Z" fill="#E80000"/>
<path d="M18.7004 61.9993C18.6841 61.7822 18.6301 61.576 18.5394 61.3791C18.3117 60.8852 17.9491 60.5962 17.3851 60.6138C17.3294 60.6155 17.2736 60.611 17.2178 60.6106C16.1393 60.6015 15.0608 60.5925 13.9823 60.5834V60.5986C12.8386 60.5986 11.695 60.6016 10.5513 60.5959C10.3348 60.5948 10.1545 60.645 9.9931 60.7967C9.8339 60.9464 9.79135 61.124 9.80739 61.3289C9.80809 61.3382 9.80739 61.3476 9.80711 61.357C9.76889 63.0577 9.77712 64.7588 9.78047 66.4598C9.78061 66.5345 9.77963 66.6094 9.78465 66.6839C9.79051 66.7718 9.81855 66.8027 9.90506 66.8034C10.2119 66.8059 10.5187 66.8059 10.8255 66.8032C10.9079 66.8025 10.9326 66.771 10.9368 66.6772C10.9406 66.5931 10.9396 66.509 10.9398 66.4249C10.94 65.7893 10.9389 65.1538 10.9407 64.5182C10.9413 64.334 10.9502 64.3272 11.1217 64.3087C11.1679 64.3037 11.2143 64.3007 11.2608 64.2992C11.6418 64.2873 12.0227 64.2673 12.4038 64.2661C13.8636 64.2607 15.3233 64.2624 16.7831 64.2589C17.0154 64.2584 17.2477 64.2477 17.4797 64.2365C17.6482 64.2284 17.8098 64.184 17.9652 64.1187C18.249 63.9996 18.4377 63.7925 18.5219 63.4952C18.56 63.3607 18.5892 63.2232 18.6163 63.0859C18.687 62.7273 18.728 62.3662 18.7005 61.9993H18.7004ZM17.4776 62.713C17.4208 62.9462 17.2724 63.0797 17.0413 63.1325C16.9305 63.1577 16.8199 63.1562 16.7087 63.1562C15.8628 63.1569 15.0169 63.1566 14.1709 63.1566V63.1594C13.3157 63.1594 12.4605 63.1601 11.6053 63.1584C11.5037 63.1583 11.4002 63.1544 11.301 63.1347C11.1326 63.1015 11.0168 62.9998 10.9755 62.827C10.9138 62.5693 10.9075 62.308 10.958 62.0492C10.9953 61.8585 11.1202 61.7407 11.3119 61.6954C11.4126 61.6717 11.5136 61.6651 11.6162 61.6671C13.2893 61.6975 14.9626 61.666 16.6357 61.6717C16.7754 61.6721 16.9148 61.6721 17.0518 61.704C17.2697 61.7546 17.4144 61.8835 17.4736 62.1039C17.528 62.3067 17.5271 62.5097 17.4778 62.7132L17.4776 62.713Z" fill="#E80000"/>
<path d="M65.864 70.9261C65.7987 70.5134 65.6324 70.1412 65.3768 69.8102C65.099 69.4506 64.7446 69.2122 64.2997 69.1129C64.0177 69.0501 63.7322 69.0138 63.4443 69.0084C63.0638 69.0014 62.683 69.0031 62.3024 69.0044C62.0896 69.0051 62.0849 69.0125 62.0792 69.2227C62.0774 69.2881 62.0785 69.3534 62.0785 69.4186C62.0785 70.0905 62.0785 70.7625 62.0785 71.4344C62.0785 72.1063 62.0785 72.7968 62.0785 73.4781C62.0785 73.5435 62.0772 73.6089 62.0795 73.6741C62.0857 73.8532 62.0977 73.869 62.2682 73.8701C62.6303 73.8725 62.9923 73.8686 63.3544 73.8706C63.6242 73.8721 63.8923 73.8494 64.16 73.8208C64.562 73.7777 64.9067 73.6114 65.2011 73.3345C65.4147 73.1337 65.5734 72.8956 65.6911 72.6277C65.9322 72.0791 65.9558 71.5072 65.8638 70.9258L65.864 70.9261ZM64.9408 71.9377C64.8992 72.1415 64.8212 72.3298 64.7016 72.4998C64.5567 72.7058 64.365 72.8461 64.1193 72.9047C63.7815 72.9852 63.4376 72.9792 63.0939 72.9695C63.0426 72.9681 63.006 72.9379 63.002 72.8842C62.9963 72.8099 62.9944 72.7353 62.9943 72.6607C62.9936 72.2499 62.994 71.8393 62.994 71.4285C62.994 71.0177 62.9937 70.6257 62.9943 70.2243C62.9943 70.1497 62.9951 70.075 62.9997 70.0005C63.0029 69.9496 63.03 69.9105 63.0842 69.9077C63.4864 69.8866 63.885 69.9049 64.256 70.0828C64.6479 70.2706 64.8459 70.61 64.9366 71.0202C65.0038 71.3246 65.0033 71.6316 64.9408 71.9377Z" fill="#E80000"/>
<path d="M39.1552 73.7992C39.1291 73.7299 39.0984 73.6619 39.0639 73.5964C38.7815 73.0602 38.4977 72.5248 38.2145 71.9889C38.1796 71.923 38.1442 71.8574 38.1129 71.7898C38.0898 71.7396 38.1089 71.7004 38.1573 71.6757C38.1988 71.6547 38.2405 71.6345 38.2819 71.6135C38.697 71.4025 38.9247 71.0619 38.9749 70.5994C39.0503 69.9061 38.7069 69.1306 37.7837 69.041C37.2729 68.9915 36.7631 69.0135 36.2527 69.0052C36.2343 69.0049 36.2157 69.0075 36.1973 69.01C36.1446 69.0173 36.114 69.0495 36.1108 69.1014C36.1063 69.1759 36.1056 69.2506 36.1056 69.3253C36.1054 70.0256 36.1055 70.7259 36.1055 71.4263C36.1055 72.1266 36.1054 72.8455 36.1058 73.5552C36.1058 73.6298 36.107 73.7045 36.1121 73.7788C36.1157 73.8323 36.1508 73.8644 36.2022 73.8658C36.36 73.87 36.5179 73.8721 36.6757 73.8713C37.0653 73.8693 37.0322 73.9103 37.0332 73.5079C37.0344 73.041 37.0332 72.5741 37.034 72.1073C37.034 72.0328 37.0382 71.9583 37.0442 71.8841C37.0453 71.8703 37.0626 71.8515 37.0764 71.8468C37.0903 71.8422 37.1176 71.8468 37.1242 71.8569C37.1694 71.9271 37.2139 71.9982 37.2529 72.0719C37.5148 72.5663 37.7752 73.0614 38.0362 73.5561C38.071 73.622 38.1089 73.6866 38.1413 73.7536C38.1823 73.8387 38.2445 73.8748 38.3406 73.8728C38.582 73.8679 38.8237 73.8707 39.0652 73.8697C39.0835 73.8697 39.1022 73.8661 39.12 73.862C39.1539 73.8542 39.1638 73.8223 39.1552 73.7992ZM38.0204 70.6838C37.9685 70.778 37.8802 70.8284 37.7785 70.8583C37.561 70.9224 37.3389 70.9135 37.1168 70.9027C37.0598 70.8999 37.0389 70.8557 37.0383 70.8061C37.0354 70.5733 37.0349 70.3405 37.034 70.1077C37.034 70.0705 37.0349 70.0329 37.0397 69.9962C37.0466 69.9455 37.0734 69.9089 37.1279 69.907C37.2019 69.9045 37.276 69.9063 37.3499 69.9063C37.4799 69.9009 37.6082 69.9106 37.7358 69.9412C38.0338 70.0124 38.1936 70.3698 38.0206 70.6835L38.0204 70.6838Z" fill="#E80000"/>
<path d="M35.2177 73.5777C34.7756 72.419 34.3323 71.2609 33.8893 70.1025C33.7695 69.7889 33.6464 69.4766 33.5309 69.1614C33.4907 69.0516 33.4358 68.994 33.3088 69.0013C33.1236 69.0118 32.9374 69.0028 32.7517 69.0038C32.5319 69.0051 32.5463 68.9937 32.4682 69.1926C32.3454 69.5049 32.2272 69.8192 32.1069 70.1326C31.6661 71.2818 31.2246 72.4307 30.7854 73.5804C30.7532 73.6647 30.6961 73.745 30.7209 73.867C30.9675 73.8752 31.2165 73.8644 31.4647 73.8735C31.5872 73.878 31.6561 73.8349 31.6899 73.7178C31.7104 73.6465 31.744 73.579 31.7714 73.5096C31.8398 73.3361 31.9088 73.1629 31.9761 72.9888C32.0063 72.9106 32.0566 72.8695 32.1441 72.8736C32.2275 72.8775 32.3112 72.8736 32.3948 72.8736C32.8777 72.8736 33.3607 72.8759 33.8436 72.8723C33.9523 72.8715 34.0155 72.9102 34.0508 73.0144C34.1017 73.1644 34.1583 73.3127 34.2185 73.4592C34.4231 73.9586 34.2709 73.8606 34.8218 73.8701C34.9764 73.8728 35.133 73.8856 35.2906 73.8549C35.303 73.7434 35.2501 73.6626 35.2177 73.5777ZM32.4033 71.9516C32.4033 71.9254 32.3955 71.8954 32.4044 71.8718C32.5936 71.3762 32.7846 70.8813 32.9717 70.3953C33.0377 70.3834 33.0543 70.4191 33.0664 70.4506C33.2489 70.9197 33.4305 71.3892 33.6107 71.8592C33.6201 71.8837 33.6177 71.9127 33.6227 71.9564C33.3183 71.9864 32.6205 71.9827 32.4032 71.9517L32.4033 71.9516Z" fill="#E80000"/>
<path d="M44.1025 73.5345C43.6534 72.3584 43.2031 71.1828 42.7529 70.007C42.6395 69.7109 42.5238 69.4157 42.4119 69.1191C42.3814 69.0382 42.3307 69.0024 42.2442 69.0035C42.0306 69.0063 41.8169 69.0093 41.6034 69.002C41.4816 68.9979 41.4086 69.0422 41.3806 69.1614C41.3764 69.1794 41.3661 69.1958 41.3594 69.2132C40.7979 70.6759 40.2366 72.1385 39.6755 73.6013C39.6554 73.6535 39.6354 73.7059 39.6195 73.7595C39.5996 73.8262 39.6278 73.8666 39.7002 73.8678C39.923 73.871 40.1462 73.8637 40.3688 73.8739C40.4952 73.8798 40.5531 73.8232 40.5935 73.7135C40.6775 73.486 40.7763 73.264 40.8553 73.0348C40.9001 72.9048 40.9785 72.8705 41.1056 72.8716C41.6164 72.8764 42.1273 72.8716 42.6382 72.8743C42.9173 72.8758 42.8821 72.837 42.9922 73.1217C43.0763 73.3392 43.1586 73.5573 43.2417 73.7751C43.2636 73.8326 43.3026 73.8685 43.3657 73.8686C43.6343 73.8693 43.9028 73.8689 44.1897 73.8689C44.1901 73.7192 44.1386 73.6285 44.1026 73.5344L44.1025 73.5345ZM41.3069 71.9461C41.2869 71.8984 41.3051 71.8552 41.3222 71.8121C41.5077 71.3456 41.6928 70.8791 41.8799 70.4134C41.8851 70.4006 41.9103 70.3962 41.9262 70.3879C42.1054 70.7491 42.4817 71.7492 42.5124 71.9457C42.2935 71.9876 41.5289 71.9879 41.3068 71.9461H41.3069Z" fill="#E80000"/>
<path d="M51.3917 33.1488C48.8624 33.1673 46.3333 33.1858 43.8041 33.2041C43.6645 33.2051 43.525 33.2065 43.3858 33.2004C43.2648 33.1952 43.1459 33.1738 43.0352 33.1188C42.8829 33.0432 42.7821 32.916 42.7495 32.7571C42.6981 32.5059 42.5375 32.3497 42.3454 32.2102C42.27 32.1555 42.1956 32.0992 42.1242 32.0396C42.061 31.9869 42.0634 31.95 42.1278 31.91C42.1753 31.8806 42.2241 31.8534 42.2735 31.8274C44.3324 30.7445 46.4787 29.8881 48.7345 29.3174C49.781 29.0526 50.8395 28.853 51.9107 28.7167C53.279 28.5425 54.652 28.478 56.0297 28.5195C56.8569 28.5445 57.6812 28.616 58.5042 28.7048C59.0401 28.7625 59.5781 28.8014 60.1154 28.8467C60.3193 28.8639 60.5235 28.8759 60.7275 28.8903C60.7461 28.8916 60.7646 28.893 60.783 28.8954C61.1501 28.9432 61.2839 29.1279 61.2157 29.4932C61.2089 29.53 61.2033 29.5673 61.1921 29.6027C60.9188 30.4759 60.6871 31.3623 60.3708 32.2218C60.3482 32.2831 60.3251 32.3444 60.3034 32.4059C60.147 32.8474 59.8061 33.0348 59.3698 33.0895C59.3239 33.0952 59.2769 33.0916 59.2304 33.092C56.6176 33.1139 54.0046 33.1358 51.3918 33.1575C51.3918 33.1547 51.3918 33.1519 51.3918 33.149L51.3917 33.1488Z" fill="#E80000"/>
<path d="M70.6511 31.4709C70.4611 31.5535 70.2758 31.638 70.0876 31.7154C69.1549 32.099 68.1876 32.3612 67.1977 32.5427C66.2641 32.7138 65.3231 32.8236 64.3768 32.8899C63.5423 32.9484 62.7077 33.0025 61.8731 33.0591C61.5671 33.0798 61.2612 33.1031 60.955 33.1223C60.8303 33.1302 60.8116 33.1041 60.8496 32.9741C60.9594 32.5977 61.0717 32.2219 61.1834 31.8461C61.4308 31.0139 61.6794 30.182 61.9251 29.3493C61.9915 29.1242 61.9995 29.1202 62.2333 29.1554C63.2717 29.3113 64.3089 29.4736 65.3384 29.6817C66.8723 29.9916 68.3768 30.4012 69.8175 31.025C70.0563 31.1283 70.2914 31.2407 70.5279 31.3496C70.5694 31.3687 70.6171 31.3805 70.6514 31.4709H70.6511Z" fill="#E80000"/>
</g>
<defs>
<clipPath id="clip0_15_754">
<rect width="91" height="74" fill="white"/>
</clipPath>
</defs>
</svg>
