<svg width="221" height="240" viewBox="0 0 221 240" fill="none" xmlns="http://www.w3.org/2000/svg">
<circle cx="110.302" cy="130.234" r="109.747" fill="#FF001D"/>
<circle cx="107.01" cy="43.5331" r="43.5331" fill="white"/>
<path d="M96.7129 50.4368V47.8761L109.809 31.1213H113.76L100.774 47.8761L98.9079 47.2907H119.357V50.4368H96.7129ZM110.943 56.729V50.4368L111.053 47.2907V41.7302H114.492V56.729H110.943Z" fill="#FF001D"/>
<g clip-path="url(#clip0_2001_588)">
<path d="M94.3425 214C91.8354 213.119 89.7878 211.602 87.9319 209.693C83.685 205.309 79.3444 201.015 75.0126 196.717C72.7955 194.517 71.9657 191.784 73.5494 189.194C77.0915 183.388 76.5696 176.706 78.2112 170.516C79.4782 165.721 78.0774 162.465 74.4104 159.339C70.4489 155.962 70.6675 155.689 74.2721 152.048C89.0963 137.082 103.943 122.134 118.731 107.128C119.878 105.966 120.511 106.077 121.56 107.16C130.062 115.922 138.592 124.653 147.171 133.339C148.344 134.524 148.308 135.271 147.144 136.434C140.073 143.469 133.123 150.626 126.012 157.621C123.688 159.911 122.858 163.19 120.418 165.359C119.722 165.976 120.444 166.58 120.89 167.054C122.751 169.058 123.527 171.348 122.728 174.04C122.421 175.078 122.951 175.731 123.594 176.402C125.717 178.625 126.663 181.139 125.343 184.135C124.941 185.043 125.276 185.625 125.86 186.318C128.965 189.995 129.228 193.014 126.364 196.816C123.09 201.163 119.186 204.974 115.073 208.521C112.673 210.587 109.649 211.562 106.602 212.354C104.59 212.877 102.596 213.45 100.593 214H94.347H94.3425ZM97.1263 209.594C102.426 208.597 107.998 208.132 112.41 204.656C116.019 201.816 119.111 198.332 122.041 194.758C122.858 193.765 123.411 192.607 123.201 191.252C122.92 189.422 121.729 188.948 120.324 190.098C119.516 190.755 118.713 191.421 117.942 192.119C116.755 193.193 115.457 193.703 114.235 192.361C112.99 190.992 113.739 189.735 114.864 188.68C116.001 187.611 117.197 186.604 118.334 185.531C119.253 184.663 120.137 183.76 120.681 182.579C121.283 181.273 120.868 180.244 119.815 179.439C118.682 178.571 118.281 179.828 117.665 180.311C116.786 180.996 116.001 181.796 115.162 182.534C114.007 183.545 112.736 184.238 111.455 182.856C110.112 181.407 110.866 180.132 112.071 179.001C113.592 177.578 115.127 176.174 116.621 174.72C117.38 173.982 117.928 173.097 117.96 171.979C117.986 170.995 117.562 170.221 116.737 169.742C115.827 169.214 115.412 170.096 114.904 170.561C114.083 171.317 113.307 172.122 112.53 172.922C111.437 174.045 110.215 174.756 108.872 173.441C107.458 172.055 108.141 170.757 109.318 169.581C112 166.898 114.672 164.2 117.353 161.517C118.2 160.667 119.008 159.781 119.392 158.623C119.913 157.053 119.954 155.501 118.624 154.284C117.393 153.162 115.961 153.148 114.458 153.757C113.249 154.249 112.347 155.121 111.451 156.02C106.468 161.029 101.485 166.043 96.4972 171.053C94.5031 173.056 92.509 175.065 90.4926 177.042C89.5335 177.981 88.4137 178.263 87.2895 177.373C86.1743 176.492 86.0315 175.329 86.897 174.228C87.6777 173.235 87.2539 172.573 86.5089 171.961C85.4471 171.088 84.711 169.098 83.395 169.492C82.311 169.814 82.7169 171.862 82.4136 173.137C81.0485 178.929 81.6775 185.227 77.9346 190.429C77.0112 191.708 77.6581 192.902 78.7421 193.975C83.2389 198.421 87.691 202.912 92.1343 207.411C93.5172 208.811 95.1009 209.621 97.1307 209.608L97.1263 209.594ZM117.991 147.159C117.509 148.376 118.116 149.056 119.418 149.44C120.038 149.624 120.65 150.004 121.145 150.433C122.149 151.297 122.902 151.145 123.795 150.214C126.891 146.998 130.031 143.832 133.194 140.683C133.912 139.967 134.207 139.39 133.614 138.384C132.431 136.376 132.364 134.242 133.627 132.243C134.314 131.156 133.935 130.516 133.176 129.743C130.361 126.88 127.564 123.995 124.812 121.07C124.036 120.242 123.407 120.01 122.349 120.65C120.337 121.866 118.209 121.821 116.233 120.56C115.229 119.92 114.672 120.242 113.967 120.972C104.71 130.539 95.44 140.092 86.1475 149.619C85.2821 150.505 85.1215 151.238 85.7416 152.352C86.7944 154.24 86.7408 156.239 85.688 158.118C85.1081 159.151 85.2821 159.866 86.094 160.663C88.0569 162.59 90.0108 164.531 91.8622 166.567C92.8793 167.689 93.5574 167.559 94.5477 166.531C97.5411 163.422 100.557 160.336 103.693 157.38C105.161 155.997 105.228 155.398 103.367 154.24C99.4906 151.824 98.2014 146.994 99.9635 142.839C101.712 138.715 106.289 136.434 110.795 137.44C115.02 138.388 118.147 142.535 117.995 147.155L117.991 147.159Z" fill="white"/>
<path d="M150.999 122.309C147.404 123.979 144.204 123.427 141.399 120.654C135.68 115.019 129.952 109.387 124.22 103.77C121.034 100.648 118.799 100.59 115.69 103.846C102.904 117.246 89.2937 129.801 76.0443 142.727C74.6524 144.084 73.2739 144.09 71.9088 142.745C71.6992 142.535 71.5073 142.298 71.2709 142.123C69.5266 140.862 69.6381 139.82 71.204 138.277C87.139 122.564 102.998 106.771 118.88 91H119.772C122.051 93.8581 124.813 96.2465 127.405 98.8004C135.234 106.525 142.898 114.424 150.999 121.862V122.309Z" fill="white"/>
</g>
<defs>
<clipPath id="clip0_2001_588">
<rect width="81" height="123" fill="white" transform="translate(70 91)"/>
</clipPath>
</defs>
</svg>
