<svg width="221" height="240" viewBox="0 0 221 240" fill="none" xmlns="http://www.w3.org/2000/svg">
<circle cx="110.376" cy="130.234" r="109.747" fill="#FF001D"/>
<g clip-path="url(#clip0_15_223)">
<path d="M118.836 182.999C115.652 183.048 112.933 182.08 110.366 180.561C102.305 175.784 94.8582 170.182 88.0626 163.685C79.3541 155.361 72.0059 145.95 66.1063 135.406C63.7646 131.221 63.2333 126.76 65.236 122.259C66.7914 118.765 69.5133 116.614 73.2693 115.94C75.1309 115.606 76.7219 116.302 78.0836 117.577C78.8727 118.316 79.5407 119.161 80.1005 120.085C82.3552 123.814 84.5174 127.597 86.5386 131.462C86.8946 132.142 87.1482 132.867 87.3846 133.6C88.2079 136.147 87.6453 138.326 85.721 140.16C84.9219 140.921 84.929 140.927 85.617 141.828C91.2247 149.162 97.6656 155.649 104.897 161.341C105.477 161.798 105.811 161.862 106.333 161.249C108.17 159.091 110.472 158.622 113.103 159.494C114.808 160.06 116.367 160.929 117.89 161.86C120.935 163.724 124.161 165.278 127.068 167.375C130.881 170.124 131.384 173.379 128.944 177.524C126.832 181.111 123.133 183.004 118.836 182.999Z" fill="white"/>
<path d="M103.655 101.006C113.043 101.391 121.438 104.498 128.689 110.557C136.978 117.483 141.914 126.383 143.557 137.137C143.861 139.129 144.035 141.142 143.994 143.162C143.965 144.567 143.099 145.637 141.823 145.931C140.608 146.212 139.363 145.617 138.776 144.476C138.482 143.904 138.438 143.28 138.433 142.654C138.395 136.853 137.043 131.371 134.34 126.269C129.259 116.682 121.502 110.468 111.1 107.672C108.244 106.904 105.33 106.581 102.374 106.555C100.169 106.536 98.8235 104.372 99.8077 102.479C100.285 101.561 101.045 101.041 102.09 101.009C102.611 100.993 103.134 101.006 103.655 101.006Z" fill="white"/>
<path d="M132.357 142.169C132.357 142.458 132.357 142.746 132.357 143.034C132.35 144.746 131.215 145.99 129.642 146.011C128.087 146.033 126.883 144.785 126.867 143.062C126.849 140.888 126.557 138.757 126.006 136.659C123.5 127.103 115.191 119.735 105.541 118.53C104.46 118.394 103.37 118.312 102.282 118.27C100.671 118.208 99.5029 117.079 99.5 115.512C99.4972 113.925 100.692 112.714 102.316 112.705C105.303 112.688 108.246 113.08 111.071 114.047C122.325 117.897 129.26 125.715 131.847 137.453C132.187 138.998 132.368 140.578 132.355 142.169H132.357Z" fill="white"/>
<path d="M102.849 124.657C111.071 124.742 118.64 131.222 120.237 139.532C120.442 140.596 120.538 141.67 120.609 142.747C120.727 144.512 119.528 145.945 117.918 146.014C116.34 146.082 115.107 144.78 115.051 142.988C114.856 136.653 110.718 131.695 104.582 130.455C103.884 130.314 103.181 130.225 102.464 130.217C100.689 130.202 99.5029 129.074 99.5 127.42C99.4972 125.786 100.716 124.66 102.49 124.657C102.608 124.657 102.728 124.657 102.846 124.657H102.849Z" fill="white"/>
</g>
<circle cx="107.084" cy="43.5331" r="43.5331" fill="white"/>
<path d="M106.436 56.729V32.5846L108.009 34.304H100.656V31.1213H110.057V56.729H106.436Z" fill="#FF001D"/>
<defs>
<clipPath id="clip0_15_223">
<rect width="80" height="82" fill="white" transform="translate(64 101)"/>
</clipPath>
</defs>
</svg>
