<svg width="40" height="40" viewBox="0 0 40 40" fill="none" xmlns="http://www.w3.org/2000/svg">
<rect width="40" height="40" rx="20" fill="white"/>
<path d="M26.2679 13.6518C27.9554 15.3393 29 17.5491 29 19.9598C29 24.8616 24.9018 28.8795 19.9598 28.8795C18.4732 28.8795 17.0268 28.4777 15.7009 27.7946L11 29L12.2455 24.3795C11.4821 23.0536 11.0402 21.5268 11.0402 19.9196C11.0402 15.0179 15.058 11 19.9598 11C22.3705 11 24.6205 11.9643 26.2679 13.6518ZM19.9598 27.3527C24.058 27.3527 27.4732 24.0179 27.4732 19.9598C27.4732 17.9509 26.6295 16.1027 25.2232 14.6964C23.817 13.2902 21.9688 12.5268 20 12.5268C15.9018 12.5268 12.567 15.8616 12.567 19.9196C12.567 21.3259 12.9688 22.692 13.692 23.8973L13.8929 24.1786L13.1295 26.9107L15.942 26.1473L16.183 26.308C17.3482 26.9911 18.6339 27.3527 19.9598 27.3527ZM24.058 21.808C24.2589 21.9286 24.4196 21.9688 24.4598 22.0893C24.5402 22.1696 24.5402 22.6116 24.3393 23.1339C24.1384 23.6563 23.2545 24.1384 22.8527 24.1786C22.1295 24.2991 21.567 24.2589 20.1607 23.6161C17.9107 22.6518 16.4643 20.4018 16.3438 20.2813C16.2232 20.1205 15.4598 19.0759 15.4598 17.9509C15.4598 16.8661 16.0223 16.3438 16.2232 16.1027C16.4241 15.8616 16.6652 15.8214 16.8259 15.8214C16.9464 15.8214 17.1071 15.8214 17.2277 15.8214C17.3884 15.8214 17.5491 15.7813 17.75 16.2232C17.9107 16.6652 18.3929 17.75 18.433 17.8705C18.4732 17.9911 18.5134 18.1116 18.433 18.2723C18.0313 19.1161 17.5491 19.0759 17.7902 19.4777C18.6741 20.9643 19.5179 21.4866 20.8438 22.1295C21.0446 22.25 21.1652 22.2098 21.3259 22.0893C21.4464 21.9286 21.8884 21.4063 22.0089 21.2054C22.1696 20.9643 22.3304 21.0045 22.5313 21.0848C22.7321 21.1652 23.817 21.6875 24.058 21.808Z" fill="black"/>
</svg>
