<svg width="220" height="240" viewBox="0 0 220 240" fill="none" xmlns="http://www.w3.org/2000/svg">
<circle cx="110.04" cy="130.234" r="109.747" fill="#FF001D"/>
<g clip-path="url(#clip0_15_231)">
<path d="M111.572 186.548C111.976 186.36 112.05 186.039 112.192 185.777C113.418 183.538 114.598 181.273 115.862 179.057C118.673 174.125 125.527 172.365 130.374 175.307C132.577 176.644 134.759 178.02 136.959 179.362C138.546 180.329 140.231 180.156 141.559 178.842C144.673 175.758 147.772 172.658 150.856 169.541C152.121 168.261 152.273 166.636 151.332 165.079C150.026 162.917 148.739 160.739 147.382 158.61C144.334 153.831 146.12 146.903 150.501 144.21C152.475 142.997 154.559 141.963 156.594 140.849C157.114 140.564 157.64 140.289 158.152 139.99C159.598 139.142 160.302 137.659 159.885 136.039C158.758 131.671 157.592 127.313 156.402 122.963C156.014 121.545 154.743 120.559 153.328 120.553C151.086 120.544 148.843 120.49 146.604 120.674C140.835 121.151 135.788 117.62 134.53 112.224C134.276 111.134 134.247 110.029 134.292 108.918C134.38 106.781 134.468 104.643 134.539 102.506C134.612 100.329 133.561 98.9651 131.445 98.4033C127.511 97.3602 123.579 96.2985 119.645 95.2539C117.21 94.607 115.915 95.1517 114.711 97.3478C113.62 99.3381 112.551 101.338 111.485 103.34C108.509 108.93 101.607 110.803 96.2149 107.485C94.1293 106.2 92.0407 104.924 89.9427 103.659C88.3105 102.676 86.7169 102.862 85.3678 104.205C82.2967 107.262 79.2349 110.325 76.1809 113.398C74.8503 114.739 74.6739 116.43 75.6718 118.063C77.0148 120.264 78.384 122.449 79.7207 124.654C82.6773 129.533 80.7449 136.598 75.7229 139.303C73.5213 140.488 71.3166 141.668 69.1135 142.848C67.2863 143.828 66.6133 145.346 67.1501 147.374C68.2533 151.534 69.3749 155.691 70.4889 159.848C70.5353 160.021 70.5895 160.196 70.656 160.363C71.1928 161.705 71.6756 161.812 72.6781 160.81C76.2876 157.2 79.8816 153.574 83.5128 149.983C86.2992 147.228 87.8108 143.938 87.9887 140.012C88.5488 127.683 98.1225 117.623 110.261 116.118C123.988 114.414 136.583 123.78 138.8 137.404C141.04 151.172 131.821 164.197 118.09 166.696C116.334 167.016 114.55 166.99 112.794 167.261C110.054 167.684 107.726 168.956 105.727 170.835C104.449 172.034 103.234 173.301 101.998 174.544C101.803 174.741 101.454 174.917 101.515 175.199C101.596 175.564 102.031 175.465 102.308 175.53C106.995 176.62 109.932 179.521 111.193 184.133C111.4 184.892 111.445 185.693 111.577 186.551L111.572 186.548Z" fill="white"/>
<path d="M113.867 123.514C104.581 123.515 97.0154 130.122 95.7963 138.939C95.5565 140.677 95.6833 142.438 95.3971 144.176C94.7674 147.991 93.0918 151.261 90.3689 153.99C83.6295 160.744 76.8793 167.487 70.1337 174.235C70.0239 174.344 69.9001 174.443 69.8088 174.566C69.6495 174.779 69.2611 174.905 69.3973 175.233C69.5087 175.502 69.8537 175.394 70.0981 175.439C72.1435 175.813 73.997 176.618 75.5704 177.986C76.0268 178.382 76.296 178.415 76.7895 178.012C80.2552 175.182 84.1184 174.539 88.3065 176.116C88.9672 176.366 89.3493 176.299 89.8444 175.799C93.4879 172.113 97.1624 168.457 100.826 164.791C104.199 161.417 108.221 159.515 113.033 159.439C117.452 159.369 121.477 158.178 124.912 155.312C128.693 152.156 130.827 148.118 131.353 143.211C131.574 141.154 131.388 139.145 130.903 137.155C130.572 135.797 129.739 135.574 128.746 136.565C125.956 139.349 123.167 142.135 120.402 144.944C118.572 146.803 116.417 146.858 114.557 145.027C112.994 143.491 111.439 141.945 109.891 140.394C108.235 138.735 108.13 136.649 109.73 134.954C111.551 133.025 113.463 131.182 115.34 129.306C116.378 128.268 117.441 127.253 118.465 126.202C119.39 125.253 119.137 124.417 117.84 124.074C116.412 123.696 114.953 123.557 113.865 123.515L113.867 123.514Z" fill="white"/>
<path d="M84.1798 192C87.1101 191.986 89.4138 189.655 89.3984 186.719C89.3829 183.816 87.0266 181.512 84.0855 181.524C81.1923 181.536 78.7803 183.971 78.8422 186.818C78.9056 189.756 81.2325 192.015 84.1798 192Z" fill="white"/>
<path d="M100.041 192C102.972 192 105.323 189.668 105.32 186.763C105.317 183.864 102.95 181.519 100.031 181.524C97.139 181.529 94.7765 183.844 94.7548 186.698C94.7316 189.657 97.0678 192 100.043 192H100.041Z" fill="white"/>
<path d="M63 186.772C63.0016 189.74 65.265 192.002 68.2309 192C71.1875 192 73.4711 189.719 73.4727 186.766C73.4727 183.832 71.1612 181.521 68.2263 181.522C65.279 181.524 62.9985 183.815 63 186.772Z" fill="white"/>
</g>
<circle cx="106.748" cy="43.5331" r="43.5331" fill="white"/>
<path d="M106.414 57.0217C104.609 57.0217 102.853 56.7412 101.146 56.1803C99.4634 55.6193 98.0854 54.8633 97.0124 53.9122L98.6952 51.0221C99.5487 51.827 100.658 52.4854 102.024 52.9976C103.39 53.5098 104.853 53.7658 106.414 53.7658C108.316 53.7658 109.792 53.3634 110.841 52.5586C111.914 51.7294 112.45 50.6197 112.45 49.2296C112.45 47.8883 111.938 46.8152 110.914 46.0104C109.914 45.1812 108.316 44.7666 106.121 44.7666H104.073V42.2058L111.682 32.8407L112.194 34.304H98.183V31.1213H115.084V33.6089L107.512 42.9374L105.609 41.8034H106.816C109.914 41.8034 112.231 42.4984 113.767 43.8886C115.328 45.2787 116.108 47.0469 116.108 49.193C116.108 50.6319 115.755 51.9489 115.047 53.1439C114.34 54.339 113.267 55.2901 111.828 55.9974C110.414 56.6802 108.609 57.0217 106.414 57.0217Z" fill="#FF001D"/>
<defs>
<clipPath id="clip0_15_231">
<rect width="97" height="97" fill="white" transform="matrix(-1 0 0 1 160 95)"/>
</clipPath>
</defs>
</svg>
